font.ufo
<glyph name="exclam" format="1">
  <advance width="600"/>
  <unicode hex="0021"/>
  <outline>
    <contour>
      <point x="252" y="244" type="line"/>
      <point x="324" y="244" type="line"/>
      <point x="406" y="556" type="line"/>
      <point x="429" y="671" type="line"/>
      <point x="318" y="671" type="line"/>
      <point x="298" y="556" type="line"/>
    </contour>
    <contour>
      <point x="244" y="-12" type="curve" smooth="yes"/>
      <point x="299" y="-12"/>
      <point x="340" y="34"/>
      <point x="340" y="87" type="curve" smooth="yes"/>
      <point x="340" y="130"/>
      <point x="312" y="160"/>
      <point x="271" y="160" type="curve" smooth="yes"/>
      <point x="216" y="160"/>
      <point x="176" y="114"/>
      <point x="176" y="60" type="curve" smooth="yes"/>
      <point x="176" y="18"/>
      <point x="204" y="-12"/>
    </contour>
  </outline>
</glyph>
<glyph name="numbersign" format="1">
  <advance width="600"/>
  <unicode hex="0023"/>
  <outline>
    <contour>
      <point x="70" y="0" type="line"/>
      <point x="135" y="0" type="line"/>
      <point x="337" y="650" type="line"/>
      <point x="272" y="650" type="line"/>
    </contour>
    <contour>
      <point x="268" y="0" type="line"/>
      <point x="333" y="0" type="line"/>
      <point x="525" y="650" type="line"/>
      <point x="460" y="650" type="line"/>
    </contour>
    <contour>
      <point x="115" y="409" type="line"/>
      <point x="537" y="409" type="line"/>
      <point x="554" y="473" type="line"/>
      <point x="131" y="473" type="line"/>
    </contour>
    <contour>
      <point x="56" y="199" type="line"/>
      <point x="479" y="199" type="line"/>
      <point x="496" y="262" type="line"/>
      <point x="72" y="262" type="line"/>
    </contour>
  </outline>
</glyph>
<glyph name="dollar" format="1">
  <advance width="600"/>
  <unicode hex="0024"/>
  <outline>
    <contour>
      <point x="266" y="34" type="curve" smooth="yes"/>
      <point x="389" y="34"/>
      <point x="492" y="86"/>
      <point x="492" y="205" type="curve" smooth="yes"/>
      <point x="492" y="293"/>
      <point x="422" y="331"/>
      <point x="339" y="370" type="curve" smooth="yes"/>
      <point x="270" y="403"/>
      <point x="234" y="428"/>
      <point x="234" y="468" type="curve" smooth="yes"/>
      <point x="234" y="511"/>
      <point x="274" y="531"/>
      <point x="324" y="531" type="curve" smooth="yes"/>
      <point x="384" y="531"/>
      <point x="429" y="504"/>
      <point x="466" y="462" type="curve"/>
      <point x="530" y="521" type="line"/>
      <point x="498" y="563"/>
      <point x="429" y="618"/>
      <point x="335" y="618" type="curve" smooth="yes"/>
      <point x="219" y="618"/>
      <point x="129" y="566"/>
      <point x="129" y="459" type="curve" smooth="yes"/>
      <point x="129" y="371"/>
      <point x="192" y="329"/>
      <point x="274" y="289" type="curve" smooth="yes"/>
      <point x="343" y="256"/>
      <point x="386" y="235"/>
      <point x="386" y="192" type="curve" smooth="yes"/>
      <point x="386" y="146"/>
      <point x="344" y="121"/>
      <point x="274" y="121" type="curve" smooth="yes"/>
      <point x="199" y="121"/>
      <point x="152" y="161"/>
      <point x="116" y="203" type="curve"/>
      <point x="50" y="138" type="line"/>
      <point x="91" y="88"/>
      <point x="164" y="34"/>
    </contour>
    <contour>
      <point x="311" y="582" type="line"/>
      <point x="384" y="582" type="line"/>
      <point x="416" y="747" type="line"/>
      <point x="342" y="747" type="line"/>
    </contour>
    <contour>
      <point x="180" y="-110" type="line"/>
      <point x="254" y="-110" type="line"/>
      <point x="290" y="74" type="line"/>
      <point x="217" y="74" type="line"/>
    </contour>
  </outline>
</glyph>
<glyph name="ampersand" format="1">
  <advance width="600"/>
  <unicode hex="0026"/>
  <outline>
    <contour>
      <point x="184" y="-12" type="curve" smooth="yes"/>
      <point x="273" y="-12"/>
      <point x="354" y="27"/>
      <point x="417" y="92" type="curve" smooth="yes"/>
      <point x="488" y="166"/>
      <point x="541" y="253"/>
      <point x="585" y="354" type="curve"/>
      <point x="489" y="354" type="line"/>
      <point x="455" y="272"/>
      <point x="414" y="199"/>
      <point x="353" y="142" type="curve" smooth="yes"/>
      <point x="306" y="98"/>
      <point x="252" y="71"/>
      <point x="203" y="71" type="curve" smooth="yes"/>
      <point x="150" y="71"/>
      <point x="116" y="104"/>
      <point x="116" y="156" type="curve" smooth="yes"/>
      <point x="116" y="313"/>
      <point x="449" y="340"/>
      <point x="449" y="547" type="curve" smooth="yes"/>
      <point x="449" y="617"/>
      <point x="406" y="666"/>
      <point x="327" y="666" type="curve" smooth="yes"/>
      <point x="220" y="666"/>
      <point x="143" y="582"/>
      <point x="143" y="472" type="curve" smooth="yes"/>
      <point x="143" y="343"/>
      <point x="234" y="180"/>
      <point x="344" y="80" type="curve" smooth="yes"/>
      <point x="395" y="33"/>
      <point x="454" y="2"/>
      <point x="506" y="-12" type="curve"/>
      <point x="548" y="73" type="line"/>
      <point x="513" y="84"/>
      <point x="462" y="107"/>
      <point x="419" y="145" type="curve" smooth="yes"/>
      <point x="321" y="229"/>
      <point x="234" y="362"/>
      <point x="234" y="476" type="curve" smooth="yes"/>
      <point x="234" y="546"/>
      <point x="272" y="593"/>
      <point x="321" y="593" type="curve" smooth="yes"/>
      <point x="349" y="593"/>
      <point x="363" y="572"/>
      <point x="363" y="546" type="curve" smooth="yes"/>
      <point x="363" y="386"/>
      <point x="12" y="368"/>
      <point x="12" y="144" type="curve" smooth="yes"/>
      <point x="12" y="50"/>
      <point x="79" y="-12"/>
    </contour>
  </outline>
</glyph>
<glyph name="parenleft" format="1">
  <advance width="600"/>
  <unicode hex="0028"/>
  <outline>
    <contour>
      <point x="326" y="-177" type="curve"/>
      <point x="397" y="-126" type="line"/>
      <point x="319" y="-43"/>
      <point x="278" y="64"/>
      <point x="278" y="186" type="curve" smooth="yes"/>
      <point x="278" y="376"/>
      <point x="360" y="540"/>
      <point x="556" y="675" type="curve"/>
      <point x="505" y="737" type="line"/>
      <point x="307" y="613"/>
      <point x="186" y="425"/>
      <point x="186" y="185" type="curve" smooth="yes"/>
      <point x="186" y="37"/>
      <point x="239" y="-92"/>
    </contour>
  </outline>
</glyph>
<glyph name="asterisk" format="1">
  <advance width="600"/>
  <unicode hex="002A"/>
  <outline>
    <contour>
      <point x="143" y="108" type="line"/>
      <point x="291" y="251" type="line"/>
      <point x="386" y="100" type="line"/>
      <point x="440" y="132" type="line"/>
      <point x="366" y="295" type="line"/>
      <point x="536" y="370" type="line"/>
      <point x="520" y="424" type="line"/>
      <point x="354" y="374" type="line"/>
      <point x="376" y="551" type="line"/>
      <point x="316" y="551" type="line"/>
      <point x="270" y="377" type="line"/>
      <point x="118" y="426" type="line"/>
      <point x="90" y="375" type="line"/>
      <point x="226" y="302" type="line"/>
      <point x="99" y="144" type="line"/>
    </contour>
  </outline>
</glyph>
<glyph name="plus" format="1">
  <advance width="600"/>
  <unicode hex="002B"/>
  <outline>
    <contour>
      <point x="265" y="99" type="line"/>
      <point x="344" y="99" type="line"/>
      <point x="344" y="292" type="line"/>
      <point x="521" y="292" type="line"/>
      <point x="521" y="369" type="line"/>
      <point x="344" y="369" type="line"/>
      <point x="344" y="559" type="line"/>
      <point x="265" y="559" type="line"/>
      <point x="265" y="369" type="line"/>
      <point x="88" y="369" type="line"/>
      <point x="88" y="292" type="line"/>
      <point x="265" y="292" type="line"/>
    </contour>
  </outline>
</glyph>
<glyph name="comma" format="1">
  <advance width="600"/>
  <unicode hex="002C"/>
  <outline>
    <contour>
      <point x="104" y="-204" type="line"/>
      <point x="252" y="-170"/>
      <point x="357" y="-64"/>
      <point x="357" y="74" type="curve" smooth="yes"/>
      <point x="357" y="140"/>
      <point x="326" y="177"/>
      <point x="277" y="177" type="curve" smooth="yes"/>
      <point x="220" y="177"/>
      <point x="173" y="133"/>
      <point x="173" y="76" type="curve" smooth="yes"/>
      <point x="173" y="31"/>
      <point x="205" y="2"/>
      <point x="242" y="2" type="curve" smooth="yes"/>
      <point x="268" y="2"/>
      <point x="290" y="14"/>
      <point x="302" y="26" type="curve"/>
      <point x="273" y="93" type="line"/>
      <point x="258" y="10" type="line"/>
      <point x="245" y="-62"/>
      <point x="185" y="-119"/>
      <point x="92" y="-147" type="curve"/>
    </contour>
  </outline>
</glyph>
<glyph name="zero" format="1">
  <advance width="600"/>
  <unicode hex="0030"/>
  <outline>
    <contour>
      <point x="254" y="-12" type="curve" smooth="yes"/>
      <point x="445" y="-12"/>
      <point x="553" y="194"/>
      <point x="553" y="398" type="curve" smooth="yes"/>
      <point x="553" y="550"/>
      <point x="475" y="648"/>
      <point x="349" y="648" type="curve" smooth="yes"/>
      <point x="158" y="648"/>
      <point x="50" y="442"/>
      <point x="50" y="237" type="curve" smooth="yes"/>
      <point x="50" y="86"/>
      <point x="128" y="-12"/>
    </contour>
    <contour>
      <point x="264" y="72" type="curve" smooth="yes"/>
      <point x="187" y="72"/>
      <point x="150" y="137"/>
      <point x="150" y="246" type="curve" smooth="yes"/>
      <point x="150" y="396"/>
      <point x="220" y="565"/>
      <point x="340" y="565" type="curve" smooth="yes"/>
      <point x="416" y="565"/>
      <point x="453" y="499"/>
      <point x="453" y="390" type="curve" smooth="yes"/>
      <point x="453" y="240"/>
      <point x="383" y="72"/>
    </contour>
    <contour>
      <point x="294" y="255" type="curve" smooth="yes"/>
      <point x="333" y="255"/>
      <point x="364" y="294"/>
      <point x="364" y="339" type="curve" smooth="yes"/>
      <point x="364" y="376"/>
      <point x="344" y="398"/>
      <point x="312" y="398" type="curve" smooth="yes"/>
      <point x="273" y="398"/>
      <point x="242" y="359"/>
      <point x="242" y="314" type="curve" smooth="yes"/>
      <point x="242" y="277"/>
      <point x="262" y="255"/>
    </contour>
  </outline>
</glyph>
<glyph name="one" format="1">
  <advance width="600"/>
  <unicode hex="0031"/>
  <outline>
    <contour>
      <point x="32" y="0" type="line"/>
      <point x="471" y="0" type="line"/>
      <point x="488" y="87" type="line"/>
      <point x="329" y="87" type="line"/>
      <point x="440" y="636" type="line"/>
      <point x="360" y="636" type="line"/>
      <point x="316" y="611"/>
      <point x="257" y="595"/>
      <point x="189" y="585" type="curve"/>
      <point x="176" y="517" type="line"/>
      <point x="309" y="517" type="line"/>
      <point x="222" y="87" type="line"/>
      <point x="50" y="87" type="line"/>
    </contour>
  </outline>
</glyph>
<glyph name="two" format="1">
  <advance width="600"/>
  <unicode hex="0032"/>
  <outline>
    <contour>
      <point x="27" y="0" type="line"/>
      <point x="486" y="0" type="line"/>
      <point x="503" y="91" type="line"/>
      <point x="324" y="91" type="line"/>
      <point x="287" y="91"/>
      <point x="245" y="91"/>
      <point x="204" y="88" type="curve"/>
      <point x="386" y="249"/>
      <point x="505" y="351"/>
      <point x="505" y="484" type="curve" smooth="yes"/>
      <point x="505" y="583"/>
      <point x="437" y="648"/>
      <point x="324" y="648" type="curve" smooth="yes"/>
      <point x="238" y="648"/>
      <point x="169" y="606"/>
      <point x="112" y="547" type="curve"/>
      <point x="165" y="484" type="line"/>
      <point x="211" y="532"/>
      <point x="259" y="562"/>
      <point x="309" y="562" type="curve" smooth="yes"/>
      <point x="371" y="562"/>
      <point x="400" y="528"/>
      <point x="400" y="473" type="curve" smooth="yes"/>
      <point x="400" y="358"/>
      <point x="267" y="252"/>
      <point x="38" y="62" type="curve"/>
    </contour>
  </outline>
</glyph>
<glyph name="three" format="1">
	<unicode hex="0033"/>
	<advance width="600"/>
	<outline>
		<contour>
			<point x="245" y="-12" type="curve" smooth="yes"/>
			<point x="384" y="-12"/>
			<point x="489" y="56"/>
			<point x="489" y="184" type="curve" smooth="yes"/>
			<point x="489" y="250"/>
			<point x="449" y="299"/>
			<point x="366" y="324" type="curve"/>
			<point x="366" y="327" type="line"/>
			<point x="478" y="358"/>
			<point x="523" y="416"/>
			<point x="523" y="501" type="curve" smooth="yes"/>
			<point x="523" y="593"/>
			<point x="445" y="648"/>
			<point x="335" y="648" type="curve" smooth="yes"/>
			<point x="260" y="648"/>
			<point x="194" y="623"/>
			<point x="135" y="577" type="curve"/>
			<point x="184" y="510" type="line"/>
			<point x="226" y="543"/>
			<point x="268" y="562"/>
			<point x="316" y="562" type="curve" smooth="yes"/>
			<point x="375" y="562"/>
			<point x="413" y="533"/>
			<point x="413" y="483" type="curve" smooth="yes"/>
			<point x="413" y="417"/>
			<point x="362" y="366"/>
			<point x="213" y="366" type="curve"/>
			<point x="198" y="288" type="line"/>
			<point x="338" y="287"/>
			<point x="382" y="248"/>
			<point x="382" y="183" type="curve" smooth="yes"/>
			<point x="382" y="114"/>
			<point x="324" y="75"/>
			<point x="246" y="75" type="curve" smooth="yes"/>
			<point x="179" y="75"/>
			<point x="125" y="110"/>
			<point x="92" y="155" type="curve"/>
			<point x="23" y="99" type="line"/>
			<point x="75" y="29"/>
			<point x="153" y="-12"/>
		</contour>
	</outline>
</glyph>
<glyph name="four" format="1">
  <advance width="600"/>
  <unicode hex="0034"/>
  <outline>
    <contour>
      <point x="305" y="0" type="line"/>
      <point x="402" y="0" type="line"/>
      <point x="529" y="636" type="line"/>
      <point x="406" y="636" type="line"/>
      <point x="28" y="240" type="line"/>
      <point x="14" y="166" type="line"/>
      <point x="525" y="166" type="line"/>
      <point x="542" y="250" type="line"/>
      <point x="146" y="250" type="line"/>
      <point x="328" y="439" type="line" smooth="yes"/>
      <point x="356" y="471"/>
      <point x="384" y="506"/>
      <point x="411" y="540" type="curve"/>
      <point x="414" y="540" type="line"/>
      <point x="405" y="504"/>
      <point x="395" y="458"/>
      <point x="386" y="416" type="curve" smooth="yes"/>
    </contour>
  </outline>
</glyph>
<glyph name="five" format="1">
  <advance width="600"/>
  <unicode hex="0035"/>
  <outline>
    <contour>
      <point x="238" y="-12" type="curve" smooth="yes"/>
      <point x="375" y="-12"/>
      <point x="502" y="80"/>
      <point x="502" y="236" type="curve" smooth="yes"/>
      <point x="502" y="351"/>
      <point x="424" y="405"/>
      <point x="322" y="405" type="curve" smooth="yes"/>
      <point x="279" y="405"/>
      <point x="248" y="396"/>
      <point x="213" y="382" type="curve"/>
      <point x="255" y="546" type="line"/>
      <point x="524" y="546" type="line"/>
      <point x="541" y="636" type="line"/>
      <point x="179" y="636" type="line"/>
      <point x="103" y="322" type="line"/>
      <point x="146" y="287" type="line"/>
      <point x="198" y="313"/>
      <point x="230" y="324"/>
      <point x="280" y="324" type="curve" smooth="yes"/>
      <point x="352" y="324"/>
      <point x="394" y="288"/>
      <point x="394" y="218" type="curve" smooth="yes"/>
      <point x="394" y="126"/>
      <point x="319" y="75"/>
      <point x="240" y="75" type="curve" smooth="yes"/>
      <point x="171" y="75"/>
      <point x="118" y="108"/>
      <point x="83" y="156" type="curve"/>
      <point x="14" y="99" type="line"/>
      <point x="66" y="28"/>
      <point x="145" y="-12"/>
    </contour>
  </outline>
</glyph>
<glyph name="six" format="1">
  <advance width="600"/>
  <unicode hex="0036"/>
  <outline>
    <contour>
      <point x="274" y="-12" type="curve" smooth="yes"/>
      <point x="414" y="-12"/>
      <point x="515" y="101"/>
      <point x="515" y="230" type="curve" smooth="yes"/>
      <point x="515" y="348"/>
      <point x="434" y="398"/>
      <point x="342" y="398" type="curve" smooth="yes"/>
      <point x="277" y="398"/>
      <point x="204" y="362"/>
      <point x="162" y="310" type="curve"/>
      <point x="154" y="230" type="line"/>
      <point x="204" y="295"/>
      <point x="259" y="322"/>
      <point x="314" y="322" type="curve" smooth="yes"/>
      <point x="372" y="322"/>
      <point x="416" y="290"/>
      <point x="416" y="220" type="curve" smooth="yes"/>
      <point x="416" y="148"/>
      <point x="366" y="69"/>
      <point x="280" y="69" type="curve" smooth="yes"/>
      <point x="211" y="69"/>
      <point x="160" y="119"/>
      <point x="160" y="212" type="curve" smooth="yes"/>
      <point x="160" y="454"/>
      <point x="273" y="561"/>
      <point x="385" y="561" type="curve" smooth="yes"/>
      <point x="433" y="561"/>
      <point x="468" y="544"/>
      <point x="497" y="505" type="curve"/>
      <point x="566" y="562" type="line"/>
      <point x="534" y="607"/>
      <point x="475" y="648"/>
      <point x="392" y="648" type="curve" smooth="yes"/>
      <point x="211" y="648"/>
      <point x="60" y="494"/>
      <point x="60" y="219" type="curve" smooth="yes"/>
      <point x="60" y="79"/>
      <point x="146" y="-12"/>
    </contour>
  </outline>
</glyph>
<glyph name="eight" format="1">
  <advance width="600"/>
  <unicode hex="0038"/>
  <outline>
    <contour>
      <point x="259" y="-12" type="curve" smooth="yes"/>
      <point x="401" y="-12"/>
      <point x="496" y="63"/>
      <point x="496" y="179" type="curve" smooth="yes"/>
      <point x="496" y="253"/>
      <point x="448" y="296"/>
      <point x="409" y="322" type="curve"/>
      <point x="409" y="326" type="line"/>
      <point x="486" y="364"/>
      <point x="533" y="421"/>
      <point x="533" y="504" type="curve" smooth="yes"/>
      <point x="533" y="599"/>
      <point x="451" y="648"/>
      <point x="351" y="648" type="curve" smooth="yes"/>
      <point x="230" y="648"/>
      <point x="138" y="583"/>
      <point x="138" y="473" type="curve" smooth="yes"/>
      <point x="138" y="419"/>
      <point x="165" y="379"/>
      <point x="205" y="340" type="curve"/>
      <point x="205" y="336" type="line"/>
      <point x="107" y="294"/>
      <point x="53" y="236"/>
      <point x="53" y="146" type="curve" smooth="yes"/>
      <point x="53" y="46"/>
      <point x="135" y="-12"/>
    </contour>
    <contour>
      <point x="353" y="355" type="curve"/>
      <point x="289" y="385"/>
      <point x="234" y="423"/>
      <point x="234" y="480" type="curve" smooth="yes"/>
      <point x="234" y="537"/>
      <point x="284" y="571"/>
      <point x="343" y="571" type="curve" smooth="yes"/>
      <point x="399" y="571"/>
      <point x="440" y="540"/>
      <point x="440" y="486" type="curve" smooth="yes"/>
      <point x="440" y="432"/>
      <point x="407" y="386"/>
    </contour>
    <contour>
      <point x="266" y="66" type="curve" smooth="yes"/>
      <point x="204" y="66"/>
      <point x="149" y="99"/>
      <point x="149" y="166" type="curve" smooth="yes"/>
      <point x="149" y="224"/>
      <point x="190" y="267"/>
      <point x="254" y="302" type="curve"/>
      <point x="332" y="260"/>
      <point x="398" y="228"/>
      <point x="398" y="166" type="curve" smooth="yes"/>
      <point x="398" y="99"/>
      <point x="335" y="66"/>
    </contour>
  </outline>
</glyph>
<glyph name="nine" format="1">
  <advance width="600"/>
  <unicode hex="0039"/>
  <outline>
    <contour>
      <point x="209" y="-12" type="curve" smooth="yes"/>
      <point x="390" y="-12"/>
      <point x="541" y="142"/>
      <point x="541" y="418" type="curve" smooth="yes"/>
      <point x="541" y="557"/>
      <point x="455" y="648"/>
      <point x="326" y="648" type="curve" smooth="yes"/>
      <point x="187" y="648"/>
      <point x="86" y="535"/>
      <point x="86" y="406" type="curve" smooth="yes"/>
      <point x="86" y="288"/>
      <point x="166" y="239"/>
      <point x="259" y="239" type="curve" smooth="yes"/>
      <point x="324" y="239"/>
      <point x="397" y="275"/>
      <point x="439" y="327" type="curve"/>
      <point x="447" y="406" type="line"/>
      <point x="397" y="341"/>
      <point x="342" y="314"/>
      <point x="286" y="314" type="curve" smooth="yes"/>
      <point x="229" y="314"/>
      <point x="185" y="347"/>
      <point x="185" y="417" type="curve" smooth="yes"/>
      <point x="185" y="489"/>
      <point x="235" y="567"/>
      <point x="321" y="567" type="curve" smooth="yes"/>
      <point x="390" y="567"/>
      <point x="441" y="518"/>
      <point x="441" y="425" type="curve" smooth="yes"/>
      <point x="441" y="182"/>
      <point x="328" y="75"/>
      <point x="216" y="75" type="curve" smooth="yes"/>
      <point x="168" y="75"/>
      <point x="132" y="92"/>
      <point x="104" y="132" type="curve"/>
      <point x="35" y="75" type="line"/>
      <point x="67" y="29"/>
      <point x="126" y="-12"/>
    </contour>
  </outline>
</glyph>
<glyph name="less" format="1">
  <advance width="600"/>
  <unicode hex="003C"/>
  <outline>
    <contour>
      <point x="448" y="42" type="line"/>
      <point x="448" y="140" type="line"/>
      <point x="159" y="330" type="line"/>
      <point x="159" y="334" type="line"/>
      <point x="448" y="524" type="line"/>
      <point x="448" y="622" type="line"/>
      <point x="70" y="370" type="line"/>
      <point x="70" y="294" type="line"/>
    </contour>
  </outline>
</glyph>
<glyph name="greater" format="1">
  <advance width="600"/>
  <unicode hex="003E"/>
  <outline>
    <contour>
      <point x="111" y="42" type="line"/>
      <point x="488" y="294" type="line"/>
      <point x="488" y="370" type="line"/>
      <point x="111" y="622" type="line"/>
      <point x="111" y="524" type="line"/>
      <point x="400" y="334" type="line"/>
      <point x="400" y="330" type="line"/>
      <point x="111" y="140" type="line"/>
    </contour>
  </outline>
</glyph>
<glyph name="question" format="1">
  <advance width="600"/>
  <unicode hex="003F"/>
  <outline>
    <contour>
      <point x="219" y="244" type="curve"/>
      <point x="309" y="244" type="line"/>
      <point x="314" y="307"/>
      <point x="349" y="334"/>
      <point x="400" y="373" type="curve" smooth="yes"/>
      <point x="465" y="422"/>
      <point x="528" y="464"/>
      <point x="528" y="554" type="curve" smooth="yes"/>
      <point x="528" y="636"/>
      <point x="462" y="682"/>
      <point x="368" y="682" type="curve" smooth="yes"/>
      <point x="281" y="682"/>
      <point x="219" y="645"/>
      <point x="169" y="585" type="curve"/>
      <point x="226" y="532" type="line"/>
      <point x="264" y="572"/>
      <point x="299" y="595"/>
      <point x="349" y="595" type="curve" smooth="yes"/>
      <point x="396" y="595"/>
      <point x="421" y="570"/>
      <point x="421" y="531" type="curve" smooth="yes"/>
      <point x="421" y="488"/>
      <point x="387" y="462"/>
      <point x="338" y="426" type="curve" smooth="yes"/>
      <point x="284" y="384"/>
      <point x="222" y="335"/>
    </contour>
    <contour>
      <point x="227" y="-12" type="curve" smooth="yes"/>
      <point x="282" y="-12"/>
      <point x="322" y="34"/>
      <point x="322" y="87" type="curve" smooth="yes"/>
      <point x="322" y="130"/>
      <point x="294" y="160"/>
      <point x="254" y="160" type="curve" smooth="yes"/>
      <point x="199" y="160"/>
      <point x="158" y="114"/>
      <point x="158" y="60" type="curve" smooth="yes"/>
      <point x="158" y="18"/>
      <point x="186" y="-12"/>
    </contour>
  </outline>
</glyph>
<glyph name="at" format="1">
  <advance width="600"/>
  <unicode hex="0040"/>
  <outline>
    <contour>
      <point x="249" y="-145" type="curve" smooth="yes"/>
      <point x="324" y="-145"/>
      <point x="389" y="-127"/>
      <point x="447" y="-87" type="curve"/>
      <point x="415" y="-28" type="line"/>
      <point x="371" y="-57"/>
      <point x="325" y="-78"/>
      <point x="263" y="-78" type="curve" smooth="yes"/>
      <point x="160" y="-78"/>
      <point x="99" y="7"/>
      <point x="99" y="159" type="curve" smooth="yes"/>
      <point x="99" y="429"/>
      <point x="260" y="573"/>
      <point x="401" y="573" type="curve" smooth="yes"/>
      <point x="499" y="573"/>
      <point x="515" y="502"/>
      <point x="498" y="410" type="curve" smooth="yes"/>
      <point x="494" y="389" type="line"/>
      <point x="295" y="366"/>
      <point x="203" y="308"/>
      <point x="203" y="192" type="curve" smooth="yes"/>
      <point x="203" y="126"/>
      <point x="243" y="89"/>
      <point x="304" y="89" type="curve" smooth="yes"/>
      <point x="359" y="89"/>
      <point x="413" y="115"/>
      <point x="449" y="155" type="curve"/>
      <point x="452" y="155" type="line"/>
      <point x="449" y="100" type="line"/>
      <point x="508" y="100" type="line"/>
      <point x="569" y="405" type="line" smooth="yes"/>
      <point x="597" y="551"/>
      <point x="550" y="639"/>
      <point x="412" y="639" type="curve" smooth="yes"/>
      <point x="208" y="639"/>
      <point x="20" y="461"/>
      <point x="20" y="151" type="curve" smooth="yes"/>
      <point x="20" y="-43"/>
      <point x="115" y="-145"/>
    </contour>
    <contour>
      <point x="341" y="158" type="curve" smooth="yes"/>
      <point x="305" y="158"/>
      <point x="286" y="177"/>
      <point x="286" y="212" type="curve" smooth="yes"/>
      <point x="286" y="270"/>
      <point x="338" y="308"/>
      <point x="475" y="329" type="curve"/>
      <point x="451" y="209" type="line"/>
      <point x="414" y="176"/>
      <point x="376" y="158"/>
    </contour>
  </outline>
</glyph>
<glyph name="A" format="1">
  <advance width="600"/>
  <unicode hex="0041"/>
  <outline>
    <contour>
      <point x="372" y="676" type="move" name="aboveUC"/>
    </contour>
    <contour>
      <point x="434" y="0" type="move" name="ogonekUC"/>
    </contour>
    <contour>
      <point x="250" y="-22" type="move" name="belowLC"/>
    </contour>
    <contour>
      <point x="-33" y="0" type="line"/>
      <point x="85" y="0" type="line"/>
      <point x="261" y="366" type="line" smooth="yes"/>
      <point x="294" y="435"/>
      <point x="323" y="501"/>
      <point x="355" y="569" type="curve"/>
      <point x="360" y="569" type="line"/>
      <point x="364" y="500"/>
      <point x="368" y="432"/>
      <point x="374" y="365" type="curve" smooth="yes"/>
      <point x="400" y="0" type="line"/>
      <point x="513" y="0" type="line"/>
      <point x="439" y="654" type="line"/>
      <point x="312" y="654" type="line"/>
    </contour>
    <contour>
      <point x="128" y="184" type="line"/>
      <point x="424" y="184" type="line"/>
      <point x="442" y="266" type="line"/>
      <point x="148" y="266" type="line"/>
    </contour>
  </outline>
</glyph>
<glyph name="B" format="1">
  <advance width="600"/>
  <unicode hex="0042"/>
  <outline>
    <contour>
      <point x="374" y="676" type="move" name="aboveUC"/>
    </contour>
    <contour>
      <point x="250" y="-22" type="move" name="belowLC"/>
    </contour>
    <contour>
      <point x="34" y="0" type="line"/>
      <point x="250" y="0" type="line" smooth="yes"/>
      <point x="404" y="0"/>
      <point x="527" y="62"/>
      <point x="527" y="212" type="curve" smooth="yes"/>
      <point x="527" y="282"/>
      <point x="481" y="323"/>
      <point x="411" y="340" type="curve"/>
      <point x="412" y="344" type="line"/>
      <point x="491" y="364"/>
      <point x="556" y="425"/>
      <point x="556" y="507" type="curve" smooth="yes"/>
      <point x="556" y="606"/>
      <point x="476" y="654"/>
      <point x="344" y="654" type="curve" smooth="yes"/>
      <point x="164" y="654" type="line"/>
    </contour>
    <contour>
      <point x="217" y="380" type="line"/>
      <point x="256" y="570" type="line"/>
      <point x="322" y="570" type="line" smooth="yes"/>
      <point x="410" y="570"/>
      <point x="446" y="541"/>
      <point x="446" y="490" type="curve" smooth="yes"/>
      <point x="446" y="424"/>
      <point x="397" y="380"/>
      <point x="290" y="380" type="curve" smooth="yes"/>
    </contour>
    <contour>
      <point x="158" y="84" type="line"/>
      <point x="202" y="304" type="line"/>
      <point x="296" y="304" type="line" smooth="yes"/>
      <point x="379" y="304"/>
      <point x="423" y="267"/>
      <point x="423" y="207" type="curve" smooth="yes"/>
      <point x="423" y="123"/>
      <point x="358" y="84"/>
      <point x="250" y="84" type="curve" smooth="yes"/>
    </contour>
  </outline>
</glyph>
<glyph name="C" format="1">
  <advance width="600"/>
  <unicode hex="0043"/>
  <outline>
    <contour>
      <point x="314" y="-12" type="curve" smooth="yes"/>
      <point x="398" y="-12"/>
      <point x="462" y="27"/>
      <point x="506" y="66" type="curve"/>
      <point x="460" y="135" type="line"/>
      <point x="422" y="103"/>
      <point x="380" y="81"/>
      <point x="335" y="81" type="curve" smooth="yes"/>
      <point x="228" y="81"/>
      <point x="184" y="155"/>
      <point x="184" y="265" type="curve" smooth="yes"/>
      <point x="184" y="417"/>
      <point x="277" y="573"/>
      <point x="410" y="573" type="curve" smooth="yes"/>
      <point x="453" y="573"/>
      <point x="484" y="550"/>
      <point x="509" y="509" type="curve"/>
      <point x="584" y="566" type="line"/>
      <point x="549" y="626"/>
      <point x="491" y="666"/>
      <point x="416" y="666" type="curve" smooth="yes"/>
      <point x="217" y="666"/>
      <point x="73" y="473"/>
      <point x="73" y="257" type="curve" smooth="yes"/>
      <point x="73" y="93"/>
      <point x="163" y="-12"/>
    </contour>
    <contour>
      <point x="412" y="674" type="move" name="aboveUC"/>
    </contour>
    <contour>
      <point x="295" y="0" type="move" name="baseLC"/>
    </contour>
    <contour>
      <point x="292" y="-20" type="move" name="belowLC"/>
    </contour>
  </outline>
</glyph>
<glyph name="D" format="1">
  <advance width="600"/>
  <unicode hex="0044"/>
  <outline>
    <contour>
      <point x="17" y="0" type="line"/>
      <point x="208" y="0" type="line" smooth="yes"/>
      <point x="421" y="0"/>
      <point x="561" y="150"/>
      <point x="561" y="398" type="curve" smooth="yes"/>
      <point x="561" y="566"/>
      <point x="462" y="654"/>
      <point x="286" y="654" type="curve" smooth="yes"/>
      <point x="148" y="654" type="line"/>
    </contour>
    <contour>
      <point x="142" y="87" type="line"/>
      <point x="238" y="567" type="line"/>
      <point x="283" y="567" type="line" smooth="yes"/>
      <point x="388" y="567"/>
      <point x="450" y="508"/>
      <point x="450" y="391" type="curve" smooth="yes"/>
      <point x="450" y="194"/>
      <point x="351" y="87"/>
      <point x="206" y="87" type="curve" smooth="yes"/>
    </contour>
    <contour>
      <point x="366" y="674" type="move" name="aboveUC"/>
    </contour>
    <contour>
      <point x="226" y="-20" type="move" name="belowLC"/>
    </contour>
  </outline>
</glyph>
<glyph name="E" format="1">
  <advance width="600"/>
  <unicode hex="0045"/>
  <outline>
    <contour>
      <point x="49" y="0" type="line"/>
      <point x="473" y="0" type="line"/>
      <point x="491" y="91" type="line"/>
      <point x="174" y="91" type="line"/>
      <point x="217" y="296" type="line"/>
      <point x="473" y="296" type="line"/>
      <point x="491" y="387" type="line"/>
      <point x="234" y="387" type="line"/>
      <point x="269" y="563" type="line"/>
      <point x="577" y="563" type="line"/>
      <point x="595" y="654" type="line"/>
      <point x="180" y="654" type="line"/>
    </contour>
    <contour>
      <point x="399" y="674" type="move" name="aboveUC"/>
    </contour>
    <contour>
      <point x="385" y="0" type="move" name="ogonekUC"/>
    </contour>
    <contour>
      <point x="282" y="0" type="move" name="baseLC"/>
    </contour>
    <contour>
      <point x="272" y="-20" type="move" name="belowLC"/>
    </contour>
  </outline>
</glyph>
<glyph name="F" format="1">
  <advance width="600"/>
  <unicode hex="0046"/>
  <outline>
    <contour>
      <point x="410" y="676" type="move" name="aboveUC"/>
    </contour>
    <contour>
      <point x="127" y="-22" type="move" name="belowLC"/>
    </contour>
    <contour>
      <point x="67" y="0" type="line"/>
      <point x="175" y="0" type="line"/>
      <point x="231" y="279" type="line"/>
      <point x="483" y="279" type="line"/>
      <point x="501" y="370" type="line"/>
      <point x="248" y="370" type="line"/>
      <point x="286" y="563" type="line"/>
      <point x="590" y="563" type="line"/>
      <point x="608" y="654" type="line"/>
      <point x="198" y="654" type="line"/>
    </contour>
  </outline>
</glyph>
<glyph name="G" format="1">
  <advance width="600"/>
  <unicode hex="0047"/>
  <outline>
    <contour>
      <point x="297" y="-12" type="curve" smooth="yes"/>
      <point x="375" y="-12"/>
      <point x="443" y="16"/>
      <point x="492" y="55" type="curve"/>
      <point x="550" y="353" type="line"/>
      <point x="334" y="353" type="line"/>
      <point x="317" y="265" type="line"/>
      <point x="438" y="265" type="line"/>
      <point x="406" y="111" type="line"/>
      <point x="384" y="93"/>
      <point x="351" y="80"/>
      <point x="314" y="80" type="curve" smooth="yes"/>
      <point x="206" y="80"/>
      <point x="164" y="157"/>
      <point x="164" y="265" type="curve" smooth="yes"/>
      <point x="164" y="417"/>
      <point x="255" y="573"/>
      <point x="394" y="573" type="curve" smooth="yes"/>
      <point x="441" y="573"/>
      <point x="474" y="549"/>
      <point x="498" y="509" type="curve"/>
      <point x="573" y="566" type="line"/>
      <point x="538" y="626"/>
      <point x="480" y="666"/>
      <point x="399" y="666" type="curve" smooth="yes"/>
      <point x="193" y="666"/>
      <point x="54" y="474"/>
      <point x="54" y="257" type="curve" smooth="yes"/>
      <point x="54" y="91"/>
      <point x="142" y="-12"/>
    </contour>
    <contour>
      <point x="393" y="674" type="move" name="aboveUC"/>
    </contour>
    <contour>
      <point x="296" y="-20" type="move" name="belowLC"/>
    </contour>
  </outline>
</glyph>
<glyph name="H" format="1">
  <advance width="600"/>
  <unicode hex="0048"/>
  <outline>
    <contour>
      <point x="373" y="676" type="move" name="aboveUC"/>
    </contour>
    <contour>
      <point x="234" y="-22" type="move" name="belowLC"/>
    </contour>
    <contour>
      <point x="11" y="0" type="line"/>
      <point x="119" y="0" type="line"/>
      <point x="177" y="295" type="line"/>
      <point x="416" y="295" type="line"/>
      <point x="356" y="0" type="line"/>
      <point x="464" y="0" type="line"/>
      <point x="595" y="654" type="line"/>
      <point x="487" y="654" type="line"/>
      <point x="434" y="389" type="line"/>
      <point x="196" y="389" type="line"/>
      <point x="250" y="654" type="line"/>
      <point x="142" y="654" type="line"/>
    </contour>
  </outline>
</glyph>
<glyph name="I" format="1">
  <advance width="600"/>
  <unicode hex="0049"/>
  <outline>
    <contour>
      <point x="373" y="676" type="move" name="aboveUC"/>
    </contour>
    <contour>
      <point x="219" y="0" type="move" name="ogonekUC"/>
    </contour>
    <contour>
      <point x="234" y="-22" type="move" name="belowLC"/>
    </contour>
    <contour>
      <point x="25" y="0" type="line"/>
      <point x="449" y="0" type="line"/>
      <point x="468" y="91" type="line"/>
      <point x="309" y="91" type="line"/>
      <point x="404" y="563" type="line"/>
      <point x="563" y="563" type="line"/>
      <point x="582" y="654" type="line"/>
      <point x="157" y="654" type="line"/>
      <point x="138" y="563" type="line"/>
      <point x="296" y="563" type="line"/>
      <point x="201" y="91" type="line"/>
      <point x="44" y="91" type="line"/>
    </contour>
  </outline>
</glyph>
<glyph name="K" format="1">
  <advance width="600"/>
  <unicode hex="004B"/>
  <outline>
    <contour>
      <point x="629" y="654" type="line"/>
      <point x="509" y="654" type="line"/>
      <point x="207" y="342" type="line"/>
      <point x="203" y="342" type="line"/>
      <point x="266" y="654" type="line"/>
      <point x="159" y="654" type="line"/>
      <point x="28" y="0" type="line"/>
      <point x="135" y="0" type="line"/>
      <point x="174" y="196" type="line"/>
    </contour>
    <contour>
      <point x="276" y="329" type="line"/>
      <point x="404" y="0" type="line"/>
      <point x="526" y="0" type="line"/>
      <point x="354" y="413" type="line"/>
    </contour>
    <contour>
      <point x="384" y="674" type="move" name="aboveUC"/>
    </contour>
    <contour>
      <point x="278" y="-20" type="move" name="belowLC"/>
    </contour>
  </outline>
</glyph>
<glyph name="M" format="1">
  <advance width="600"/>
  <unicode hex="004D"/>
  <outline>
    <contour>
      <point x="8" y="0" type="line"/>
      <point x="100" y="0" type="line"/>
      <point x="166" y="328" type="line" smooth="yes"/>
      <point x="176" y="380"/>
      <point x="188" y="478"/>
      <point x="196" y="548" type="curve"/>
      <point x="200" y="548" type="line"/>
      <point x="202" y="534"/>
      <point x="210" y="398"/>
      <point x="212" y="384" type="curve"/>
      <point x="240" y="177" type="line"/>
      <point x="305" y="177" type="line"/>
      <point x="422" y="394" type="line" smooth="yes"/>
      <point x="432" y="410"/>
      <point x="489" y="534"/>
      <point x="495" y="548" type="curve"/>
      <point x="499" y="548" type="line"/>
      <point x="482" y="488"/>
      <point x="449" y="372"/>
      <point x="437" y="314" type="curve"/>
      <point x="374" y="0" type="line"/>
      <point x="468" y="0" type="line"/>
      <point x="598" y="654" type="line"/>
      <point x="483" y="654" type="line"/>
      <point x="338" y="386" type="line"/>
      <point x="297" y="290" type="line"/>
      <point x="293" y="290" type="line"/>
      <point x="286" y="388" type="line"/>
      <point x="255" y="654" type="line"/>
      <point x="139" y="654" type="line"/>
    </contour>
    <contour>
      <point x="372" y="674" type="move" name="aboveUC"/>
    </contour>
    <contour>
      <point x="422" y="0" type="move" name="baseLC"/>
    </contour>
    <contour>
      <point x="234" y="-20" type="move" name="belowLC"/>
    </contour>
  </outline>
</glyph>
<glyph name="N" format="1">
  <advance width="600"/>
  <unicode hex="004E"/>
  <outline>
    <contour>
      <point x="18" y="0" type="line"/>
      <point x="121" y="0" type="line"/>
      <point x="178" y="296" type="line" smooth="yes"/>
      <point x="190" y="359"/>
      <point x="200" y="451"/>
      <point x="208" y="520" type="curve"/>
      <point x="212" y="520" type="line"/>
      <point x="243" y="381" type="line"/>
      <point x="352" y="0" type="line"/>
      <point x="458" y="0" type="line"/>
      <point x="589" y="654" type="line"/>
      <point x="487" y="654" type="line"/>
      <point x="427" y="352" type="line" smooth="yes"/>
      <point x="417" y="299"/>
      <point x="406" y="201"/>
      <point x="398" y="134" type="curve"/>
      <point x="394" y="134" type="line"/>
      <point x="363" y="273" type="line"/>
      <point x="258" y="654" type="line"/>
      <point x="149" y="654" type="line"/>
    </contour>
    <contour>
      <point x="368" y="674" type="move" name="aboveUC"/>
    </contour>
    <contour>
      <point x="408" y="0" type="move" name="baseLC"/>
    </contour>
    <contour>
      <point x="249" y="-20" type="move" name="belowLC"/>
    </contour>
  </outline>
</glyph>
<glyph name="O" format="1">
  <advance width="600"/>
  <unicode hex="004F"/>
  <outline>
    <contour>
      <point x="252" y="-12" type="curve" smooth="yes"/>
      <point x="446" y="-12"/>
      <point x="572" y="187"/>
      <point x="572" y="404" type="curve" smooth="yes"/>
      <point x="572" y="564"/>
      <point x="490" y="666"/>
      <point x="356" y="666" type="curve" smooth="yes"/>
      <point x="162" y="666"/>
      <point x="36" y="467"/>
      <point x="36" y="250" type="curve" smooth="yes"/>
      <point x="36" y="90"/>
      <point x="118" y="-12"/>
    </contour>
    <contour>
      <point x="263" y="81" type="curve" smooth="yes"/>
      <point x="184" y="81"/>
      <point x="146" y="140"/>
      <point x="146" y="242" type="curve" smooth="yes"/>
      <point x="146" y="410"/>
      <point x="224" y="573"/>
      <point x="346" y="573" type="curve" smooth="yes"/>
      <point x="425" y="573"/>
      <point x="462" y="514"/>
      <point x="462" y="412" type="curve" smooth="yes"/>
      <point x="462" y="244"/>
      <point x="385" y="81"/>
    </contour>
    <contour>
      <point x="372" y="674" type="move" name="aboveUC"/>
    </contour>
    <contour>
      <point x="366" y="644" type="move" name="hornLC"/>
    </contour>
    <contour>
      <point x="238" y="0" type="move" name="ogonekUC"/>
    </contour>
    <contour>
      <point x="238" y="0" type="move" name="baseLC"/>
    </contour>
    <contour>
      <point x="232" y="-20" type="move" name="belowLC"/>
    </contour>
  </outline>
</glyph>
<glyph name="Q" format="1">
  <advance width="600"/>
  <unicode hex="0051"/>
  <outline>
    <contour>
      <point x="252" y="-12" type="curve" smooth="yes"/>
      <point x="446" y="-12"/>
      <point x="572" y="187"/>
      <point x="572" y="404" type="curve" smooth="yes"/>
      <point x="572" y="564"/>
      <point x="490" y="666"/>
      <point x="356" y="666" type="curve" smooth="yes"/>
      <point x="162" y="666"/>
      <point x="36" y="467"/>
      <point x="36" y="250" type="curve" smooth="yes"/>
      <point x="36" y="90"/>
      <point x="118" y="-12"/>
    </contour>
    <contour>
      <point x="264" y="76" type="curve" smooth="yes"/>
      <point x="184" y="76"/>
      <point x="146" y="135"/>
      <point x="146" y="242" type="curve" smooth="yes"/>
      <point x="146" y="410"/>
      <point x="224" y="573"/>
      <point x="346" y="573" type="curve" smooth="yes"/>
      <point x="425" y="573"/>
      <point x="462" y="514"/>
      <point x="462" y="412" type="curve" smooth="yes"/>
      <point x="462" y="238"/>
      <point x="385" y="76"/>
    </contour>
    <contour>
      <point x="402" y="-173" type="curve" smooth="yes"/>
      <point x="449" y="-173"/>
      <point x="488" y="-164"/>
      <point x="511" y="-154" type="curve"/>
      <point x="494" y="-71" type="line"/>
      <point x="474" y="-78"/>
      <point x="449" y="-85"/>
      <point x="415" y="-85" type="curve" smooth="yes"/>
      <point x="351" y="-85"/>
      <point x="302" y="-50"/>
      <point x="290" y="19" type="curve"/>
      <point x="182" y="22" type="line"/>
      <point x="212" y="-112"/>
      <point x="295" y="-173"/>
    </contour>
    <contour>
      <point x="372" y="674" type="move" name="aboveUC"/>
    </contour>
  </outline>
</glyph>
<glyph name="S" format="1">
  <advance width="600"/>
  <unicode hex="0053"/>
  <outline>
    <contour>
      <point x="264" y="-12" type="curve" smooth="yes"/>
      <point x="392" y="-12"/>
      <point x="494" y="60"/>
      <point x="494" y="186" type="curve"/>
      <point x="494" y="269"/>
      <point x="448" y="315"/>
      <point x="384" y="354" type="curve" smooth="yes"/>
      <point x="310" y="401" type="line" smooth="yes"/>
      <point x="272" y="424"/>
      <point x="241" y="449"/>
      <point x="241" y="491" type="curve" smooth="yes"/>
      <point x="241" y="538"/>
      <point x="282" y="575"/>
      <point x="339" y="575" type="curve" smooth="yes"/>
      <point x="400" y="575"/>
      <point x="446" y="542"/>
      <point x="478" y="504" type="curve"/>
      <point x="547" y="563" type="line"/>
      <point x="506" y="621"/>
      <point x="431" y="666"/>
      <point x="342" y="666" type="curve" smooth="yes"/>
      <point x="221" y="666"/>
      <point x="130" y="590"/>
      <point x="130" y="483" type="curve" smooth="yes"/>
      <point x="130" y="402"/>
      <point x="180" y="350"/>
      <point x="238" y="316" type="curve" smooth="yes"/>
      <point x="306" y="275" type="line" smooth="yes"/>
      <point x="354" y="247"/>
      <point x="384" y="221"/>
      <point x="384" y="177" type="curve" smooth="yes"/>
      <point x="384" y="117"/>
      <point x="333" y="81"/>
      <point x="262" y="81" type="curve" smooth="yes"/>
      <point x="194" y="81"/>
      <point x="140" y="113"/>
      <point x="102" y="172" type="curve"/>
      <point x="31" y="111" type="line"/>
      <point x="76" y="38"/>
      <point x="153" y="-12"/>
    </contour>
    <contour>
      <point x="356" y="674" type="move" name="aboveUC"/>
    </contour>
    <contour>
      <point x="260" y="0" type="move" name="baseLC"/>
    </contour>
    <contour>
      <point x="260" y="-20" type="move" name="belowLC"/>
    </contour>
  </outline>
</glyph>
<glyph name="T" format="1">
	<unicode hex="0054"/>
	<advance width="600"/>
	<outline>
		<contour>
			<point x="184" y="0" type="line"/>
			<point x="292" y="0" type="line"/>
			<point x="403" y="562" type="line"/>
			<point x="611" y="562" type="line"/>
			<point x="629" y="654" type="line"/>
			<point x="106" y="654" type="line"/>
			<point x="88" y="562" type="line"/>
			<point x="295" y="562" type="line"/>
		</contour>
		<contour>
			<point name="aboveUC" x="372" y="674" type="move"/>
		</contour>
		<contour>
			<point name="baseLC" x="239" y="0" type="move"/>
		</contour>
		<contour>
			<point name="belowLC" x="235" y="-20" type="move"/>
		</contour>
	</outline>
</glyph>
<glyph name="U" format="1">
  <advance width="600"/>
  <unicode hex="0055"/>
  <outline>
    <contour>
      <point x="373" y="676" type="move" name="aboveUC"/>
    </contour>
    <contour>
      <point x="455" y="664" type="move" name="hornLC"/>
    </contour>
    <contour>
      <point x="239" y="0" type="move" name="ogonekUC"/>
    </contour>
    <contour>
      <point x="233" y="-22" type="move" name="belowLC"/>
    </contour>
    <contour>
      <point x="252" y="-12" type="curve" smooth="yes"/>
      <point x="384" y="-12"/>
      <point x="479" y="55"/>
      <point x="518" y="253" type="curve" smooth="yes"/>
      <point x="598" y="654" type="line"/>
      <point x="493" y="654" type="line"/>
      <point x="415" y="261" type="line" smooth="yes"/>
      <point x="388" y="124"/>
      <point x="334" y="81"/>
      <point x="264" y="81" type="curve" smooth="yes"/>
      <point x="196" y="81"/>
      <point x="163" y="127"/>
      <point x="163" y="206" type="curve" smooth="yes"/>
      <point x="163" y="228"/>
      <point x="165" y="252"/>
      <point x="172" y="281" type="curve" smooth="yes"/>
      <point x="246" y="654" type="line"/>
      <point x="138" y="654" type="line"/>
      <point x="65" y="290" type="line" smooth="yes"/>
      <point x="58" y="254"/>
      <point x="56" y="226"/>
      <point x="56" y="198" type="curve" smooth="yes"/>
      <point x="56" y="70"/>
      <point x="122" y="-12"/>
    </contour>
  </outline>
</glyph>
<glyph name="V" format="1">
  <advance width="600"/>
  <unicode hex="0056"/>
  <outline>
    <contour>
      <point x="366" y="676" type="move" name="aboveUC"/>
    </contour>
    <contour>
      <point x="232" y="-22" type="move" name="belowLC"/>
    </contour>
    <contour>
      <point x="166" y="0" type="line"/>
      <point x="296" y="0" type="line"/>
      <point x="641" y="654" type="line"/>
      <point x="523" y="654" type="line"/>
      <point x="357" y="312" type="line" smooth="yes"/>
      <point x="329" y="255"/>
      <point x="288" y="166"/>
      <point x="257" y="99" type="curve"/>
      <point x="253" y="99" type="line"/>
      <point x="250" y="170"/>
      <point x="245" y="242"/>
      <point x="241" y="312" type="curve" smooth="yes"/>
      <point x="217" y="654" type="line"/>
      <point x="105" y="654" type="line"/>
    </contour>
  </outline>
</glyph>
<glyph name="W" format="1">
  <advance width="600"/>
  <unicode hex="0057"/>
  <outline>
    <contour>
      <point x="39" y="0" type="line"/>
      <point x="164" y="0" type="line"/>
      <point x="264" y="242" type="line" smooth="yes"/>
      <point x="280" y="283"/>
      <point x="298" y="330"/>
      <point x="308" y="365" type="curve"/>
      <point x="312" y="365" type="line"/>
      <point x="312" y="332"/>
      <point x="312" y="283"/>
      <point x="314" y="242" type="curve" smooth="yes"/>
      <point x="326" y="0" type="line"/>
      <point x="448" y="0" type="line"/>
      <point x="649" y="655" type="line"/>
      <point x="547" y="655" type="line"/>
      <point x="434" y="248" type="line" smooth="yes"/>
      <point x="426" y="216"/>
      <point x="404" y="130"/>
      <point x="397" y="99" type="curve"/>
      <point x="392" y="99" type="line"/>
      <point x="391" y="149"/>
      <point x="388" y="233"/>
      <point x="384" y="273" type="curve" smooth="yes"/>
      <point x="367" y="478" type="line"/>
      <point x="296" y="478" type="line"/>
      <point x="191" y="246" type="line" smooth="yes"/>
      <point x="179" y="216"/>
      <point x="145" y="130"/>
      <point x="133" y="97" type="curve"/>
      <point x="129" y="97" type="line"/>
      <point x="134" y="127"/>
      <point x="143" y="191"/>
      <point x="148" y="245" type="curve" smooth="yes"/>
      <point x="189" y="655" type="line"/>
      <point x="86" y="655" type="line"/>
    </contour>
    <contour>
      <point x="366" y="674" type="move" name="aboveUC"/>
    </contour>
    <contour>
      <point x="232" y="-20" type="move" name="belowLC"/>
    </contour>
  </outline>
</glyph>
<glyph name="X" format="1">
  <advance width="600"/>
  <unicode hex="0058"/>
  <outline>
    <contour>
      <point x="-17" y="0" type="line"/>
      <point x="101" y="0" type="line"/>
      <point x="218" y="160" type="line" smooth="yes"/>
      <point x="237" y="188"/>
      <point x="262" y="227"/>
      <point x="285" y="263" type="curve"/>
      <point x="289" y="263" type="line"/>
      <point x="299" y="232"/>
      <point x="315" y="185"/>
      <point x="323" y="161" type="curve" smooth="yes"/>
      <point x="384" y="0" type="line"/>
      <point x="501" y="0" type="line"/>
      <point x="369" y="327" type="line"/>
      <point x="616" y="655" type="line"/>
      <point x="498" y="655" type="line"/>
      <point x="388" y="503" type="line" smooth="yes"/>
      <point x="373" y="482"/>
      <point x="345" y="434"/>
      <point x="324" y="401" type="curve"/>
      <point x="320" y="401" type="line"/>
      <point x="311" y="433"/>
      <point x="298" y="476"/>
      <point x="288" y="504" type="curve" smooth="yes"/>
      <point x="233" y="655" type="line"/>
      <point x="115" y="655" type="line"/>
      <point x="239" y="344" type="line"/>
    </contour>
    <contour>
      <point x="366" y="674" type="move" name="aboveUC"/>
    </contour>
    <contour>
      <point x="447" y="0" type="move" name="baseLC"/>
    </contour>
    <contour>
      <point x="244" y="-20" type="move" name="belowLC"/>
    </contour>
  </outline>
</glyph>
<glyph name="Z" format="1">
  <advance width="600"/>
  <unicode hex="005A"/>
  <outline>
    <contour>
      <point x="149" y="61" type="line"/>
      <point x="579" y="590" type="line"/>
      <point x="592" y="655" type="line"/>
      <point x="138" y="655" type="line"/>
      <point x="119" y="565" type="line"/>
      <point x="502" y="565" type="line"/>
      <point x="462" y="603" type="line"/>
      <point x="25" y="64" type="line"/>
      <point x="12" y="0" type="line"/>
      <point x="487" y="0" type="line"/>
      <point x="505" y="90" type="line"/>
      <point x="120" y="90" type="line"/>
    </contour>
    <contour>
      <point x="360" y="674" type="move" name="aboveUC"/>
    </contour>
    <contour>
      <point x="264" y="-20" type="move" name="belowLC"/>
    </contour>
  </outline>
</glyph>
<glyph name="bracketleft" format="1">
	<unicode hex="005B"/>
	<advance width="600"/>
	<outline>
		<contour>
			<point x="118" y="-152" type="line"/>
			<point x="400" y="-152" type="line"/>
			<point x="411" y="-93" type="line"/>
			<point x="212" y="-93" type="line"/>
			<point x="360" y="649" type="line"/>
			<point x="561" y="649" type="line"/>
			<point x="572" y="708" type="line"/>
			<point x="291" y="708" type="line"/>
		</contour>
	</outline>
</glyph>
<glyph name="backslash" format="1">
  <advance width="600"/>
  <unicode hex="005C"/>
  <outline>
    <contour>
      <point x="333" y="-160" type="line"/>
      <point x="419" y="-160" type="line"/>
      <point x="265" y="710" type="line"/>
      <point x="179" y="710" type="line"/>
    </contour>
  </outline>
</glyph>
<glyph name="bracketright" format="1">
  <advance width="600"/>
  <unicode hex="005D"/>
  <outline>
    <contour>
      <point x="15" y="-152" type="line"/>
      <point x="296" y="-152" type="line"/>
      <point x="469" y="708" type="line"/>
      <point x="187" y="708" type="line"/>
      <point x="176" y="649" type="line"/>
      <point x="376" y="649" type="line"/>
      <point x="227" y="-93" type="line"/>
      <point x="26" y="-93" type="line"/>
    </contour>
  </outline>
</glyph>
<glyph name="asciicircum" format="1">
  <advance width="600"/>
  <unicode hex="005E"/>
  <outline>
    <contour>
      <point x="43" y="280" type="line"/>
      <point x="132" y="280" type="line"/>
      <point x="191" y="439" type="line"/>
      <point x="238" y="573" type="line"/>
      <point x="242" y="573" type="line"/>
      <point x="290" y="439" type="line"/>
      <point x="349" y="280" type="line"/>
      <point x="439" y="280" type="line"/>
      <point x="285" y="670" type="line"/>
      <point x="196" y="670" type="line"/>
    </contour>
  </outline>
</glyph>
<glyph name="a" format="1">
  <advance width="600"/>
  <unicode hex="0061"/>
  <outline>
    <contour>
      <point x="208" y="-12" type="curve" smooth="yes"/>
      <point x="267" y="-12"/>
      <point x="329" y="20"/>
      <point x="378" y="71" type="curve"/>
      <point x="382" y="71" type="line"/>
      <point x="377" y="0" type="line"/>
      <point x="465" y="0" type="line"/>
      <point x="563" y="491" type="line"/>
      <point x="477" y="491" type="line"/>
      <point x="456" y="434" type="line"/>
      <point x="452" y="434" type="line"/>
      <point x="427" y="476"/>
      <point x="377" y="503"/>
      <point x="310" y="503" type="curve" smooth="yes"/>
      <point x="166" y="503"/>
      <point x="43" y="355"/>
      <point x="43" y="177" type="curve" smooth="yes"/>
      <point x="43" y="55"/>
      <point x="108" y="-12"/>
    </contour>
    <contour>
      <point x="245" y="76" type="curve" smooth="yes"/>
      <point x="190" y="76"/>
      <point x="154" y="112"/>
      <point x="154" y="192" type="curve" smooth="yes"/>
      <point x="154" y="313"/>
      <point x="232" y="415"/>
      <point x="327" y="415" type="curve" smooth="yes"/>
      <point x="364" y="415"/>
      <point x="405" y="397"/>
      <point x="431" y="355" type="curve"/>
      <point x="390" y="162" type="line"/>
      <point x="344" y="104"/>
      <point x="290" y="76"/>
    </contour>
    <contour>
      <point x="392" y="0" type="move" name="ogonekLC"/>
    </contour>
    <contour>
      <point x="351" y="512" type="move" name="aboveLC"/>
    </contour>
    <contour>
      <point x="420" y="0" type="move" name="baseLC"/>
    </contour>
    <contour>
      <point x="249" y="-20" type="move" name="belowLC"/>
    </contour>
  </outline>
</glyph>
<glyph name="c" format="1">
  <advance width="600"/>
  <unicode hex="0063"/>
  <outline>
    <contour>
      <point x="294" y="-12" type="curve" smooth="yes"/>
      <point x="370" y="-12"/>
      <point x="439" y="18"/>
      <point x="489" y="65" type="curve"/>
      <point x="449" y="138" type="line"/>
      <point x="408" y="102"/>
      <point x="363" y="76"/>
      <point x="310" y="76" type="curve" smooth="yes"/>
      <point x="232" y="76"/>
      <point x="172" y="121"/>
      <point x="172" y="214" type="curve" smooth="yes"/>
      <point x="172" y="327"/>
      <point x="263" y="415"/>
      <point x="352" y="415" type="curve" smooth="yes"/>
      <point x="406" y="415"/>
      <point x="448" y="395"/>
      <point x="482" y="354" type="curve"/>
      <point x="548" y="414" type="line"/>
      <point x="513" y="460"/>
      <point x="448" y="503"/>
      <point x="362" y="503" type="curve" smooth="yes"/>
      <point x="205" y="503"/>
      <point x="64" y="383"/>
      <point x="64" y="204" type="curve" smooth="yes"/>
      <point x="64" y="60"/>
      <point x="166" y="-12"/>
    </contour>
    <contour>
      <point x="370" y="512" type="move" name="aboveLC"/>
    </contour>
    <contour>
      <point x="276" y="0" type="move" name="baseLC"/>
    </contour>
    <contour>
      <point x="274" y="-20" type="move" name="belowLC"/>
    </contour>
  </outline>
</glyph>
<glyph name="d" format="1">
  <advance width="600"/>
  <unicode hex="0064"/>
  <outline>
    <contour>
      <point x="545" y="722" type="move" name="aboveUC"/>
    </contour>
    <contour>
      <point x="250" y="-22" type="move" name="belowLC"/>
    </contour>
    <contour>
      <point x="207" y="-12" type="curve" smooth="yes"/>
      <point x="267" y="-12"/>
      <point x="329" y="20"/>
      <point x="378" y="71" type="curve"/>
      <point x="382" y="71" type="line"/>
      <point x="377" y="0" type="line"/>
      <point x="465" y="0" type="line"/>
      <point x="607" y="707" type="line"/>
      <point x="500" y="707" type="line"/>
      <point x="466" y="533" type="line"/>
      <point x="452" y="438" type="line"/>
      <point x="449" y="438" type="line"/>
      <point x="422" y="478"/>
      <point x="377" y="503"/>
      <point x="310" y="503" type="curve" smooth="yes"/>
      <point x="166" y="503"/>
      <point x="43" y="355"/>
      <point x="43" y="177" type="curve" smooth="yes"/>
      <point x="43" y="55"/>
      <point x="108" y="-12"/>
    </contour>
    <contour>
      <point x="245" y="76" type="curve" smooth="yes"/>
      <point x="190" y="76"/>
      <point x="154" y="113"/>
      <point x="154" y="192" type="curve" smooth="yes"/>
      <point x="154" y="313"/>
      <point x="232" y="415"/>
      <point x="327" y="415" type="curve" smooth="yes"/>
      <point x="364" y="415"/>
      <point x="404" y="398"/>
      <point x="430" y="356" type="curve"/>
      <point x="390" y="162" type="line"/>
      <point x="344" y="105"/>
      <point x="290" y="76"/>
    </contour>
  </outline>
</glyph>
<glyph name="e" format="1">
  <advance width="600"/>
  <unicode hex="0065"/>
  <outline>
    <contour>
      <point x="268" y="-12" type="curve" smooth="yes"/>
      <point x="356" y="-12"/>
      <point x="433" y="17"/>
      <point x="487" y="57" type="curve"/>
      <point x="449" y="129" type="line"/>
      <point x="404" y="96"/>
      <point x="352" y="72"/>
      <point x="292" y="72" type="curve" smooth="yes"/>
      <point x="216" y="72"/>
      <point x="162" y="114"/>
      <point x="162" y="208" type="curve" smooth="yes"/>
      <point x="162" y="342"/>
      <point x="254" y="420"/>
      <point x="333" y="420" type="curve" smooth="yes"/>
      <point x="394" y="420"/>
      <point x="432" y="381"/>
      <point x="432" y="315" type="curve" smooth="yes"/>
      <point x="432" y="301"/>
      <point x="429" y="286"/>
      <point x="426" y="273" type="curve"/>
      <point x="461" y="290" type="line"/>
      <point x="148" y="290" type="line"/>
      <point x="135" y="219" type="line"/>
      <point x="516" y="219" type="line"/>
      <point x="521" y="234"/>
      <point x="530" y="274"/>
      <point x="530" y="312" type="curve" smooth="yes"/>
      <point x="530" y="424"/>
      <point x="461" y="503"/>
      <point x="337" y="503" type="curve" smooth="yes"/>
      <point x="188" y="503"/>
      <point x="54" y="380"/>
      <point x="54" y="203" type="curve" smooth="yes"/>
      <point x="54" y="60"/>
      <point x="142" y="-12"/>
    </contour>
    <contour>
      <point x="346" y="0" type="move" name="ogonekLC"/>
    </contour>
    <contour>
      <point x="344" y="512" type="move" name="aboveLC"/>
    </contour>
    <contour>
      <point x="264" y="0" type="move" name="baseLC"/>
    </contour>
    <contour>
      <point x="260" y="-20" type="move" name="belowLC"/>
    </contour>
  </outline>
</glyph>
<glyph name="f" format="1">
  <advance width="600"/>
  <unicode hex="0066"/>
  <outline>
    <contour>
      <point x="156" y="0" type="line"/>
      <point x="264" y="0" type="line"/>
      <point x="368" y="526" type="line" smooth="yes"/>
      <point x="384" y="603"/>
      <point x="428" y="632"/>
      <point x="489" y="632" type="curve" smooth="yes"/>
      <point x="529" y="632"/>
      <point x="557" y="621"/>
      <point x="586" y="600" type="curve"/>
      <point x="635" y="668" type="line"/>
      <point x="602" y="694"/>
      <point x="552" y="718"/>
      <point x="485" y="718" type="curve" smooth="yes"/>
      <point x="366" y="718"/>
      <point x="288" y="658"/>
      <point x="262" y="528" type="curve" smooth="yes"/>
    </contour>
    <contour>
      <point x="101" y="406" type="line"/>
      <point x="533" y="406" type="line"/>
      <point x="550" y="491" type="line"/>
      <point x="256" y="491" type="line"/>
      <point x="117" y="486" type="line"/>
    </contour>
    <contour>
      <point x="472" y="734" type="move" name="aboveUC"/>
    </contour>
    <contour>
      <point x="212" y="0" type="move" name="baseLC"/>
    </contour>
    <contour>
      <point x="212" y="-20" type="move" name="belowLC"/>
    </contour>
  </outline>
</glyph>
<glyph name="g" format="1">
  <advance width="600"/>
  <unicode hex="0067"/>
  <outline>
    <contour>
      <point x="204" y="-206" type="curve" smooth="yes"/>
      <point x="327" y="-206"/>
      <point x="434" y="-154"/>
      <point x="463" y="-8" type="curve" smooth="yes"/>
      <point x="563" y="491" type="line"/>
      <point x="478" y="491" type="line"/>
      <point x="456" y="434" type="line"/>
      <point x="452" y="434" type="line"/>
      <point x="427" y="476"/>
      <point x="377" y="503"/>
      <point x="310" y="503" type="curve" smooth="yes"/>
      <point x="170" y="503"/>
      <point x="48" y="368"/>
      <point x="48" y="193" type="curve" smooth="yes"/>
      <point x="48" y="79"/>
      <point x="113" y="10"/>
      <point x="217" y="10" type="curve" smooth="yes"/>
      <point x="275" y="10"/>
      <point x="336" y="39"/>
      <point x="379" y="80" type="curve"/>
      <point x="383" y="80" type="line"/>
      <point x="362" y="-8" type="line" smooth="yes"/>
      <point x="340" y="-93"/>
      <point x="276" y="-120"/>
      <point x="203" y="-120" type="curve" smooth="yes"/>
      <point x="151" y="-120"/>
      <point x="95" y="-101"/>
      <point x="57" y="-68" type="curve"/>
      <point x="9" y="-144" type="line"/>
      <point x="56" y="-180"/>
      <point x="119" y="-206"/>
    </contour>
    <contour>
      <point x="252" y="98" type="curve" smooth="yes"/>
      <point x="193" y="98"/>
      <point x="159" y="133"/>
      <point x="159" y="210" type="curve" smooth="yes"/>
      <point x="159" y="326"/>
      <point x="240" y="415"/>
      <point x="325" y="415" type="curve" smooth="yes"/>
      <point x="366" y="415"/>
      <point x="402" y="396"/>
      <point x="430" y="354" type="curve"/>
      <point x="391" y="171" type="line"/>
      <point x="348" y="124"/>
      <point x="298" y="98"/>
    </contour>
    <contour>
      <point x="351" y="512" type="move" name="aboveLC"/>
    </contour>
    <contour>
      <point x="218" y="-212" type="move" name="belowLC"/>
    </contour>
  </outline>
</glyph>
<glyph name="h" format="1">
  <advance width="600"/>
  <unicode hex="0068"/>
  <outline>
    <contour>
      <point x="222" y="728" type="move" name="aboveUC"/>
    </contour>
    <contour>
      <point x="253" y="-22" type="move" name="belowLC"/>
    </contour>
    <contour>
      <point x="26" y="0" type="line"/>
      <point x="133" y="0" type="line"/>
      <point x="194" y="308" type="line"/>
      <point x="250" y="374"/>
      <point x="310" y="411"/>
      <point x="363" y="411" type="curve" smooth="yes"/>
      <point x="404" y="411"/>
      <point x="427" y="390"/>
      <point x="427" y="349" type="curve" smooth="yes"/>
      <point x="427" y="331"/>
      <point x="424" y="312"/>
      <point x="419" y="289" type="curve" smooth="yes"/>
      <point x="361" y="0" type="line"/>
      <point x="468" y="0" type="line"/>
      <point x="528" y="302" type="line" smooth="yes"/>
      <point x="534" y="328"/>
      <point x="537" y="353"/>
      <point x="537" y="379" type="curve" smooth="yes"/>
      <point x="537" y="457"/>
      <point x="495" y="503"/>
      <point x="410" y="503" type="curve" smooth="yes"/>
      <point x="334" y="503"/>
      <point x="266" y="457"/>
      <point x="211" y="402" type="curve"/>
      <point x="207" y="402" type="line"/>
      <point x="227" y="473" type="line"/>
      <point x="274" y="706" type="line"/>
      <point x="167" y="706" type="line"/>
    </contour>
  </outline>
</glyph>
<glyph name="i" format="1">
  <advance width="600"/>
  <unicode hex="0069"/>
  <outline>
    <contour>
      <point x="354" y="0" type="move" name="ogonekLC"/>
    </contour>
    <contour>
      <point x="346" y="731" type="move" name="aboveLC"/>
    </contour>
    <contour>
      <point x="322" y="-22" type="move" name="belowLC"/>
    </contour>
    <component base="dotaccentcmb" xOffset="-19"/>
    <component base="dotlessi"/>
  </outline>
</glyph>
<glyph name="j" format="1">
  <advance width="600"/>
  <unicode hex="006A"/>
  <outline>
    <contour>
      <point x="397" y="731" type="move" name="aboveLC"/>
    </contour>
    <contour>
      <point x="171" y="-211" type="move" name="belowLC"/>
    </contour>
    <component base="dotlessj"/>
    <component base="dotaccentcmb" xOffset="57"/>
  </outline>
</glyph>
<glyph name="k" format="1">
  <advance width="600"/>
  <unicode hex="006B"/>
  <outline>
    <contour>
      <point x="35" y="0" type="line"/>
      <point x="142" y="0" type="line"/>
      <point x="166" y="123" type="line"/>
      <point x="336" y="261" type="line"/>
      <point x="597" y="491" type="line"/>
      <point x="471" y="491" type="line"/>
      <point x="198" y="260" type="line"/>
      <point x="194" y="260" type="line"/>
      <point x="284" y="706" type="line"/>
      <point x="176" y="706" type="line"/>
    </contour>
    <contour>
      <point x="290" y="243" type="line"/>
      <point x="408" y="0" type="line"/>
      <point x="516" y="0" type="line"/>
      <point x="359" y="315" type="line"/>
    </contour>
    <contour>
      <point x="229" y="728" type="move" name="aboveUC"/>
    </contour>
    <contour>
      <point x="276" y="-20" type="move" name="belowLC"/>
    </contour>
  </outline>
</glyph>
<glyph name="l" format="1">
  <advance width="600"/>
  <unicode hex="006C"/>
  <outline>
    <contour>
      <point x="325" y="-12" type="curve" smooth="yes"/>
      <point x="377" y="-12"/>
      <point x="422" y="-2"/>
      <point x="470" y="20" type="curve"/>
      <point x="446" y="100" type="line"/>
      <point x="412" y="84"/>
      <point x="388" y="76"/>
      <point x="357" y="76" type="curve" smooth="yes"/>
      <point x="318" y="76"/>
      <point x="291" y="95"/>
      <point x="291" y="138" type="curve" smooth="yes"/>
      <point x="291" y="154"/>
      <point x="293" y="167"/>
      <point x="296" y="179" type="curve" smooth="yes"/>
      <point x="409" y="706" type="line"/>
      <point x="152" y="706" type="line"/>
      <point x="134" y="622" type="line"/>
      <point x="286" y="622" type="line"/>
      <point x="192" y="189" type="line" smooth="yes"/>
      <point x="186" y="167"/>
      <point x="184" y="148"/>
      <point x="184" y="131" type="curve" smooth="yes"/>
      <point x="184" y="39"/>
      <point x="243" y="-12"/>
    </contour>
    <contour>
      <point x="354" y="734" type="move" name="aboveUC"/>
    </contour>
    <contour>
      <point x="285" y="376" type="move" name="center"/>
    </contour>
    <contour>
      <point x="323" y="0" type="move" name="baseLC"/>
    </contour>
    <contour>
      <point x="318" y="-20" type="move" name="belowLC"/>
    </contour>
  </outline>
</glyph>
<glyph name="m" format="1">
  <advance width="600"/>
  <unicode hex="006D"/>
  <outline>
    <contour>
      <point x="350" y="514" type="move" name="aboveLC"/>
    </contour>
    <contour>
      <point x="247" y="-22" type="move" name="belowLC"/>
    </contour>
    <contour>
      <point x="-10" y="0" type="line"/>
      <point x="90" y="0" type="line"/>
      <point x="157" y="345" type="line"/>
      <point x="187" y="391"/>
      <point x="214" y="411"/>
      <point x="244" y="411" type="curve" smooth="yes"/>
      <point x="264" y="411"/>
      <point x="276" y="402"/>
      <point x="276" y="376" type="curve" smooth="yes"/>
      <point x="276" y="368"/>
      <point x="275" y="359"/>
      <point x="272" y="345" type="curve" smooth="yes"/>
      <point x="201" y="0" type="line"/>
      <point x="287" y="0" type="line"/>
      <point x="357" y="346" type="line"/>
      <point x="386" y="390"/>
      <point x="412" y="411"/>
      <point x="442" y="411" type="curve" smooth="yes"/>
      <point x="462" y="411"/>
      <point x="472" y="402"/>
      <point x="472" y="376" type="curve" smooth="yes"/>
      <point x="472" y="368"/>
      <point x="472" y="359"/>
      <point x="469" y="345" type="curve" smooth="yes"/>
      <point x="399" y="0" type="line"/>
      <point x="498" y="0" type="line"/>
      <point x="571" y="363" type="line" smooth="yes"/>
      <point x="575" y="385"/>
      <point x="577" y="399"/>
      <point x="577" y="416" type="curve" smooth="yes"/>
      <point x="577" y="474"/>
      <point x="548" y="503"/>
      <point x="501" y="503" type="curve" smooth="yes"/>
      <point x="449" y="503"/>
      <point x="400" y="476"/>
      <point x="356" y="413" type="curve"/>
      <point x="368" y="422" type="line"/>
      <point x="365" y="479"/>
      <point x="341" y="503"/>
      <point x="297" y="503" type="curve" smooth="yes"/>
      <point x="243" y="503"/>
      <point x="199" y="471"/>
      <point x="164" y="426" type="curve"/>
      <point x="161" y="426" type="line"/>
      <point x="165" y="491" type="line"/>
      <point x="87" y="491" type="line"/>
    </contour>
  </outline>
</glyph>
<glyph name="n" format="1">
  <advance width="600"/>
  <unicode hex="006E"/>
  <outline>
    <contour>
      <point x="26" y="0" type="line"/>
      <point x="133" y="0" type="line"/>
      <point x="194" y="308" type="line"/>
      <point x="250" y="374"/>
      <point x="310" y="411"/>
      <point x="363" y="411" type="curve" smooth="yes"/>
      <point x="404" y="411"/>
      <point x="427" y="390"/>
      <point x="427" y="349" type="curve" smooth="yes"/>
      <point x="427" y="331"/>
      <point x="424" y="312"/>
      <point x="419" y="289" type="curve" smooth="yes"/>
      <point x="361" y="0" type="line"/>
      <point x="468" y="0" type="line"/>
      <point x="528" y="302" type="line" smooth="yes"/>
      <point x="534" y="328"/>
      <point x="537" y="353"/>
      <point x="537" y="379" type="curve" smooth="yes"/>
      <point x="537" y="457"/>
      <point x="495" y="503"/>
      <point x="410" y="503" type="curve" smooth="yes"/>
      <point x="332" y="503"/>
      <point x="259" y="452"/>
      <point x="205" y="399" type="curve"/>
      <point x="201" y="399" type="line"/>
      <point x="210" y="491" type="line"/>
      <point x="123" y="491" type="line"/>
    </contour>
    <contour>
      <point x="352" y="512" type="move" name="aboveLC"/>
    </contour>
    <contour>
      <point x="414" y="0" type="move" name="baseLC"/>
    </contour>
    <contour>
      <point x="253" y="-20" type="move" name="belowLC"/>
    </contour>
  </outline>
</glyph>
<glyph name="o" format="1">
  <advance width="600"/>
  <unicode hex="006F"/>
  <outline>
    <contour>
      <point x="252" y="-12" type="curve" smooth="yes"/>
      <point x="401" y="-12"/>
      <point x="536" y="112"/>
      <point x="536" y="286" type="curve" smooth="yes"/>
      <point x="536" y="416"/>
      <point x="456" y="503"/>
      <point x="324" y="503" type="curve" smooth="yes"/>
      <point x="175" y="503"/>
      <point x="40" y="380"/>
      <point x="40" y="205" type="curve" smooth="yes"/>
      <point x="40" y="75"/>
      <point x="120" y="-12"/>
    </contour>
    <contour>
      <point x="260" y="76" type="curve" smooth="yes"/>
      <point x="191" y="76"/>
      <point x="149" y="126"/>
      <point x="149" y="210" type="curve" smooth="yes"/>
      <point x="149" y="326"/>
      <point x="229" y="415"/>
      <point x="316" y="415" type="curve" smooth="yes"/>
      <point x="386" y="415"/>
      <point x="428" y="365"/>
      <point x="428" y="282" type="curve" smooth="yes"/>
      <point x="428" y="165"/>
      <point x="347" y="76"/>
    </contour>
    <contour>
      <point x="352" y="491" type="move" name="hornLC"/>
    </contour>
    <contour>
      <point x="339" y="512" type="move" name="aboveLC"/>
    </contour>
    <contour>
      <point x="239" y="0" type="move" name="ogonekLC"/>
    </contour>
    <contour>
      <point x="239" y="0" type="move" name="baseLC"/>
    </contour>
    <contour>
      <point x="234" y="-20" type="move" name="belowLC"/>
    </contour>
  </outline>
</glyph>
<glyph name="q" format="1">
  <advance width="600"/>
  <unicode hex="0071"/>
  <outline>
    <contour>
      <point x="320" y="-194" type="line"/>
      <point x="426" y="-194" type="line"/>
      <point x="563" y="491" type="line"/>
      <point x="478" y="491" type="line"/>
      <point x="456" y="434" type="line"/>
      <point x="452" y="434" type="line"/>
      <point x="427" y="476"/>
      <point x="377" y="503"/>
      <point x="310" y="503" type="curve" smooth="yes"/>
      <point x="166" y="503"/>
      <point x="43" y="355"/>
      <point x="43" y="177" type="curve" smooth="yes"/>
      <point x="43" y="55"/>
      <point x="108" y="-12"/>
      <point x="207" y="-12" type="curve" smooth="yes"/>
      <point x="266" y="-12"/>
      <point x="329" y="20"/>
      <point x="378" y="71" type="curve"/>
      <point x="382" y="71" type="line"/>
      <point x="369" y="40"/>
      <point x="353" y="-32"/>
      <point x="350" y="-46" type="curve" smooth="yes"/>
    </contour>
    <contour>
      <point x="245" y="76" type="curve" smooth="yes"/>
      <point x="190" y="76"/>
      <point x="154" y="113"/>
      <point x="154" y="192" type="curve" smooth="yes"/>
      <point x="154" y="313"/>
      <point x="232" y="415"/>
      <point x="327" y="415" type="curve" smooth="yes"/>
      <point x="364" y="415"/>
      <point x="404" y="397"/>
      <point x="430" y="355" type="curve"/>
      <point x="390" y="162" type="line"/>
      <point x="344" y="104"/>
      <point x="290" y="76"/>
    </contour>
    <contour>
      <point x="353" y="512" type="move" name="aboveLC"/>
    </contour>
    <contour>
      <point x="368" y="-212" type="move" name="belowLC"/>
    </contour>
  </outline>
</glyph>
<glyph name="r" format="1">
  <advance width="600"/>
  <unicode hex="0072"/>
  <outline>
    <contour>
      <point x="85" y="0" type="line"/>
      <point x="192" y="0" type="line"/>
      <point x="240" y="236" type="line"/>
      <point x="302" y="339"/>
      <point x="376" y="407"/>
      <point x="447" y="407" type="curve" smooth="yes"/>
      <point x="478" y="407"/>
      <point x="502" y="401"/>
      <point x="525" y="388" type="curve"/>
      <point x="565" y="480" type="line"/>
      <point x="544" y="494"/>
      <point x="510" y="503"/>
      <point x="467" y="503" type="curve" smooth="yes"/>
      <point x="387" y="503"/>
      <point x="310" y="441"/>
      <point x="256" y="356" type="curve"/>
      <point x="252" y="356" type="line"/>
      <point x="270" y="491" type="line"/>
      <point x="182" y="492" type="line"/>
    </contour>
    <contour>
      <point x="378" y="512" type="move" name="aboveLC"/>
    </contour>
    <contour>
      <point x="142" y="0" type="move" name="baseLC"/>
    </contour>
    <contour>
      <point x="142" y="-20" type="move" name="belowLC"/>
    </contour>
  </outline>
</glyph>
<glyph name="s" format="1">
  <advance width="600"/>
  <unicode hex="0073"/>
  <outline>
    <contour>
      <point x="268" y="-12" type="curve" smooth="yes"/>
      <point x="388" y="-12"/>
      <point x="484" y="34"/>
      <point x="484" y="142" type="curve" smooth="yes"/>
      <point x="484" y="223"/>
      <point x="422" y="258"/>
      <point x="332" y="288" type="curve" smooth="yes"/>
      <point x="255" y="315"/>
      <point x="220" y="331"/>
      <point x="220" y="367" type="curve" smooth="yes"/>
      <point x="220" y="402"/>
      <point x="252" y="422"/>
      <point x="304" y="422" type="curve" smooth="yes"/>
      <point x="368" y="422"/>
      <point x="422" y="393"/>
      <point x="462" y="359" type="curve"/>
      <point x="522" y="423" type="line"/>
      <point x="478" y="466"/>
      <point x="410" y="503"/>
      <point x="315" y="503" type="curve" smooth="yes"/>
      <point x="210" y="503"/>
      <point x="119" y="453"/>
      <point x="119" y="354" type="curve" smooth="yes"/>
      <point x="119" y="283"/>
      <point x="169" y="240"/>
      <point x="270" y="207" type="curve" smooth="yes"/>
      <point x="347" y="182"/>
      <point x="382" y="166"/>
      <point x="382" y="128" type="curve" smooth="yes"/>
      <point x="382" y="88"/>
      <point x="343" y="69"/>
      <point x="286" y="69" type="curve" smooth="yes"/>
      <point x="221" y="69"/>
      <point x="156" y="93"/>
      <point x="107" y="146" type="curve"/>
      <point x="46" y="78" type="line"/>
      <point x="97" y="23"/>
      <point x="179" y="-12"/>
    </contour>
    <contour>
      <point x="342" y="512" type="move" name="aboveLC"/>
    </contour>
    <contour>
      <point x="264" y="0" type="move" name="baseLC"/>
    </contour>
    <contour>
      <point x="263" y="-20" type="move" name="belowLC"/>
    </contour>
  </outline>
</glyph>
<glyph name="w" format="1">
  <advance width="600"/>
  <unicode hex="0077"/>
  <outline>
    <contour>
      <point x="330" y="514" type="move" name="aboveLC"/>
    </contour>
    <contour>
      <point x="240" y="-22" type="move" name="belowLC"/>
    </contour>
    <contour>
      <point x="45" y="0" type="line"/>
      <point x="171" y="0" type="line"/>
      <point x="259" y="217" type="line" smooth="yes"/>
      <point x="278" y="270"/>
      <point x="291" y="309"/>
      <point x="308" y="359" type="curve"/>
      <point x="311" y="359" type="line"/>
      <point x="310" y="308"/>
      <point x="307" y="265"/>
      <point x="307" y="219" type="curve" smooth="yes"/>
      <point x="311" y="0" type="line"/>
      <point x="433" y="0" type="line"/>
      <point x="623" y="491" type="line"/>
      <point x="523" y="491" type="line"/>
      <point x="427" y="227" type="line" smooth="yes"/>
      <point x="411" y="180"/>
      <point x="396" y="134"/>
      <point x="379" y="86" type="curve"/>
      <point x="375" y="86" type="line"/>
      <point x="376" y="134"/>
      <point x="376" y="180"/>
      <point x="375" y="227" type="curve" smooth="yes"/>
      <point x="368" y="447" type="line"/>
      <point x="287" y="447" type="line"/>
      <point x="194" y="227" type="line" smooth="yes"/>
      <point x="174" y="181"/>
      <point x="157" y="133"/>
      <point x="140" y="86" type="curve"/>
      <point x="136" y="86" type="line"/>
      <point x="138" y="134"/>
      <point x="141" y="180"/>
      <point x="143" y="228" type="curve" smooth="yes"/>
      <point x="150" y="491" type="line"/>
      <point x="47" y="491" type="line"/>
    </contour>
  </outline>
</glyph>
<glyph name="x" format="1">
  <advance width="600"/>
  <unicode hex="0078"/>
  <outline>
    <contour>
      <point x="-2" y="0" type="line"/>
      <point x="120" y="0" type="line"/>
      <point x="209" y="105" type="line" smooth="yes"/>
      <point x="219" y="119"/>
      <point x="259" y="167"/>
      <point x="271" y="184" type="curve"/>
      <point x="277" y="184" type="line"/>
      <point x="284" y="168"/>
      <point x="311" y="116"/>
      <point x="317" y="102" type="curve" smooth="yes"/>
      <point x="370" y="0" type="line"/>
      <point x="482" y="0" type="line"/>
      <point x="349" y="246" type="line"/>
      <point x="568" y="491" type="line"/>
      <point x="447" y="491" type="line"/>
      <point x="364" y="392" type="line" smooth="yes"/>
      <point x="356" y="381"/>
      <point x="312" y="322"/>
      <point x="305" y="309" type="curve"/>
      <point x="301" y="309" type="line"/>
      <point x="296" y="323"/>
      <point x="271" y="379"/>
      <point x="265" y="392" type="curve" smooth="yes"/>
      <point x="216" y="491" type="line"/>
      <point x="107" y="491" type="line"/>
      <point x="227" y="255" type="line"/>
    </contour>
    <contour>
      <point x="330" y="512" type="move" name="aboveLC"/>
    </contour>
    <contour>
      <point x="424" y="0" type="move" name="baseLC"/>
    </contour>
    <contour>
      <point x="244" y="-20" type="move" name="belowLC"/>
    </contour>
  </outline>
</glyph>
<glyph name="y" format="1">
  <advance width="600"/>
  <unicode hex="0079"/>
  <outline>
    <contour>
      <point x="38" y="-202" type="curve" smooth="yes"/>
      <point x="146" y="-202"/>
      <point x="212" y="-148"/>
      <point x="280" y="-33" type="curve" smooth="yes"/>
      <point x="594" y="491" type="line"/>
      <point x="484" y="491" type="line"/>
      <point x="344" y="248" type="line" smooth="yes"/>
      <point x="318" y="202"/>
      <point x="285" y="138"/>
      <point x="264" y="96" type="curve"/>
      <point x="260" y="96" type="line"/>
      <point x="253" y="138"/>
      <point x="243" y="202"/>
      <point x="234" y="248" type="curve" smooth="yes"/>
      <point x="182" y="491" type="line"/>
      <point x="78" y="491" type="line"/>
      <point x="195" y="0" type="line"/>
      <point x="171" y="-38" type="line" smooth="yes"/>
      <point x="134" y="-97"/>
      <point x="102" y="-120"/>
      <point x="45" y="-120" type="curve" smooth="yes"/>
      <point x="24" y="-120"/>
      <point x="1" y="-114"/>
      <point x="-15" y="-106" type="curve"/>
      <point x="-46" y="-180" type="line"/>
      <point x="-26" y="-193"/>
      <point x="5" y="-202"/>
    </contour>
    <contour>
      <point x="116" y="-154" type="move" name="ogonekLC"/>
    </contour>
    <contour>
      <point x="330" y="512" type="move" name="aboveLC"/>
    </contour>
    <contour>
      <point x="193" y="-212" type="move" name="belowLC"/>
    </contour>
  </outline>
</glyph>
<glyph name="z" format="1">
  <advance width="600"/>
  <unicode hex="007A"/>
  <outline>
    <contour>
      <point x="28" y="0" type="line"/>
      <point x="466" y="0" type="line"/>
      <point x="483" y="85" type="line"/>
      <point x="186" y="85" type="line"/>
      <point x="533" y="428" type="line"/>
      <point x="545" y="491" type="line"/>
      <point x="124" y="491" type="line"/>
      <point x="106" y="408" type="line"/>
      <point x="388" y="408" type="line"/>
      <point x="40" y="64" type="line"/>
    </contour>
    <contour>
      <point x="336" y="512" type="move" name="aboveLC"/>
    </contour>
    <contour>
      <point x="278" y="0" type="move" name="baseLC"/>
    </contour>
    <contour>
      <point x="260" y="-20" type="move" name="belowLC"/>
    </contour>
  </outline>
</glyph>
<glyph name="braceleft" format="1">
  <advance width="600"/>
  <unicode hex="007B"/>
  <outline>
    <contour>
      <point x="178" y="-58" type="curve" smooth="yes"/>
      <point x="178" y="-121"/>
      <point x="222" y="-152"/>
      <point x="299" y="-152" type="curve" smooth="yes"/>
      <point x="409" y="-152" type="line"/>
      <point x="421" y="-93" type="line"/>
      <point x="344" y="-93" type="line" smooth="yes"/>
      <point x="296" y="-93"/>
      <point x="267" y="-76"/>
      <point x="267" y="-39" type="curve" smooth="yes"/>
      <point x="267" y="16"/>
      <point x="316" y="134"/>
      <point x="316" y="197" type="curve" smooth="yes"/>
      <point x="316" y="238"/>
      <point x="297" y="265"/>
      <point x="254" y="273" type="curve"/>
      <point x="254" y="277" type="line"/>
      <point x="312" y="287"/>
      <point x="343" y="322"/>
      <point x="358" y="393" type="curve" smooth="yes"/>
      <point x="369" y="453"/>
      <point x="376" y="509"/>
      <point x="387" y="564" type="curve" smooth="yes"/>
      <point x="399" y="624"/>
      <point x="437" y="649"/>
      <point x="490" y="649" type="curve" smooth="yes"/>
      <point x="569" y="649" type="line"/>
      <point x="582" y="708" type="line"/>
      <point x="470" y="708" type="line" smooth="yes"/>
      <point x="380" y="708"/>
      <point x="324" y="675"/>
      <point x="302" y="569" type="curve" smooth="yes"/>
      <point x="288" y="500"/>
      <point x="287" y="452"/>
      <point x="274" y="389" type="curve" smooth="yes"/>
      <point x="266" y="352"/>
      <point x="237" y="312"/>
      <point x="118" y="310" type="curve"/>
      <point x="104" y="246" type="line"/>
      <point x="214" y="244"/>
      <point x="232" y="211"/>
      <point x="232" y="178" type="curve" smooth="yes"/>
      <point x="232" y="129"/>
      <point x="178" y="12"/>
    </contour>
  </outline>
</glyph>
<glyph name="braceright" format="1">
  <advance width="600"/>
  <unicode hex="007D"/>
  <outline>
    <contour>
      <point x="11" y="-152" type="line"/>
      <point x="123" y="-152" type="line" smooth="yes"/>
      <point x="213" y="-152"/>
      <point x="269" y="-119"/>
      <point x="291" y="-13" type="curve" smooth="yes"/>
      <point x="305" y="56"/>
      <point x="306" y="104"/>
      <point x="319" y="167" type="curve" smooth="yes"/>
      <point x="327" y="204"/>
      <point x="356" y="244"/>
      <point x="475" y="246" type="curve"/>
      <point x="489" y="310" type="line"/>
      <point x="379" y="312"/>
      <point x="361" y="345"/>
      <point x="361" y="378" type="curve" smooth="yes"/>
      <point x="361" y="427"/>
      <point x="414" y="544"/>
      <point x="414" y="614" type="curve" smooth="yes"/>
      <point x="414" y="677"/>
      <point x="371" y="708"/>
      <point x="294" y="708" type="curve" smooth="yes"/>
      <point x="184" y="708" type="line"/>
      <point x="172" y="649" type="line"/>
      <point x="249" y="649" type="line" smooth="yes"/>
      <point x="297" y="649"/>
      <point x="326" y="632"/>
      <point x="326" y="595" type="curve" smooth="yes"/>
      <point x="326" y="540"/>
      <point x="277" y="422"/>
      <point x="277" y="359" type="curve" smooth="yes"/>
      <point x="277" y="318"/>
      <point x="296" y="291"/>
      <point x="339" y="283" type="curve"/>
      <point x="338" y="279" type="line"/>
      <point x="281" y="269"/>
      <point x="250" y="234"/>
      <point x="235" y="163" type="curve" smooth="yes"/>
      <point x="224" y="103"/>
      <point x="217" y="47"/>
      <point x="206" y="-8" type="curve" smooth="yes"/>
      <point x="194" y="-68"/>
      <point x="155" y="-93"/>
      <point x="103" y="-93" type="curve" smooth="yes"/>
      <point x="23" y="-93" type="line"/>
    </contour>
  </outline>
</glyph>
<glyph name="asciitilde" format="1">
  <advance width="600"/>
  <unicode hex="007E"/>
  <outline>
    <contour>
      <point x="386" y="253" type="curve" smooth="yes"/>
      <point x="430" y="253"/>
      <point x="479" y="280"/>
      <point x="517" y="349" type="curve"/>
      <point x="460" y="386" type="line"/>
      <point x="440" y="346"/>
      <point x="417" y="328"/>
      <point x="389" y="328" type="curve" smooth="yes"/>
      <point x="336" y="328"/>
      <point x="296" y="409"/>
      <point x="221" y="409" type="curve" smooth="yes"/>
      <point x="177" y="409"/>
      <point x="128" y="382"/>
      <point x="90" y="313" type="curve"/>
      <point x="147" y="276" type="line"/>
      <point x="167" y="316"/>
      <point x="190" y="334"/>
      <point x="218" y="334" type="curve" smooth="yes"/>
      <point x="270" y="334"/>
      <point x="311" y="253"/>
    </contour>
  </outline>
</glyph>
<glyph name="sterling" format="1">
  <advance width="600"/>
  <unicode hex="00A3"/>
  <outline>
    <contour>
      <point x="18" y="0" type="line"/>
      <point x="457" y="0" type="line"/>
      <point x="474" y="90" type="line"/>
      <point x="188" y="90" type="line"/>
      <point x="189" y="95" type="line"/>
      <point x="254" y="144"/>
      <point x="284" y="200"/>
      <point x="284" y="285" type="curve" smooth="yes"/>
      <point x="283" y="327"/>
      <point x="274" y="379"/>
      <point x="274" y="418" type="curve" smooth="yes"/>
      <point x="274" y="521"/>
      <point x="322" y="562"/>
      <point x="392" y="562" type="curve" smooth="yes"/>
      <point x="436" y="562"/>
      <point x="469" y="539"/>
      <point x="493" y="504" type="curve"/>
      <point x="563" y="560" type="line"/>
      <point x="527" y="612"/>
      <point x="467" y="648"/>
      <point x="392" y="648" type="curve" smooth="yes"/>
      <point x="264" y="648"/>
      <point x="174" y="570"/>
      <point x="174" y="431" type="curve" smooth="yes"/>
      <point x="174" y="384"/>
      <point x="186" y="320"/>
      <point x="186" y="272" type="curve" smooth="yes"/>
      <point x="186" y="183"/>
      <point x="133" y="109"/>
      <point x="32" y="65" type="curve"/>
    </contour>
    <contour>
      <point x="71" y="282" type="line"/>
      <point x="443" y="282" type="line"/>
      <point x="457" y="348" type="line"/>
      <point x="182" y="348" type="line"/>
      <point x="84" y="343" type="line"/>
    </contour>
  </outline>
</glyph>
<glyph name="currency" format="1">
  <advance width="600"/>
  <unicode hex="00A4"/>
  <outline>
    <contour>
      <point x="70" y="77" type="line"/>
      <point x="165" y="161" type="line"/>
      <point x="191" y="142"/>
      <point x="226" y="133"/>
      <point x="262" y="133" type="curve" smooth="yes"/>
      <point x="304" y="133"/>
      <point x="344" y="144"/>
      <point x="378" y="162" type="curve"/>
      <point x="449" y="69" type="line"/>
      <point x="516" y="125" type="line"/>
      <point x="448" y="211" type="line"/>
      <point x="486" y="251"/>
      <point x="508" y="305"/>
      <point x="508" y="363" type="curve" smooth="yes"/>
      <point x="508" y="391"/>
      <point x="503" y="415"/>
      <point x="494" y="437" type="curve"/>
      <point x="594" y="518" type="line"/>
      <point x="543" y="580" type="line"/>
      <point x="442" y="495" type="line"/>
      <point x="415" y="516"/>
      <point x="380" y="527"/>
      <point x="341" y="527" type="curve" smooth="yes"/>
      <point x="299" y="527"/>
      <point x="259" y="516"/>
      <point x="225" y="497" type="curve"/>
      <point x="157" y="583" type="line"/>
      <point x="88" y="526" type="line"/>
      <point x="154" y="445" type="line"/>
      <point x="117" y="405"/>
      <point x="95" y="352"/>
      <point x="95" y="294" type="curve" smooth="yes"/>
      <point x="95" y="263"/>
      <point x="101" y="237"/>
      <point x="112" y="214" type="curve"/>
      <point x="16" y="133" type="line"/>
    </contour>
    <contour>
      <point x="277" y="210" type="curve" smooth="yes"/>
      <point x="223" y="210"/>
      <point x="192" y="248"/>
      <point x="192" y="306" type="curve" smooth="yes"/>
      <point x="192" y="390"/>
      <point x="258" y="452"/>
      <point x="327" y="452" type="curve" smooth="yes"/>
      <point x="378" y="452"/>
      <point x="412" y="414"/>
      <point x="412" y="355" type="curve" smooth="yes"/>
      <point x="412" y="270"/>
      <point x="346" y="210"/>
    </contour>
  </outline>
</glyph>
<glyph name="yen" format="1">
  <advance width="600"/>
  <unicode hex="00A5"/>
  <outline>
    <contour>
      <point x="188" y="0" type="line"/>
      <point x="295" y="0" type="line"/>
      <point x="347" y="276" type="line"/>
      <point x="621" y="637" type="line"/>
      <point x="507" y="637" type="line"/>
      <point x="397" y="479" type="line" smooth="yes"/>
      <point x="367" y="435"/>
      <point x="336" y="383"/>
      <point x="311" y="338" type="curve"/>
      <point x="307" y="338" type="line"/>
      <point x="296" y="386"/>
      <point x="283" y="435"/>
      <point x="270" y="479" type="curve" smooth="yes"/>
      <point x="220" y="637" type="line"/>
      <point x="113" y="637" type="line"/>
      <point x="242" y="281" type="line"/>
    </contour>
    <contour>
      <point x="40" y="150" type="line"/>
      <point x="501" y="150" type="line"/>
      <point x="513" y="203" type="line"/>
      <point x="52" y="203" type="line"/>
    </contour>
    <contour>
      <point x="63" y="267" type="line"/>
      <point x="523" y="267" type="line"/>
      <point x="536" y="320" type="line"/>
      <point x="76" y="320" type="line"/>
    </contour>
  </outline>
</glyph>
<glyph name="brokenbar" format="1">
  <advance width="600"/>
  <unicode hex="00A6"/>
  <outline>
    <contour>
      <point x="252" y="-250" type="line"/>
      <point x="348" y="-250" type="line"/>
      <point x="348" y="210" type="line"/>
      <point x="252" y="210" type="line"/>
    </contour>
    <contour>
      <point x="252" y="298" type="line"/>
      <point x="348" y="298" type="line"/>
      <point x="348" y="750" type="line"/>
      <point x="252" y="750" type="line"/>
    </contour>
  </outline>
</glyph>
<glyph name="section" format="1">
  <advance width="600"/>
  <unicode hex="00A7"/>
  <outline>
    <contour>
      <point x="231" y="-66" type="curve" smooth="yes"/>
      <point x="335" y="-66"/>
      <point x="409" y="-6"/>
      <point x="409" y="89" type="curve" smooth="yes"/>
      <point x="409" y="171"/>
      <point x="336" y="210"/>
      <point x="274" y="247" type="curve" smooth="yes"/>
      <point x="219" y="278"/>
      <point x="190" y="301"/>
      <point x="190" y="344" type="curve" smooth="yes"/>
      <point x="190" y="394"/>
      <point x="232" y="419"/>
      <point x="279" y="434" type="curve"/>
      <point x="235" y="485" type="line"/>
      <point x="160" y="460"/>
      <point x="97" y="408"/>
      <point x="97" y="328" type="curve" smooth="yes"/>
      <point x="97" y="252"/>
      <point x="145" y="211"/>
      <point x="211" y="174" type="curve" smooth="yes"/>
      <point x="264" y="144"/>
      <point x="312" y="120"/>
      <point x="312" y="77" type="curve" smooth="yes"/>
      <point x="312" y="39"/>
      <point x="280" y="15"/>
      <point x="232" y="15" type="curve" smooth="yes"/>
      <point x="184" y="15"/>
      <point x="139" y="45"/>
      <point x="105" y="82" type="curve"/>
      <point x="49" y="18" type="line"/>
      <point x="99" y="-38"/>
      <point x="165" y="-66"/>
    </contour>
    <contour>
      <point x="372" y="130" type="line"/>
      <point x="451" y="162"/>
      <point x="502" y="206"/>
      <point x="502" y="291" type="curve" smooth="yes"/>
      <point x="502" y="373"/>
      <point x="439" y="416"/>
      <point x="376" y="455" type="curve" smooth="yes"/>
      <point x="321" y="489"/>
      <point x="285" y="509"/>
      <point x="285" y="548" type="curve" smooth="yes"/>
      <point x="285" y="585"/>
      <point x="314" y="605"/>
      <point x="351" y="605" type="curve" smooth="yes"/>
      <point x="393" y="605"/>
      <point x="424" y="580"/>
      <point x="451" y="549" type="curve"/>
      <point x="512" y="607" type="line"/>
      <point x="470" y="654"/>
      <point x="413" y="687"/>
      <point x="352" y="687" type="curve" smooth="yes"/>
      <point x="256" y="687"/>
      <point x="187" y="625"/>
      <point x="187" y="538" type="curve" smooth="yes"/>
      <point x="187" y="455"/>
      <point x="255" y="418"/>
      <point x="320" y="378" type="curve" smooth="yes"/>
      <point x="368" y="350"/>
      <point x="408" y="323"/>
      <point x="408" y="275" type="curve" smooth="yes"/>
      <point x="408" y="223"/>
      <point x="373" y="199"/>
      <point x="320" y="184" type="curve"/>
    </contour>
  </outline>
</glyph>
<glyph name="copyright" format="1">
  <advance width="600"/>
  <unicode hex="00A9"/>
  <outline>
    <contour>
      <point x="235" y="-10" type="curve" smooth="yes"/>
      <point x="438" y="-10"/>
      <point x="586" y="158"/>
      <point x="586" y="398" type="curve" smooth="yes"/>
      <point x="586" y="556"/>
      <point x="500" y="653"/>
      <point x="371" y="654" type="curve" smooth="yes"/>
      <point x="175" y="656"/>
      <point x="20" y="491"/>
      <point x="20" y="249" type="curve" smooth="yes"/>
      <point x="20" y="90"/>
      <point x="106" y="-10"/>
    </contour>
    <contour>
      <point x="245" y="39" type="curve" smooth="yes"/>
      <point x="136" y="39"/>
      <point x="74" y="122"/>
      <point x="74" y="254" type="curve" smooth="yes"/>
      <point x="74" y="457"/>
      <point x="200" y="605"/>
      <point x="360" y="605" type="curve" smooth="yes"/>
      <point x="469" y="605"/>
      <point x="532" y="522"/>
      <point x="532" y="393" type="curve" smooth="yes"/>
      <point x="532" y="192"/>
      <point x="405" y="39"/>
    </contour>
    <contour>
      <point x="279" y="129" type="curve" smooth="yes"/>
      <point x="330" y="129"/>
      <point x="374" y="150"/>
      <point x="406" y="178" type="curve"/>
      <point x="375" y="230" type="line"/>
      <point x="351" y="210"/>
      <point x="327" y="196"/>
      <point x="295" y="196" type="curve" smooth="yes"/>
      <point x="253" y="197"/>
      <point x="230" y="229"/>
      <point x="230" y="284" type="curve" smooth="yes"/>
      <point x="230" y="377"/>
      <point x="285" y="449"/>
      <point x="352" y="449" type="curve" smooth="yes"/>
      <point x="378" y="449"/>
      <point x="394" y="439"/>
      <point x="410" y="416" type="curve"/>
      <point x="459" y="458" type="line"/>
      <point x="438" y="490"/>
      <point x="406" y="515"/>
      <point x="355" y="515" type="curve" smooth="yes"/>
      <point x="249" y="515"/>
      <point x="150" y="424"/>
      <point x="150" y="280" type="curve" smooth="yes"/>
      <point x="150" y="186"/>
      <point x="200" y="129"/>
    </contour>
  </outline>
</glyph>
<glyph name="logicalnot" format="1">
  <advance width="600"/>
  <unicode hex="00AC"/>
  <outline>
    <contour>
      <point x="437" y="99" type="line"/>
      <point x="517" y="99" type="line"/>
      <point x="517" y="369" type="line"/>
      <point x="93" y="369" type="line"/>
      <point x="93" y="292" type="line"/>
      <point x="437" y="292" type="line"/>
    </contour>
  </outline>
</glyph>
<glyph name="registered" format="1">
  <advance width="600"/>
  <unicode hex="00AE"/>
  <outline>
    <contour>
      <point x="309" y="316" type="curve" smooth="yes"/>
      <point x="448" y="316"/>
      <point x="545" y="416"/>
      <point x="545" y="551" type="curve" smooth="yes"/>
      <point x="545" y="647"/>
      <point x="480" y="714"/>
      <point x="388" y="714" type="curve" smooth="yes"/>
      <point x="253" y="714"/>
      <point x="152" y="614"/>
      <point x="152" y="479" type="curve" smooth="yes"/>
      <point x="152" y="383"/>
      <point x="217" y="316"/>
    </contour>
    <contour>
      <point x="317" y="356" type="curve" smooth="yes"/>
      <point x="245" y="356"/>
      <point x="197" y="406"/>
      <point x="197" y="483" type="curve" smooth="yes"/>
      <point x="197" y="593"/>
      <point x="280" y="675"/>
      <point x="380" y="675" type="curve" smooth="yes"/>
      <point x="452" y="675"/>
      <point x="500" y="625"/>
      <point x="500" y="546" type="curve" smooth="yes"/>
      <point x="500" y="436"/>
      <point x="420" y="356"/>
    </contour>
    <contour>
      <point x="254" y="417" type="line"/>
      <point x="300" y="417" type="line"/>
      <point x="334" y="587" type="line"/>
      <point x="325" y="582" type="line"/>
      <point x="359" y="582" type="line" smooth="yes"/>
      <point x="382" y="582"/>
      <point x="391" y="571"/>
      <point x="391" y="555" type="curve" smooth="yes"/>
      <point x="391" y="532"/>
      <point x="373" y="517"/>
      <point x="344" y="517" type="curve" smooth="yes"/>
      <point x="307" y="517" type="line"/>
      <point x="301" y="483" type="line"/>
      <point x="341" y="483" type="line" smooth="yes"/>
      <point x="403" y="483"/>
      <point x="442" y="515"/>
      <point x="442" y="560" type="curve" smooth="yes"/>
      <point x="442" y="602"/>
      <point x="412" y="618"/>
      <point x="374" y="618" type="curve" smooth="yes"/>
      <point x="293" y="618" type="line"/>
    </contour>
    <contour>
      <point x="341" y="487" type="line"/>
      <point x="371" y="417" type="line"/>
      <point x="421" y="417" type="line"/>
      <point x="385" y="497" type="line"/>
    </contour>
  </outline>
</glyph>
<glyph name="plusminus" format="1">
  <advance width="600"/>
  <unicode hex="00B1"/>
  <outline>
    <contour>
      <point x="265" y="142" type="line"/>
      <point x="344" y="142" type="line"/>
      <point x="344" y="313" type="line"/>
      <point x="521" y="313" type="line"/>
      <point x="521" y="391" type="line"/>
      <point x="344" y="391" type="line"/>
      <point x="344" y="559" type="line"/>
      <point x="265" y="559" type="line"/>
      <point x="265" y="391" type="line"/>
      <point x="88" y="391" type="line"/>
      <point x="88" y="313" type="line"/>
      <point x="265" y="313" type="line"/>
    </contour>
    <contour>
      <point x="88" y="0" type="line"/>
      <point x="520" y="0" type="line"/>
      <point x="520" y="78" type="line"/>
      <point x="88" y="78" type="line"/>
    </contour>
  </outline>
</glyph>
<glyph name="AE" format="1">
  <advance width="600"/>
  <unicode hex="00C6"/>
  <outline>
    <contour>
      <point x="477" y="676" type="move" name="aboveUC"/>
    </contour>
    <contour>
      <point x="-63" y="0" type="line"/>
      <point x="47" y="0" type="line"/>
      <point x="250" y="370" type="line" smooth="yes"/>
      <point x="287" y="436"/>
      <point x="325" y="503"/>
      <point x="362" y="573" type="curve"/>
      <point x="367" y="573" type="line"/>
      <point x="252" y="0" type="line"/>
      <point x="527" y="0" type="line"/>
      <point x="545" y="91" type="line"/>
      <point x="366" y="91" type="line"/>
      <point x="407" y="297" type="line"/>
      <point x="544" y="297" type="line"/>
      <point x="562" y="387" type="line"/>
      <point x="425" y="387" type="line"/>
      <point x="460" y="564" type="line"/>
      <point x="630" y="564" type="line"/>
      <point x="648" y="654" type="line"/>
      <point x="312" y="654" type="line"/>
    </contour>
    <contour>
      <point x="103" y="178" type="line"/>
      <point x="333" y="178" type="line"/>
      <point x="349" y="260" type="line"/>
      <point x="120" y="260" type="line"/>
    </contour>
  </outline>
</glyph>
<glyph name="Eth" format="1">
  <advance width="600"/>
  <unicode hex="00D0"/>
  <outline>
    <contour>
      <point x="324" y="311" type="line"/>
      <point x="339" y="374" type="line"/>
      <point x="104" y="374" type="line"/>
      <point x="28" y="370" type="line"/>
      <point x="14" y="311" type="line"/>
    </contour>
    <component base="D" xOffset="9"/>
    <contour>
      <point x="366" y="674" type="move" name="aboveUC"/>
    </contour>
    <contour>
      <point x="226" y="-20" type="move" name="belowLC"/>
    </contour>
  </outline>
</glyph>
<glyph name="multiply" format="1">
  <advance width="600"/>
  <unicode hex="00D7"/>
  <outline>
    <contour>
      <point x="160" y="125" type="line"/>
      <point x="306" y="277" type="line"/>
      <point x="452" y="125" type="line"/>
      <point x="506" y="179" type="line"/>
      <point x="360" y="331" type="line"/>
      <point x="506" y="482" type="line"/>
      <point x="452" y="536" type="line"/>
      <point x="306" y="385" type="line"/>
      <point x="160" y="536" type="line"/>
      <point x="106" y="482" type="line"/>
      <point x="252" y="331" type="line"/>
      <point x="106" y="179" type="line"/>
    </contour>
  </outline>
</glyph>
<glyph name="Oslash" format="1">
  <advance width="600"/>
  <unicode hex="00D8"/>
  <outline>
    <contour>
      <point x="251" y="-12" type="curve" smooth="yes"/>
      <point x="445" y="-12"/>
      <point x="572" y="188"/>
      <point x="571" y="407" type="curve" smooth="yes"/>
      <point x="570" y="567"/>
      <point x="488" y="666"/>
      <point x="357" y="666" type="curve" smooth="yes"/>
      <point x="170" y="666"/>
      <point x="35" y="480"/>
      <point x="36" y="247" type="curve" smooth="yes"/>
      <point x="37" y="86"/>
      <point x="120" y="-12"/>
    </contour>
    <contour>
      <point x="261" y="81" type="curve" smooth="yes"/>
      <point x="186" y="81"/>
      <point x="143" y="138"/>
      <point x="143" y="237" type="curve" smooth="yes"/>
      <point x="142" y="429"/>
      <point x="235" y="573"/>
      <point x="346" y="573" type="curve" smooth="yes"/>
      <point x="420" y="573"/>
      <point x="463" y="518"/>
      <point x="464" y="416" type="curve" smooth="yes"/>
      <point x="466" y="240"/>
      <point x="381" y="81"/>
    </contour>
    <contour>
      <point x="33" y="-37" type="line"/>
      <point x="636" y="646" type="line"/>
      <point x="582" y="691" type="line"/>
      <point x="-22" y="7" type="line"/>
    </contour>
    <contour>
      <point x="370" y="674" type="move" name="aboveUC"/>
    </contour>
    <contour>
      <point x="238" y="0" type="move" name="baseLC"/>
    </contour>
  </outline>
</glyph>
<glyph name="Thorn" format="1">
  <advance width="600"/>
  <unicode hex="00DE"/>
  <outline>
    <contour>
      <point x="31" y="0" type="line"/>
      <point x="138" y="0" type="line"/>
      <point x="166" y="138" type="line"/>
      <point x="263" y="138" type="line" smooth="yes"/>
      <point x="429" y="138"/>
      <point x="559" y="208"/>
      <point x="559" y="380" type="curve" smooth="yes"/>
      <point x="559" y="500"/>
      <point x="473" y="547"/>
      <point x="355" y="547" type="curve" smooth="yes"/>
      <point x="249" y="547" type="line"/>
      <point x="270" y="654" type="line"/>
      <point x="162" y="654" type="line"/>
    </contour>
    <contour>
      <point x="184" y="224" type="line"/>
      <point x="231" y="461" type="line"/>
      <point x="328" y="461" type="line" smooth="yes"/>
      <point x="408" y="461"/>
      <point x="452" y="432"/>
      <point x="452" y="365" type="curve" smooth="yes"/>
      <point x="452" y="272"/>
      <point x="389" y="224"/>
      <point x="272" y="224" type="curve" smooth="yes"/>
    </contour>
  </outline>
</glyph>
<glyph name="ae" format="1">
  <advance width="600"/>
  <unicode hex="00E6"/>
  <outline>
    <contour>
      <point x="94" y="-12" type="curve" smooth="yes"/>
      <point x="156" y="-12"/>
      <point x="216" y="20"/>
      <point x="273" y="85" type="curve"/>
      <point x="246" y="138" type="line"/>
      <point x="212" y="99"/>
      <point x="163" y="71"/>
      <point x="127" y="71" type="curve" smooth="yes"/>
      <point x="97" y="71"/>
      <point x="78" y="88"/>
      <point x="78" y="123" type="curve" smooth="yes"/>
      <point x="78" y="188"/>
      <point x="137" y="228"/>
      <point x="264" y="249" type="curve"/>
      <point x="271" y="316" type="line"/>
      <point x="74" y="287"/>
      <point x="-21" y="223"/>
      <point x="-21" y="101" type="curve" smooth="yes"/>
      <point x="-21" y="33"/>
      <point x="20" y="-12"/>
    </contour>
    <contour>
      <point x="307" y="217" type="line"/>
      <point x="574" y="217" type="line"/>
      <point x="583" y="239"/>
      <point x="598" y="284"/>
      <point x="598" y="347" type="curve" smooth="yes"/>
      <point x="598" y="430"/>
      <point x="562" y="502"/>
      <point x="481" y="502" type="curve" smooth="yes"/>
      <point x="421" y="502"/>
      <point x="363" y="472"/>
      <point x="320" y="406" type="curve"/>
      <point x="335" y="401" type="line"/>
      <point x="329" y="462"/>
      <point x="287" y="502"/>
      <point x="224" y="502" type="curve" smooth="yes"/>
      <point x="154" y="502"/>
      <point x="94" y="475"/>
      <point x="50" y="442" type="curve"/>
      <point x="86" y="378" type="line"/>
      <point x="120" y="400"/>
      <point x="157" y="419"/>
      <point x="198" y="419" type="curve" smooth="yes"/>
      <point x="254" y="419"/>
      <point x="273" y="374"/>
      <point x="257" y="310" type="curve" smooth="yes"/>
      <point x="243" y="254"/>
      <point x="236" y="214"/>
      <point x="236" y="155" type="curve" smooth="yes"/>
      <point x="236" y="70"/>
      <point x="286" y="-12"/>
      <point x="395" y="-12" type="curve" smooth="yes"/>
      <point x="444" y="-12"/>
      <point x="501" y="8"/>
      <point x="539" y="38" type="curve"/>
      <point x="507" y="105" type="line"/>
      <point x="473" y="82"/>
      <point x="442" y="70"/>
      <point x="406" y="70" type="curve" smooth="yes"/>
      <point x="351" y="70"/>
      <point x="322" y="111"/>
      <point x="322" y="175" type="curve" smooth="yes"/>
      <point x="322" y="306"/>
      <point x="384" y="420"/>
      <point x="459" y="420" type="curve" smooth="yes"/>
      <point x="497" y="420"/>
      <point x="513" y="390"/>
      <point x="513" y="342" type="curve" smooth="yes"/>
      <point x="513" y="322"/>
      <point x="510" y="299"/>
      <point x="505" y="275" type="curve"/>
      <point x="523" y="284" type="line"/>
      <point x="310" y="284" type="line"/>
    </contour>
  </outline>
</glyph>
<glyph name="eth" format="1">
  <advance width="600"/>
  <unicode hex="00F0"/>
  <outline>
    <contour>
      <point x="240" y="-12" type="curve" smooth="yes"/>
      <point x="423" y="-12"/>
      <point x="546" y="119"/>
      <point x="546" y="339" type="curve" smooth="yes"/>
      <point x="546" y="535"/>
      <point x="436" y="672"/>
      <point x="281" y="742" type="curve"/>
      <point x="234" y="666" type="line"/>
      <point x="365" y="598"/>
      <point x="443" y="504"/>
      <point x="443" y="343" type="curve" smooth="yes"/>
      <point x="443" y="177"/>
      <point x="367" y="75"/>
      <point x="251" y="75" type="curve" smooth="yes"/>
      <point x="181" y="75"/>
      <point x="137" y="120"/>
      <point x="137" y="197" type="curve" smooth="yes"/>
      <point x="137" y="287"/>
      <point x="200" y="370"/>
      <point x="310" y="370" type="curve" smooth="yes"/>
      <point x="368" y="370"/>
      <point x="418" y="346"/>
      <point x="451" y="289" type="curve"/>
      <point x="460" y="353" type="line"/>
      <point x="437" y="403"/>
      <point x="381" y="449"/>
      <point x="292" y="449" type="curve" smooth="yes"/>
      <point x="152" y="449"/>
      <point x="32" y="347"/>
      <point x="32" y="189" type="curve" smooth="yes"/>
      <point x="32" y="58"/>
      <point x="125" y="-12"/>
    </contour>
    <contour>
      <point x="223" y="497" type="line"/>
      <point x="586" y="667" type="line"/>
      <point x="567" y="718" type="line"/>
      <point x="203" y="547" type="line"/>
    </contour>
    <contour>
      <point x="426" y="734" type="move" name="aboveUC"/>
    </contour>
    <contour>
      <point x="250" y="-20" type="move" name="belowLC"/>
    </contour>
  </outline>
</glyph>
<glyph name="divide" format="1">
	<unicode hex="00F7"/>
	<advance width="600"/>
	<outline>
		<contour>
			<point x="300" y="447" type="curve" smooth="yes"/>
			<point x="336" y="447"/>
			<point x="365" y="472"/>
			<point x="365" y="510" type="curve" smooth="yes"/>
			<point x="365" y="547"/>
			<point x="336" y="572"/>
			<point x="300" y="572" type="curve" smooth="yes"/>
			<point x="264" y="572"/>
			<point x="235" y="547"/>
			<point x="235" y="510" type="curve" smooth="yes"/>
			<point x="235" y="472"/>
			<point x="264" y="447"/>
		</contour>
		<contour>
			<point x="300" y="87" type="curve" smooth="yes"/>
			<point x="336" y="87"/>
			<point x="365" y="112"/>
			<point x="365" y="150" type="curve" smooth="yes"/>
			<point x="365" y="187"/>
			<point x="336" y="212"/>
			<point x="300" y="212" type="curve" smooth="yes"/>
			<point x="264" y="212"/>
			<point x="235" y="187"/>
			<point x="235" y="150" type="curve" smooth="yes"/>
			<point x="235" y="112"/>
			<point x="264" y="87"/>
		</contour>
		<contour>
			<point x="80" y="291" type="line"/>
			<point x="520" y="291" type="line"/>
			<point x="520" y="369" type="line"/>
			<point x="80" y="369" type="line"/>
		</contour>
	</outline>
</glyph>
<glyph name="oslash" format="1">
  <advance width="600"/>
  <unicode hex="00F8"/>
  <outline>
    <contour>
      <point x="240" y="-12" type="curve" smooth="yes"/>
      <point x="398" y="-12"/>
      <point x="536" y="105"/>
      <point x="536" y="292" type="curve" smooth="yes"/>
      <point x="536" y="420"/>
      <point x="453" y="503"/>
      <point x="336" y="503" type="curve" smooth="yes"/>
      <point x="178" y="503"/>
      <point x="40" y="382"/>
      <point x="40" y="197" type="curve" smooth="yes"/>
      <point x="40" y="69"/>
      <point x="124" y="-12"/>
    </contour>
    <contour>
      <point x="255" y="73" type="curve" smooth="yes"/>
      <point x="184" y="73"/>
      <point x="144" y="125"/>
      <point x="144" y="204" type="curve" smooth="yes"/>
      <point x="144" y="315"/>
      <point x="220" y="418"/>
      <point x="322" y="418" type="curve" smooth="yes"/>
      <point x="393" y="418"/>
      <point x="432" y="365"/>
      <point x="432" y="286" type="curve" smooth="yes"/>
      <point x="432" y="174"/>
      <point x="356" y="73"/>
    </contour>
    <contour>
      <point x="43" y="-29" type="line"/>
      <point x="571" y="475" type="line"/>
      <point x="529" y="519" type="line"/>
      <point x="1" y="15" type="line"/>
    </contour>
    <contour>
      <point x="339" y="512" type="move" name="aboveLC"/>
    </contour>
    <contour>
      <point x="238" y="0" type="move" name="baseLC"/>
    </contour>
    <contour>
      <point x="234" y="-20" type="move" name="belowLC"/>
    </contour>
  </outline>
</glyph>
<glyph name="thorn" format="1">
  <advance width="600"/>
  <unicode hex="00FE"/>
  <outline>
    <contour>
      <point x="-14" y="-194" type="line"/>
      <point x="94" y="-194" type="line"/>
      <point x="122" y="-48" type="line"/>
      <point x="138" y="52" type="line"/>
      <point x="140" y="52" type="line"/>
      <point x="170" y="14"/>
      <point x="222" y="-12"/>
      <point x="279" y="-12" type="curve" smooth="yes"/>
      <point x="438" y="-12"/>
      <point x="546" y="131"/>
      <point x="546" y="310" type="curve" smooth="yes"/>
      <point x="546" y="434"/>
      <point x="484" y="503"/>
      <point x="380" y="503" type="curve" smooth="yes"/>
      <point x="323" y="503"/>
      <point x="261" y="470"/>
      <point x="215" y="426" type="curve"/>
      <point x="212" y="426" type="line"/>
      <point x="239" y="532" type="line"/>
      <point x="274" y="706" type="line"/>
      <point x="167" y="706" type="line"/>
    </contour>
    <contour>
      <point x="269" y="76" type="curve" smooth="yes"/>
      <point x="229" y="76"/>
      <point x="187" y="92"/>
      <point x="160" y="134" type="curve"/>
      <point x="200" y="328" type="line"/>
      <point x="245" y="385"/>
      <point x="298" y="415"/>
      <point x="341" y="415" type="curve" smooth="yes"/>
      <point x="397" y="415"/>
      <point x="435" y="377"/>
      <point x="435" y="296" type="curve" smooth="yes"/>
      <point x="435" y="174"/>
      <point x="363" y="76"/>
    </contour>
    <contour>
      <point x="225" y="734" type="move" name="aboveUC"/>
    </contour>
    <contour>
      <point x="46" y="-212" type="move" name="belowLC"/>
    </contour>
  </outline>
</glyph>
<glyph name="Aogonek" format="1">
  <advance width="600"/>
  <unicode hex="0104"/>
  <outline>
    <contour>
      <point x="412" y="-226" type="curve" smooth="yes"/>
      <point x="448" y="-226"/>
      <point x="487" y="-214"/>
      <point x="514" y="-195" type="curve"/>
      <point x="491" y="-142" type="line"/>
      <point x="477" y="-150"/>
      <point x="465" y="-155"/>
      <point x="450" y="-155" type="curve" smooth="yes"/>
      <point x="423" y="-155"/>
      <point x="401" y="-141"/>
      <point x="401" y="-114" type="curve" smooth="yes"/>
      <point x="401" y="-70"/>
      <point x="454" y="-18"/>
      <point x="513" y="0" type="curve"/>
      <point x="439" y="654" type="line"/>
      <point x="312" y="654" type="line"/>
      <point x="-33" y="0" type="line"/>
      <point x="85" y="0" type="line"/>
      <point x="261" y="366" type="line" smooth="yes"/>
      <point x="294" y="435"/>
      <point x="323" y="499"/>
      <point x="355" y="569" type="curve"/>
      <point x="360" y="569" type="line"/>
      <point x="364" y="500"/>
      <point x="368" y="432"/>
      <point x="374" y="365" type="curve" smooth="yes"/>
      <point x="400" y="0" type="line"/>
      <point x="426" y="0" type="line"/>
      <point x="379" y="-26"/>
      <point x="315" y="-80"/>
      <point x="315" y="-148" type="curve" smooth="yes"/>
      <point x="315" y="-200"/>
      <point x="358" y="-226"/>
    </contour>
    <contour>
      <point x="128" y="184" type="line"/>
      <point x="424" y="184" type="line"/>
      <point x="442" y="266" type="line"/>
      <point x="148" y="266" type="line"/>
    </contour>
    <contour>
      <point x="372" y="674" type="move" name="aboveUC"/>
    </contour>
  </outline>
</glyph>
<glyph name="aogonek" format="1">
  <advance width="600"/>
  <unicode hex="0105"/>
  <outline>
    <contour>
      <point x="361" y="-226" type="curve" smooth="yes"/>
      <point x="402" y="-226"/>
      <point x="438" y="-212"/>
      <point x="465" y="-191" type="curve"/>
      <point x="444" y="-146" type="line"/>
      <point x="428" y="-155"/>
      <point x="415" y="-160"/>
      <point x="398" y="-160" type="curve" smooth="yes"/>
      <point x="369" y="-160"/>
      <point x="345" y="-145"/>
      <point x="345" y="-114" type="curve" smooth="yes"/>
      <point x="345" y="-75"/>
      <point x="380" y="-34"/>
      <point x="464" y="-3" type="curve"/>
      <point x="563" y="491" type="line"/>
      <point x="477" y="491" type="line"/>
      <point x="456" y="434" type="line"/>
      <point x="452" y="434" type="line"/>
      <point x="427" y="476"/>
      <point x="377" y="503"/>
      <point x="310" y="503" type="curve" smooth="yes"/>
      <point x="166" y="503"/>
      <point x="43" y="355"/>
      <point x="43" y="177" type="curve" smooth="yes"/>
      <point x="43" y="55"/>
      <point x="108" y="-12"/>
      <point x="208" y="-12" type="curve" smooth="yes"/>
      <point x="267" y="-12"/>
      <point x="329" y="20"/>
      <point x="378" y="71" type="curve"/>
      <point x="382" y="71" type="line"/>
      <point x="377" y="1" type="line"/>
      <point x="327" y="-26"/>
      <point x="265" y="-77"/>
      <point x="265" y="-145" type="curve" smooth="yes"/>
      <point x="265" y="-200"/>
      <point x="308" y="-226"/>
    </contour>
    <contour>
      <point x="245" y="76" type="curve" smooth="yes"/>
      <point x="190" y="76"/>
      <point x="154" y="112"/>
      <point x="154" y="192" type="curve" smooth="yes"/>
      <point x="154" y="313"/>
      <point x="232" y="415"/>
      <point x="327" y="415" type="curve" smooth="yes"/>
      <point x="364" y="415"/>
      <point x="405" y="397"/>
      <point x="431" y="355" type="curve"/>
      <point x="390" y="162" type="line"/>
      <point x="344" y="104"/>
      <point x="290" y="76"/>
    </contour>
    <contour>
      <point x="350" y="512" type="move" name="aboveLC"/>
    </contour>
  </outline>
</glyph>
<glyph name="dcaron" format="1">
  <advance width="600"/>
  <unicode hex="010F"/>
  <outline>
    <contour>
      <point x="166" y="-12" type="curve" smooth="yes"/>
      <point x="220" y="-12"/>
      <point x="277" y="12"/>
      <point x="324" y="59" type="curve"/>
      <point x="327" y="59" type="line"/>
      <point x="324" y="0" type="line"/>
      <point x="412" y="0" type="line"/>
      <point x="554" y="706" type="line"/>
      <point x="447" y="706" type="line"/>
      <point x="414" y="538" type="line"/>
      <point x="400" y="444" type="line"/>
      <point x="397" y="444" type="line"/>
      <point x="372" y="481"/>
      <point x="332" y="503"/>
      <point x="282" y="503" type="curve" smooth="yes"/>
      <point x="140" y="503"/>
      <point x="26" y="355"/>
      <point x="26" y="177" type="curve" smooth="yes"/>
      <point x="26" y="55"/>
      <point x="82" y="-12"/>
    </contour>
    <contour>
      <point x="215" y="76" type="curve" smooth="yes"/>
      <point x="169" y="76"/>
      <point x="137" y="112"/>
      <point x="137" y="192" type="curve" smooth="yes"/>
      <point x="137" y="313"/>
      <point x="208" y="415"/>
      <point x="294" y="415" type="curve" smooth="yes"/>
      <point x="327" y="415"/>
      <point x="356" y="398"/>
      <point x="378" y="361" type="curve"/>
      <point x="335" y="150" type="line"/>
      <point x="294" y="97"/>
      <point x="253" y="76"/>
    </contour>
    <component base="caron.alt" xOffset="283"/>
  </outline>
</glyph>
<glyph name="dcroat" format="1">
  <advance width="600"/>
  <unicode hex="0111"/>
  <outline>
    <contour>
      <point x="200" y="-12" type="curve" smooth="yes"/>
      <point x="260" y="-12"/>
      <point x="322" y="20"/>
      <point x="371" y="71" type="curve"/>
      <point x="375" y="71" type="line"/>
      <point x="370" y="0" type="line"/>
      <point x="458" y="0" type="line"/>
      <point x="600" y="706" type="line"/>
      <point x="493" y="706" type="line"/>
      <point x="454" y="512" type="line"/>
      <point x="440" y="418" type="line"/>
      <point x="438" y="418" type="line"/>
      <point x="411" y="457"/>
      <point x="368" y="483"/>
      <point x="300" y="483" type="curve" smooth="yes"/>
      <point x="152" y="483"/>
      <point x="36" y="344"/>
      <point x="36" y="177" type="curve" smooth="yes"/>
      <point x="36" y="55"/>
      <point x="100" y="-12"/>
    </contour>
    <contour>
      <point x="238" y="76" type="curve" smooth="yes"/>
      <point x="182" y="76"/>
      <point x="147" y="113"/>
      <point x="147" y="192" type="curve" smooth="yes"/>
      <point x="147" y="302"/>
      <point x="218" y="395"/>
      <point x="318" y="395" type="curve" smooth="yes"/>
      <point x="354" y="395"/>
      <point x="393" y="377"/>
      <point x="419" y="335" type="curve"/>
      <point x="383" y="162" type="line"/>
      <point x="337" y="104"/>
      <point x="283" y="76"/>
    </contour>
    <contour>
      <point x="299" y="566" type="line"/>
      <point x="565" y="566" type="line"/>
      <point x="642" y="572" type="line"/>
      <point x="652" y="622" type="line"/>
      <point x="310" y="622" type="line"/>
    </contour>
    <contour>
      <point x="552" y="734" type="move" name="aboveUC"/>
    </contour>
    <contour>
      <point x="249" y="-20" type="move" name="belowLC"/>
    </contour>
  </outline>
</glyph>
<glyph name="Eogonek" format="1">
	<unicode hex="0118"/>
	<advance width="600"/>
	<outline>
		<contour>
			<point x="358" y="-226" type="curve" smooth="yes"/>
			<point x="394" y="-226"/>
			<point x="433" y="-214"/>
			<point x="460" y="-195" type="curve"/>
			<point x="437" y="-142" type="line"/>
			<point x="423" y="-150"/>
			<point x="411" y="-155"/>
			<point x="396" y="-155" type="curve" smooth="yes"/>
			<point x="369" y="-155"/>
			<point x="347" y="-141"/>
			<point x="347" y="-114" type="curve" smooth="yes"/>
			<point x="347" y="-61"/>
			<point x="424" y="0"/>
			<point x="471" y="0" type="curve" smooth="yes"/>
			<point x="473" y="0" type="line"/>
			<point x="491" y="91" type="line"/>
			<point x="174" y="91" type="line"/>
			<point x="217" y="296" type="line"/>
			<point x="473" y="296" type="line"/>
			<point x="491" y="387" type="line"/>
			<point x="234" y="387" type="line"/>
			<point x="269" y="563" type="line"/>
			<point x="577" y="563" type="line"/>
			<point x="595" y="654" type="line"/>
			<point x="180" y="654" type="line"/>
			<point x="49" y="0" type="line"/>
			<point x="375" y="0" type="line"/>
			<point x="322" y="-27"/>
			<point x="261" y="-81"/>
			<point x="261" y="-148" type="curve" smooth="yes"/>
			<point x="261" y="-200"/>
			<point x="304" y="-226"/>
		</contour>
		<contour>
			<point name="aboveUC" x="399" y="674" type="move"/>
		</contour>
	</outline>
</glyph>
<glyph name="eogonek" format="1">
  <advance width="600"/>
  <unicode hex="0119"/>
  <outline>
    <contour>
      <point x="345" y="513" type="move" name="aboveLC"/>
    </contour>
    <contour>
      <point x="332" y="-226" type="curve" smooth="yes"/>
      <point x="374" y="-226"/>
      <point x="410" y="-212"/>
      <point x="436" y="-191" type="curve"/>
      <point x="416" y="-146" type="line"/>
      <point x="400" y="-155"/>
      <point x="387" y="-160"/>
      <point x="370" y="-160" type="curve" smooth="yes"/>
      <point x="341" y="-160"/>
      <point x="316" y="-145"/>
      <point x="316" y="-114" type="curve" smooth="yes"/>
      <point x="316" y="-64"/>
      <point x="380" y="-9"/>
      <point x="487" y="57" type="curve"/>
      <point x="449" y="129" type="line"/>
      <point x="404" y="96"/>
      <point x="352" y="72"/>
      <point x="292" y="72" type="curve" smooth="yes"/>
      <point x="216" y="72"/>
      <point x="162" y="114"/>
      <point x="162" y="208" type="curve" smooth="yes"/>
      <point x="162" y="342"/>
      <point x="254" y="420"/>
      <point x="333" y="420" type="curve" smooth="yes"/>
      <point x="394" y="420"/>
      <point x="432" y="381"/>
      <point x="432" y="315" type="curve" smooth="yes"/>
      <point x="432" y="301"/>
      <point x="429" y="286"/>
      <point x="426" y="273" type="curve"/>
      <point x="461" y="290" type="line"/>
      <point x="148" y="290" type="line"/>
      <point x="135" y="219" type="line"/>
      <point x="516" y="219" type="line"/>
      <point x="521" y="234"/>
      <point x="530" y="274"/>
      <point x="530" y="312" type="curve" smooth="yes"/>
      <point x="530" y="424"/>
      <point x="461" y="503"/>
      <point x="337" y="503" type="curve" smooth="yes"/>
      <point x="188" y="503"/>
      <point x="54" y="380"/>
      <point x="54" y="203" type="curve" smooth="yes"/>
      <point x="54" y="60"/>
      <point x="142" y="-12"/>
      <point x="268" y="-12" type="curve" smooth="yes"/>
      <point x="289" y="-12"/>
      <point x="313" y="-8"/>
      <point x="330" y="-4" type="curve"/>
      <point x="285" y="-39"/>
      <point x="237" y="-85"/>
      <point x="237" y="-145" type="curve" smooth="yes"/>
      <point x="237" y="-200"/>
      <point x="279" y="-226"/>
    </contour>
  </outline>
</glyph>
<glyph name="Hbar" format="1">
  <advance width="600"/>
  <unicode hex="0126"/>
  <outline>
    <contour>
      <point x="43" y="491" type="line"/>
      <point x="627" y="491" type="line"/>
      <point x="639" y="545" type="line"/>
      <point x="124" y="545" type="line"/>
      <point x="53" y="540" type="line"/>
    </contour>
    <component base="H"/>
  </outline>
</glyph>
<glyph name="hbar" format="1">
  <advance width="600"/>
  <unicode hex="0127"/>
  <outline>
    <contour>
      <point x="27" y="0" type="line"/>
      <point x="134" y="0" type="line"/>
      <point x="191" y="287" type="line"/>
      <point x="247" y="353"/>
      <point x="307" y="390"/>
      <point x="360" y="390" type="curve" smooth="yes"/>
      <point x="402" y="390"/>
      <point x="424" y="369"/>
      <point x="424" y="328" type="curve" smooth="yes"/>
      <point x="424" y="309"/>
      <point x="421" y="291"/>
      <point x="416" y="268" type="curve" smooth="yes"/>
      <point x="362" y="0" type="line"/>
      <point x="469" y="0" type="line"/>
      <point x="525" y="281" type="line" smooth="yes"/>
      <point x="531" y="306"/>
      <point x="535" y="332"/>
      <point x="535" y="357" type="curve" smooth="yes"/>
      <point x="535" y="436"/>
      <point x="492" y="482"/>
      <point x="408" y="482" type="curve" smooth="yes"/>
      <point x="331" y="482"/>
      <point x="263" y="436"/>
      <point x="209" y="380" type="curve"/>
      <point x="205" y="380" type="line"/>
      <point x="224" y="451" type="line"/>
      <point x="276" y="706" type="line"/>
      <point x="168" y="706" type="line"/>
    </contour>
    <contour>
      <point x="68" y="562" type="line"/>
      <point x="447" y="562" type="line"/>
      <point x="459" y="627" type="line"/>
      <point x="157" y="627" type="line"/>
      <point x="78" y="621" type="line"/>
    </contour>
  </outline>
</glyph>
<glyph name="dotlessi" format="1">
  <advance width="600"/>
  <unicode hex="0131"/>
  <outline>
    <contour>
      <point x="344" y="-12" type="curve" smooth="yes"/>
      <point x="402" y="-12"/>
      <point x="443" y="0"/>
      <point x="485" y="18" type="curve"/>
      <point x="462" y="99" type="line"/>
      <point x="429" y="85"/>
      <point x="404" y="76"/>
      <point x="376" y="76" type="curve" smooth="yes"/>
      <point x="337" y="76"/>
      <point x="310" y="95"/>
      <point x="310" y="141" type="curve" smooth="yes"/>
      <point x="310" y="150"/>
      <point x="311" y="160"/>
      <point x="314" y="170" type="curve" smooth="yes"/>
      <point x="387" y="491" type="line"/>
      <point x="110" y="491" type="line"/>
      <point x="92" y="406" type="line"/>
      <point x="262" y="406" type="line"/>
      <point x="208" y="177" type="line" smooth="yes"/>
      <point x="203" y="156"/>
      <point x="200" y="138"/>
      <point x="200" y="120" type="curve" smooth="yes"/>
      <point x="200" y="36"/>
      <point x="258" y="-12"/>
    </contour>
    <contour>
      <point x="354" y="0" type="move" name="ogonekLC"/>
    </contour>
    <contour>
      <point x="320" y="512" type="move" name="aboveLC"/>
    </contour>
    <contour>
      <point x="346" y="0" type="move" name="baseLC"/>
    </contour>
    <contour>
      <point x="322" y="-20" type="move" name="belowLC"/>
    </contour>
  </outline>
</glyph>
<glyph name="kgreenlandic" format="1">
  <advance width="600"/>
  <unicode hex="0138"/>
  <outline>
    <contour>
      <point x="35" y="0" type="line"/>
      <point x="142" y="0" type="line"/>
      <point x="166" y="123" type="line"/>
      <point x="336" y="261" type="line"/>
      <point x="597" y="491" type="line"/>
      <point x="471" y="491" type="line"/>
      <point x="198" y="260" type="line"/>
      <point x="194" y="260" type="line"/>
      <point x="239" y="491" type="line"/>
      <point x="132" y="491" type="line"/>
    </contour>
    <contour>
      <point x="290" y="243" type="line"/>
      <point x="408" y="0" type="line"/>
      <point x="516" y="0" type="line"/>
      <point x="359" y="315" type="line"/>
    </contour>
  </outline>
</glyph>
<glyph name="Lslash" format="1">
  <advance width="600"/>
  <unicode hex="0141"/>
  <outline>
    <contour>
      <point x="52" y="186" type="line"/>
      <point x="154" y="235" type="line"/>
      <point x="230" y="269" type="line"/>
      <point x="497" y="399" type="line"/>
      <point x="470" y="470" type="line"/>
      <point x="248" y="360" type="line"/>
      <point x="172" y="326" type="line"/>
      <point x="25" y="256" type="line"/>
    </contour>
    <component base="L"/>
    <contour>
      <point x="272" y="674" type="move" name="aboveUC"/>
    </contour>
    <contour>
      <point x="296" y="-20" type="move" name="belowLC"/>
    </contour>
  </outline>
</glyph>
<glyph name="lslash" format="1">
	<unicode hex="0142"/>
	<advance width="600"/>
	<outline>
		<contour>
			<point x="112" y="256" type="line"/>
			<point x="231" y="316" type="line"/>
			<point x="322" y="354" type="line"/>
			<point x="534" y="462" type="line"/>
			<point x="508" y="527" type="line"/>
			<point x="341" y="442" type="line"/>
			<point x="249" y="403" type="line"/>
			<point x="87" y="321" type="line"/>
		</contour>
		<component base="l"/>
		<contour>
			<point name="aboveUC" x="354" y="734" type="move"/>
		</contour>
		<contour>
			<point name="belowLC" x="318" y="-20" type="move"/>
		</contour>
	</outline>
</glyph>
<glyph name="napostrophe" format="1">
	<unicode hex="0149"/>
	<advance width="600"/>
	<outline>
		<contour>
			<point x="153" y="0" type="line"/>
			<point x="260" y="0" type="line"/>
			<point x="324" y="322" type="line"/>
			<point x="376" y="377"/>
			<point x="421" y="411"/>
			<point x="468" y="411" type="curve" smooth="yes"/>
			<point x="504" y="411"/>
			<point x="524" y="389"/>
			<point x="524" y="348" type="curve" smooth="yes"/>
			<point x="524" y="330"/>
			<point x="520" y="312"/>
			<point x="516" y="289" type="curve" smooth="yes"/>
			<point x="458" y="0" type="line"/>
			<point x="565" y="0" type="line"/>
			<point x="625" y="302" type="line" smooth="yes"/>
			<point x="631" y="328"/>
			<point x="634" y="353"/>
			<point x="634" y="379" type="curve" smooth="yes"/>
			<point x="634" y="457"/>
			<point x="601" y="503"/>
			<point x="522" y="503" type="curve" smooth="yes"/>
			<point x="446" y="503"/>
			<point x="388" y="458"/>
			<point x="335" y="409" type="curve"/>
			<point x="331" y="409" type="line"/>
			<point x="338" y="491" type="line"/>
			<point x="250" y="491" type="line"/>
		</contour>
		<component base="quoteright" xOffset="-233"/>
	</outline>
</glyph>
<glyph name="eng" format="1">
  <advance width="600"/>
  <unicode hex="014B"/>
  <outline>
    <contour>
      <point x="299" y="-185" type="curve" smooth="yes"/>
      <point x="399" y="-185"/>
      <point x="444" y="-117"/>
      <point x="464" y="-19" type="curve"/>
      <point x="528" y="302" type="line" smooth="yes"/>
      <point x="534" y="328"/>
      <point x="537" y="353"/>
      <point x="537" y="379" type="curve" smooth="yes"/>
      <point x="537" y="457"/>
      <point x="495" y="503"/>
      <point x="410" y="503" type="curve" smooth="yes"/>
      <point x="332" y="503"/>
      <point x="259" y="452"/>
      <point x="205" y="399" type="curve"/>
      <point x="201" y="399" type="line"/>
      <point x="210" y="491" type="line"/>
      <point x="123" y="491" type="line"/>
      <point x="26" y="0" type="line"/>
      <point x="133" y="0" type="line"/>
      <point x="194" y="308" type="line"/>
      <point x="250" y="374"/>
      <point x="310" y="411"/>
      <point x="363" y="411" type="curve" smooth="yes"/>
      <point x="404" y="411"/>
      <point x="427" y="390"/>
      <point x="427" y="349" type="curve" smooth="yes"/>
      <point x="427" y="331"/>
      <point x="424" y="312"/>
      <point x="419" y="289" type="curve" smooth="yes"/>
      <point x="358" y="-15" type="line"/>
      <point x="345" y="-74"/>
      <point x="328" y="-99"/>
      <point x="292" y="-99" type="curve" smooth="yes"/>
      <point x="273" y="-99"/>
      <point x="260" y="-94"/>
      <point x="247" y="-86" type="curve"/>
      <point x="214" y="-164" type="line"/>
      <point x="241" y="-178"/>
      <point x="266" y="-185"/>
    </contour>
    <contour>
      <point x="352" y="512" type="move" name="aboveLC"/>
    </contour>
  </outline>
</glyph>
<glyph name="OE" format="1">
	<unicode hex="0152"/>
	<advance width="600"/>
	<outline>
		<contour>
			<point x="256" y="0" type="curve" smooth="yes"/>
			<point x="532" y="0" type="line"/>
			<point x="550" y="91" type="line"/>
			<point x="359" y="91" type="line"/>
			<point x="401" y="296" type="line"/>
			<point x="538" y="296" type="line"/>
			<point x="556" y="387" type="line"/>
			<point x="418" y="387" type="line"/>
			<point x="453" y="563" type="line"/>
			<point x="636" y="563" type="line"/>
			<point x="654" y="654" type="line"/>
			<point x="365" y="654" type="line" smooth="yes"/>
			<point x="172" y="654"/>
			<point x="21" y="495"/>
			<point x="21" y="246" type="curve" smooth="yes"/>
			<point x="21" y="86"/>
			<point x="96" y="0"/>
		</contour>
		<contour>
			<point x="259" y="87" type="line" smooth="yes"/>
			<point x="170" y="87"/>
			<point x="131" y="144"/>
			<point x="131" y="253" type="curve" smooth="yes"/>
			<point x="131" y="434"/>
			<point x="223" y="567"/>
			<point x="349" y="567" type="curve" smooth="yes"/>
			<point x="359" y="567" type="line"/>
			<point x="263" y="87" type="line"/>
		</contour>
		<contour>
			<point name="aboveUC" x="373" y="674" type="move"/>
		</contour>
		<contour>
			<point name="baseLC" x="360" y="0" type="move"/>
		</contour>
	</outline>
</glyph>
<glyph name="oe" format="1">
  <advance width="600"/>
  <unicode hex="0153"/>
  <outline>
    <contour>
      <point x="257" y="513" type="move" name="aboveLC"/>
    </contour>
    <contour>
      <point x="127" y="-12" type="curve" smooth="yes"/>
      <point x="190" y="-12"/>
      <point x="247" y="19"/>
      <point x="288" y="88" type="curve"/>
      <point x="272" y="96" type="line"/>
      <point x="279" y="25"/>
      <point x="336" y="-12"/>
      <point x="398" y="-12" type="curve" smooth="yes"/>
      <point x="454" y="-12"/>
      <point x="509" y="8"/>
      <point x="547" y="38" type="curve"/>
      <point x="515" y="107" type="line"/>
      <point x="486" y="88"/>
      <point x="455" y="74"/>
      <point x="415" y="74" type="curve" smooth="yes"/>
      <point x="365" y="74"/>
      <point x="339" y="110"/>
      <point x="339" y="181" type="curve" smooth="yes"/>
      <point x="339" y="291"/>
      <point x="390" y="420"/>
      <point x="460" y="420" type="curve" smooth="yes"/>
      <point x="497" y="420"/>
      <point x="510" y="386"/>
      <point x="510" y="341" type="curve" smooth="yes"/>
      <point x="510" y="321"/>
      <point x="506" y="297"/>
      <point x="501" y="276" type="curve"/>
      <point x="515" y="284" type="line"/>
      <point x="323" y="284" type="line"/>
      <point x="318" y="217" type="line"/>
      <point x="576" y="217" type="line"/>
      <point x="583" y="238"/>
      <point x="597" y="290"/>
      <point x="597" y="342" type="curve" smooth="yes"/>
      <point x="597" y="434"/>
      <point x="559" y="503"/>
      <point x="479" y="503" type="curve" smooth="yes"/>
      <point x="421" y="503"/>
      <point x="359" y="466"/>
      <point x="324" y="388" type="curve"/>
      <point x="336" y="385" type="line"/>
      <point x="328" y="461"/>
      <point x="291" y="503"/>
      <point x="225" y="503" type="curve" smooth="yes"/>
      <point x="102" y="503"/>
      <point x="-9" y="372"/>
      <point x="-9" y="176" type="curve" smooth="yes"/>
      <point x="-9" y="58"/>
      <point x="43" y="-12"/>
    </contour>
    <contour>
      <point x="88" y="181" type="curve" smooth="yes"/>
      <point x="88" y="282"/>
      <point x="139" y="416"/>
      <point x="216" y="416" type="curve" smooth="yes"/>
      <point x="255" y="416"/>
      <point x="273" y="374"/>
      <point x="273" y="308" type="curve" smooth="yes"/>
      <point x="273" y="191"/>
      <point x="220" y="74"/>
      <point x="149" y="74" type="curve" smooth="yes"/>
      <point x="108" y="74"/>
      <point x="88" y="117"/>
    </contour>
  </outline>
</glyph>
<glyph name="Tbar" format="1">
  <advance width="600"/>
  <unicode hex="0166"/>
  <outline>
    <contour>
      <point x="112" y="313" type="line"/>
      <point x="486" y="313" type="line"/>
      <point x="498" y="368" type="line"/>
      <point x="197" y="368" type="line"/>
      <point x="122" y="363" type="line"/>
    </contour>
    <component base="T"/>
    <contour>
      <point x="372" y="674" type="move" name="aboveUC"/>
    </contour>
    <contour>
      <point x="235" y="-20" type="move" name="belowLC"/>
    </contour>
  </outline>
</glyph>
<glyph name="tbar" format="1">
  <advance width="600"/>
  <unicode hex="0167"/>
  <outline>
    <contour>
      <point x="38" y="240" type="line"/>
      <point x="490" y="240" type="line"/>
      <point x="502" y="295" type="line"/>
      <point x="181" y="295" type="line"/>
      <point x="48" y="290" type="line"/>
    </contour>
    <component base="t"/>
  </outline>
</glyph>
<glyph name="Uogonek" format="1">
  <advance width="600"/>
  <unicode hex="0172"/>
  <outline>
    <contour>
      <point x="214" y="-226" type="curve" smooth="yes"/>
      <point x="249" y="-226"/>
      <point x="289" y="-214"/>
      <point x="315" y="-195" type="curve"/>
      <point x="292" y="-142" type="line"/>
      <point x="279" y="-150"/>
      <point x="267" y="-155"/>
      <point x="252" y="-155" type="curve" smooth="yes"/>
      <point x="224" y="-155"/>
      <point x="202" y="-141"/>
      <point x="202" y="-114" type="curve" smooth="yes"/>
      <point x="202" y="-78"/>
      <point x="242" y="-31"/>
      <point x="320" y="-8" type="curve" smooth="yes"/>
      <point x="431" y="29"/>
      <point x="485" y="103"/>
      <point x="515" y="253" type="curve" smooth="yes"/>
      <point x="595" y="654" type="line"/>
      <point x="489" y="654" type="line"/>
      <point x="411" y="261" type="line" smooth="yes"/>
      <point x="384" y="124"/>
      <point x="334" y="81"/>
      <point x="266" y="81" type="curve" smooth="yes"/>
      <point x="199" y="81"/>
      <point x="164" y="124"/>
      <point x="164" y="200" type="curve" smooth="yes"/>
      <point x="164" y="225"/>
      <point x="169" y="252"/>
      <point x="175" y="281" type="curve" smooth="yes"/>
      <point x="250" y="654" type="line"/>
      <point x="142" y="654" type="line"/>
      <point x="69" y="290" type="line" smooth="yes"/>
      <point x="62" y="254"/>
      <point x="58" y="224"/>
      <point x="58" y="190" type="curve" smooth="yes"/>
      <point x="58" y="71"/>
      <point x="119" y="5"/>
      <point x="211" y="-9" type="curve"/>
      <point x="168" y="-36"/>
      <point x="117" y="-90"/>
      <point x="117" y="-148" type="curve" smooth="yes"/>
      <point x="117" y="-200"/>
      <point x="159" y="-226"/>
    </contour>
    <contour>
      <point x="372" y="675" type="move" name="aboveUC"/>
    </contour>
  </outline>
</glyph>
<glyph name="uogonek" format="1">
  <advance width="600"/>
  <unicode hex="0173"/>
  <outline>
    <contour>
      <point x="355" y="-226" type="curve" smooth="yes"/>
      <point x="397" y="-226"/>
      <point x="433" y="-212"/>
      <point x="459" y="-191" type="curve"/>
      <point x="439" y="-146" type="line"/>
      <point x="423" y="-155"/>
      <point x="410" y="-160"/>
      <point x="392" y="-160" type="curve" smooth="yes"/>
      <point x="364" y="-160"/>
      <point x="339" y="-145"/>
      <point x="339" y="-114" type="curve" smooth="yes"/>
      <point x="339" y="-75"/>
      <point x="374" y="-34"/>
      <point x="458" y="-3" type="curve"/>
      <point x="556" y="491" type="line"/>
      <point x="449" y="491" type="line"/>
      <point x="388" y="183" type="line"/>
      <point x="332" y="117"/>
      <point x="275" y="80"/>
      <point x="221" y="80" type="curve" smooth="yes"/>
      <point x="180" y="80"/>
      <point x="157" y="102"/>
      <point x="157" y="143" type="curve" smooth="yes"/>
      <point x="157" y="161"/>
      <point x="161" y="179"/>
      <point x="166" y="202" type="curve" smooth="yes"/>
      <point x="224" y="491" type="line"/>
      <point x="116" y="491" type="line"/>
      <point x="56" y="189" type="line" smooth="yes"/>
      <point x="51" y="164"/>
      <point x="47" y="138"/>
      <point x="47" y="112" type="curve" smooth="yes"/>
      <point x="47" y="34"/>
      <point x="90" y="-12"/>
      <point x="174" y="-12" type="curve" smooth="yes"/>
      <point x="252" y="-12"/>
      <point x="323" y="39"/>
      <point x="377" y="92" type="curve"/>
      <point x="381" y="92" type="line"/>
      <point x="372" y="1" type="line"/>
      <point x="321" y="-26"/>
      <point x="260" y="-77"/>
      <point x="260" y="-145" type="curve" smooth="yes"/>
      <point x="260" y="-200"/>
      <point x="302" y="-226"/>
    </contour>
    <contour>
      <point x="336" y="512" type="move" name="aboveLC"/>
    </contour>
  </outline>
</glyph>
<glyph name="Dhook" format="1">
  <advance width="600"/>
  <unicode hex="018A"/>
  <outline>
    <contour>
      <point x="129" y="0" type="line"/>
      <point x="214" y="0" type="line" smooth="yes"/>
      <point x="442" y="0"/>
      <point x="592" y="169"/>
      <point x="592" y="422" type="curve" smooth="yes"/>
      <point x="592" y="582"/>
      <point x="496" y="667"/>
      <point x="329" y="667" type="curve" smooth="yes"/>
      <point x="130" y="667"/>
      <point x="24" y="531"/>
      <point x="24" y="396" type="curve" smooth="yes"/>
      <point x="24" y="330"/>
      <point x="53" y="286"/>
      <point x="101" y="260" type="curve"/>
      <point x="154" y="328" type="line"/>
      <point x="124" y="347"/>
      <point x="108" y="374"/>
      <point x="108" y="411" type="curve" smooth="yes"/>
      <point x="108" y="496"/>
      <point x="171" y="579"/>
      <point x="287" y="579" type="curve" smooth="yes"/>
      <point x="334" y="579" type="line" smooth="yes"/>
      <point x="438" y="579"/>
      <point x="482" y="522"/>
      <point x="482" y="415" type="curve" smooth="yes"/>
      <point x="482" y="212"/>
      <point x="365" y="87"/>
      <point x="248" y="87" type="curve" smooth="yes"/>
      <point x="242" y="87" type="line"/>
      <point x="346" y="605" type="line"/>
      <point x="249" y="605" type="line"/>
    </contour>
    <contour>
      <point x="386" y="674" type="move" name="aboveUC"/>
    </contour>
    <contour>
      <point x="274" y="-20" type="move" name="belowLC"/>
    </contour>
  </outline>
</glyph>
<glyph name="Ohorn" format="1">
  <advance width="600"/>
  <unicode hex="01A0"/>
  <outline>
    <contour>
      <point x="502" y="594" type="line"/>
      <point x="597" y="609"/>
      <point x="653" y="657"/>
      <point x="653" y="746" type="curve" smooth="yes"/>
      <point x="653" y="767"/>
      <point x="648" y="791"/>
      <point x="639" y="814" type="curve"/>
      <point x="556" y="787" type="line"/>
      <point x="563" y="771"/>
      <point x="566" y="750"/>
      <point x="566" y="736" type="curve" smooth="yes"/>
      <point x="566" y="678"/>
      <point x="529" y="643"/>
      <point x="461" y="637" type="curve"/>
    </contour>
    <component base="O"/>
    <contour>
      <point x="372" y="674" type="move" name="aboveUC"/>
    </contour>
    <contour>
      <point x="232" y="-20" type="move" name="belowLC"/>
    </contour>
  </outline>
</glyph>
<glyph name="ohorn" format="1">
  <advance width="600"/>
  <unicode hex="01A1"/>
  <outline>
    <contour>
      <point x="340" y="513" type="move" name="aboveLC"/>
    </contour>
    <contour>
      <point x="234" y="-22" type="move" name="belowLC"/>
    </contour>
    <contour>
      <point x="469" y="438" type="line"/>
      <point x="562" y="456"/>
      <point x="613" y="511"/>
      <point x="613" y="592" type="curve" smooth="yes"/>
      <point x="613" y="612"/>
      <point x="608" y="638"/>
      <point x="600" y="658" type="curve"/>
      <point x="518" y="631" type="line"/>
      <point x="523" y="618"/>
      <point x="527" y="598"/>
      <point x="526" y="586" type="curve" smooth="yes"/>
      <point x="525" y="529"/>
      <point x="492" y="488"/>
      <point x="421" y="480" type="curve"/>
    </contour>
    <component base="o"/>
  </outline>
</glyph>
<glyph name="Uhorn" format="1">
  <advance width="600"/>
  <unicode hex="01AF"/>
  <outline>
    <contour>
      <point x="373" y="676" type="move" name="aboveUC"/>
    </contour>
    <contour>
      <point x="233" y="-22" type="move" name="belowLC"/>
    </contour>
    <contour>
      <point x="584" y="610" type="line"/>
      <point x="673" y="625"/>
      <point x="728" y="667"/>
      <point x="728" y="744" type="curve" smooth="yes"/>
      <point x="728" y="765"/>
      <point x="724" y="785"/>
      <point x="714" y="808" type="curve"/>
      <point x="631" y="781" type="line"/>
      <point x="638" y="765"/>
      <point x="641" y="750"/>
      <point x="641" y="736" type="curve" smooth="yes"/>
      <point x="641" y="688"/>
      <point x="606" y="658"/>
      <point x="544" y="653" type="curve"/>
    </contour>
    <component base="U"/>
  </outline>
</glyph>
<glyph name="uhorn" format="1">
  <advance width="600"/>
  <unicode hex="01B0"/>
  <outline>
    <contour>
      <point x="344" y="513" type="move" name="aboveLC"/>
    </contour>
    <contour>
      <point x="255" y="-22" type="move" name="belowLC"/>
    </contour>
    <contour>
      <point x="541" y="448" type="line"/>
      <point x="611" y="464"/>
      <point x="666" y="517"/>
      <point x="666" y="598" type="curve" smooth="yes"/>
      <point x="666" y="618"/>
      <point x="662" y="644"/>
      <point x="653" y="665" type="curve"/>
      <point x="571" y="638" type="line"/>
      <point x="576" y="624"/>
      <point x="580" y="604"/>
      <point x="580" y="592" type="curve" smooth="yes"/>
      <point x="578" y="535"/>
      <point x="542" y="496"/>
      <point x="495" y="491" type="curve"/>
    </contour>
    <component base="u"/>
  </outline>
</glyph>
<glyph name="aringacute" format="1">
  <advance width="600"/>
  <unicode hex="01FB"/>
  <outline>
    <contour>
      <point x="353" y="714" type="line"/>
      <point x="515" y="812" type="line"/>
      <point x="467" y="862" type="line"/>
      <point x="320" y="741" type="line"/>
    </contour>
    <component base="aring"/>
  </outline>
</glyph>
<glyph name="aturned" format="1">
	<unicode hex="0250"/>
	<advance width="600"/>
	<outline>
		<component base="a.a" xScale="-1" yScale="-1" xOffset="580" yOffset="491"/>
		<contour>
			<point name="aboveLC" x="352" y="512" type="move"/>
		</contour>
		<contour>
			<point name="belowLC" x="246" y="-20" type="move"/>
		</contour>
	</outline>
</glyph>
<glyph name="istroke" format="1">
	<unicode hex="0268"/>
	<advance width="600"/>
	<outline>
		<component base="istroke.d"/>
		<component base="dotaccentcmb" xOffset="-19"/>
		<contour>
			<point name="baseLC" x="346" y="0" type="move"/>
		</contour>
		<contour>
			<point name="belowLC" x="322" y="-20" type="move"/>
		</contour>
	</outline>
</glyph>
<glyph name="ismall" format="1">
  <advance width="600"/>
  <unicode hex="026A"/>
  <outline>
    <contour>
      <point x="33" y="0" type="line"/>
      <point x="447" y="0" type="line"/>
      <point x="465" y="91" type="line"/>
      <point x="312" y="91" type="line"/>
      <point x="374" y="400" type="line"/>
      <point x="527" y="400" type="line"/>
      <point x="545" y="491" type="line"/>
      <point x="130" y="491" type="line"/>
      <point x="112" y="400" type="line"/>
      <point x="263" y="400" type="line"/>
      <point x="201" y="91" type="line"/>
      <point x="51" y="91" type="line"/>
    </contour>
    <contour>
      <point x="339" y="512" type="move" name="aboveLC"/>
    </contour>
    <contour>
      <point x="234" y="-20" type="move" name="belowLC"/>
    </contour>
  </outline>
</glyph>
<glyph name="dotlessjstrokehook" format="1">
	<unicode hex="0284"/>
	<advance width="600"/>
	<outline>
		<contour>
			<point x="79" y="225" type="line"/>
			<point x="507" y="225" type="line"/>
			<point x="521" y="291" type="line"/>
			<point x="250" y="291" type="line"/>
			<point x="91" y="285" type="line"/>
		</contour>
		<component base="esh"/>
		<contour>
			<point name="aboveUC" x="478" y="730" type="move"/>
		</contour>
		<contour>
			<point name="belowLC" x="132" y="-212" type="move"/>
		</contour>
	</outline>
</glyph>
<glyph name="tturned" format="1">
  <advance width="600"/>
  <unicode hex="0287"/>
  <outline>
    <component base="t" xScale="-1.0" yScale="-1.0" xOffset="580" yOffset="491"/>
    <contour>
      <point x="300" y="512" type="move" name="aboveLC"/>
    </contour>
    <contour>
      <point x="272" y="-154" type="move" name="belowLC"/>
    </contour>
  </outline>
</glyph>
<glyph name="hsmall" format="1">
  <advance width="600"/>
  <unicode hex="029C"/>
  <outline>
    <contour>
      <point x="26" y="1" type="line"/>
      <point x="133" y="1" type="line"/>
      <point x="174" y="206" type="line"/>
      <point x="387" y="206" type="line"/>
      <point x="346" y="1" type="line"/>
      <point x="453" y="1" type="line"/>
      <point x="550" y="492" type="line"/>
      <point x="443" y="492" type="line"/>
      <point x="406" y="299" type="line"/>
      <point x="193" y="299" type="line"/>
      <point x="230" y="492" type="line"/>
      <point x="123" y="492" type="line"/>
    </contour>
    <contour>
      <point x="334" y="512" type="move" name="aboveLC"/>
    </contour>
    <contour>
      <point x="234" y="-20" type="move" name="belowLC"/>
    </contour>
  </outline>
</glyph>
<glyph name="jcrossedtail" format="1">
	<unicode hex="029D"/>
	<advance width="600"/>
	<outline>
		<component base="jcrossedtail.d"/>
		<component base="dotaccentcmb" xOffset="56"/>
		<contour>
			<point name="belowLC" x="154" y="-212" type="move"/>
		</contour>
	</outline>
</glyph>
<glyph name="kturned" format="1">
  <advance width="600"/>
  <unicode hex="029E"/>
  <outline>
    <contour>
      <point x="300" y="-194" type="line"/>
      <point x="408" y="-194" type="line"/>
      <point x="545" y="491" type="line"/>
      <point x="438" y="491" type="line"/>
      <point x="414" y="368" type="line"/>
      <point x="244" y="230" type="line"/>
      <point x="-17" y="0" type="line"/>
      <point x="109" y="0" type="line"/>
      <point x="382" y="231" type="line"/>
      <point x="386" y="231" type="line"/>
    </contour>
    <contour>
      <point x="221" y="176" type="line"/>
      <point x="292" y="248" type="line"/>
      <point x="174" y="491" type="line"/>
      <point x="64" y="491" type="line"/>
    </contour>
    <contour>
      <point x="316" y="512" type="move" name="aboveLC"/>
    </contour>
    <contour>
      <point x="350" y="-212" type="move" name="belowLC"/>
    </contour>
  </outline>
</glyph>
<glyph name="ringhalfrightmod" format="1">
  <advance width="600"/>
  <unicode hex="02BE"/>
  <outline>
    <contour>
      <point x="256" y="538" type="line"/>
      <point x="389" y="536"/>
      <point x="471" y="598"/>
      <point x="471" y="699" type="curve" smooth="yes"/>
      <point x="471" y="785"/>
      <point x="409" y="833"/>
      <point x="308" y="829" type="curve"/>
      <point x="296" y="769" type="line"/>
      <point x="355" y="769"/>
      <point x="387" y="743"/>
      <point x="387" y="693" type="curve" smooth="yes"/>
      <point x="387" y="640"/>
      <point x="341" y="601"/>
      <point x="268" y="598" type="curve"/>
    </contour>
  </outline>
</glyph>
<glyph name="verticallinelowmod" format="1">
  <advance width="600"/>
  <unicode hex="02CC"/>
  <outline>
    <contour>
      <point x="129" y="-257" type="line"/>
      <point x="249" y="-257" type="line"/>
      <point x="290" y="77" type="line"/>
      <point x="221" y="77" type="line"/>
    </contour>
  </outline>
</glyph>
<glyph name="tildecmb" format="1">
	<unicode hex="0303"/>
	<advance width="600"/>
	<outline>
		<contour>
			<point x="432" y="575" type="curve" smooth="yes"/>
			<point x="501" y="575"/>
			<point x="546" y="629"/>
			<point x="563" y="719" type="curve"/>
			<point x="490" y="723" type="line"/>
			<point x="482" y="680"/>
			<point x="463" y="656"/>
			<point x="438" y="656" type="curve" smooth="yes"/>
			<point x="392" y="656"/>
			<point x="379" y="730"/>
			<point x="311" y="730" type="curve" smooth="yes"/>
			<point x="242" y="730"/>
			<point x="197" y="677"/>
			<point x="180" y="586" type="curve"/>
			<point x="253" y="582" type="line"/>
			<point x="262" y="626"/>
			<point x="280" y="650"/>
			<point x="305" y="650" type="curve" smooth="yes"/>
			<point x="351" y="650"/>
			<point x="365" y="575"/>
		</contour>
		<contour>
			<point name="_aboveLC" x="339" y="512" type="move"/>
		</contour>
		<contour>
			<point name="aboveLC" x="331" y="592" type="move"/>
		</contour>
	</outline>
</glyph>
<glyph name="dotaccentcmb" format="1">
  <advance width="600"/>
  <unicode hex="0307"/>
  <outline>
    <contour>
      <point x="362" y="582" type="curve" smooth="yes"/>
      <point x="409" y="582"/>
      <point x="448" y="618"/>
      <point x="448" y="664" type="curve" smooth="yes"/>
      <point x="448" y="706"/>
      <point x="418" y="730"/>
      <point x="375" y="730" type="curve" smooth="yes"/>
      <point x="328" y="730"/>
      <point x="290" y="692"/>
      <point x="290" y="648" type="curve" smooth="yes"/>
      <point x="290" y="604"/>
      <point x="324" y="582"/>
    </contour>
    <contour>
      <point x="339" y="512" type="move" name="_aboveLC"/>
    </contour>
    <contour>
      <point x="382" y="726" type="move" name="aboveLC"/>
    </contour>
  </outline>
</glyph>
<glyph name="candrabinducmb" format="1">
	<unicode hex="0310"/>
	<advance width="600"/>
	<outline>
		<contour>
			<point x="353" y="571" type="curve" smooth="yes"/>
			<point x="472" y="571"/>
			<point x="538" y="644"/>
			<point x="557" y="726" type="curve"/>
			<point x="497" y="737" type="line"/>
			<point x="480" y="686"/>
			<point x="434" y="639"/>
			<point x="366" y="639" type="curve" smooth="yes"/>
			<point x="299" y="639"/>
			<point x="275" y="686"/>
			<point x="278" y="737" type="curve"/>
			<point x="214" y="726" type="line"/>
			<point x="204" y="644"/>
			<point x="239" y="571"/>
		</contour>
		<contour>
			<point x="382" y="701" type="curve" smooth="yes"/>
			<point x="421" y="701"/>
			<point x="458" y="736"/>
			<point x="458" y="778" type="curve" smooth="yes"/>
			<point x="458" y="814"/>
			<point x="432" y="831"/>
			<point x="401" y="831" type="curve" smooth="yes"/>
			<point x="362" y="831"/>
			<point x="326" y="796"/>
			<point x="326" y="754" type="curve" smooth="yes"/>
			<point x="326" y="719"/>
			<point x="351" y="701"/>
		</contour>
		<contour>
			<point name="_aboveLC" x="339" y="512" type="move"/>
		</contour>
	</outline>
</glyph>
<glyph name="commaabovecmb" format="1">
  <advance width="600"/>
  <unicode hex="0313"/>
  <outline>
    <contour>
      <point x="312" y="556" type="line"/>
      <point x="396" y="581"/>
      <point x="436" y="631"/>
      <point x="436" y="696" type="curve" smooth="yes"/>
      <point x="436" y="736"/>
      <point x="413" y="765"/>
      <point x="376" y="765" type="curve" smooth="yes"/>
      <point x="340" y="765"/>
      <point x="311" y="742"/>
      <point x="311" y="704" type="curve" smooth="yes"/>
      <point x="311" y="676"/>
      <point x="335" y="656"/>
      <point x="360" y="656" type="curve" smooth="yes"/>
      <point x="378" y="656"/>
      <point x="392" y="663"/>
      <point x="410" y="678" type="curve"/>
      <point x="383" y="716" type="line"/>
      <point x="376" y="668" type="line"/>
      <point x="368" y="635"/>
      <point x="344" y="615"/>
      <point x="296" y="599" type="curve"/>
    </contour>
    <contour>
      <point x="339" y="512" type="move" name="_aboveLC"/>
    </contour>
  </outline>
</glyph>
<glyph name="righttackbelowcmb" format="1">
  <advance width="600"/>
  <unicode hex="0319"/>
  <outline>
    <contour>
      <point x="98" y="-253" type="line"/>
      <point x="161" y="-253" type="line"/>
      <point x="174" y="-184" type="line"/>
      <point x="281" y="-184" type="line"/>
      <point x="293" y="-125" type="line"/>
      <point x="185" y="-125" type="line"/>
      <point x="199" y="-56" type="line"/>
      <point x="138" y="-56" type="line"/>
    </contour>
    <contour>
      <point x="234" y="-20" type="move" name="_belowLC"/>
    </contour>
  </outline>
</glyph>
<glyph name="tildeoverlaycmb" format="1">
  <advance width="600"/>
  <unicode hex="0334"/>
  <outline>
    <contour>
      <point x="373" y="168" type="curve" smooth="yes"/>
      <point x="439" y="168"/>
      <point x="481" y="222"/>
      <point x="498" y="311" type="curve"/>
      <point x="425" y="316" type="line"/>
      <point x="416" y="273"/>
      <point x="398" y="248"/>
      <point x="373" y="248" type="curve" smooth="yes"/>
      <point x="315" y="248"/>
      <point x="286" y="322"/>
      <point x="204" y="322" type="curve" smooth="yes"/>
      <point x="138" y="322"/>
      <point x="96" y="269"/>
      <point x="79" y="179" type="curve"/>
      <point x="152" y="174" type="line"/>
      <point x="160" y="218"/>
      <point x="179" y="242"/>
      <point x="204" y="242" type="curve" smooth="yes"/>
      <point x="262" y="242"/>
      <point x="290" y="168"/>
    </contour>
    <contour>
      <point x="287" y="246" type="move" name="_center"/>
    </contour>
  </outline>
</glyph>
<glyph name="seagullbelowcmb" format="1">
  <advance width="600"/>
  <unicode hex="033C"/>
  <outline>
    <contour>
      <point x="78" y="-240" type="line"/>
      <point x="93" y="-168"/>
      <point x="112" y="-151"/>
      <point x="139" y="-151" type="curve" smooth="yes"/>
      <point x="169" y="-151"/>
      <point x="176" y="-176"/>
      <point x="168" y="-218" type="curve" smooth="yes"/>
      <point x="163" y="-238" type="line"/>
      <point x="221" y="-238" type="line"/>
      <point x="225" y="-218" type="line" smooth="yes"/>
      <point x="233" y="-176"/>
      <point x="250" y="-151"/>
      <point x="279" y="-151" type="curve" smooth="yes"/>
      <point x="306" y="-151"/>
      <point x="319" y="-168"/>
      <point x="305" y="-240" type="curve"/>
      <point x="367" y="-232" type="line"/>
      <point x="387" y="-126"/>
      <point x="365" y="-78"/>
      <point x="298" y="-78" type="curve" smooth="yes"/>
      <point x="265" y="-78"/>
      <point x="233" y="-95"/>
      <point x="215" y="-134" type="curve"/>
      <point x="211" y="-134" type="line"/>
      <point x="208" y="-95"/>
      <point x="184" y="-78"/>
      <point x="150" y="-78" type="curve" smooth="yes"/>
      <point x="84" y="-78"/>
      <point x="41" y="-126"/>
      <point x="20" y="-232" type="curve"/>
    </contour>
    <contour>
      <point x="234" y="-20" type="move" name="_belowLC"/>
    </contour>
  </outline>
</glyph>
<glyph name="macrondoublebelowcmb" format="1">
  <advance width="600"/>
  <unicode hex="035F"/>
  <outline>
    <contour>
      <point x="-294" y="-189" type="line"/>
      <point x="696" y="-189" type="line"/>
      <point x="709" y="-119" type="line"/>
      <point x="-280" y="-119" type="line"/>
    </contour>
  </outline>
</glyph>
<glyph name="breveinverteddoublecmb" format="1">
  <advance width="600"/>
  <unicode hex="0361"/>
  <outline>
    <contour>
      <point x="-68" y="543" type="line"/>
      <point x="73" y="618"/>
      <point x="236" y="647"/>
      <point x="368" y="647" type="curve" smooth="yes"/>
      <point x="500" y="647"/>
      <point x="651" y="618"/>
      <point x="761" y="543" type="curve"/>
      <point x="803" y="598" type="line"/>
      <point x="687" y="681"/>
      <point x="543" y="723"/>
      <point x="383" y="723" type="curve" smooth="yes"/>
      <point x="222" y="723"/>
      <point x="62" y="681"/>
      <point x="-86" y="598" type="curve"/>
    </contour>
  </outline>
</glyph>
<glyph name="pi" format="1">
  <advance width="600"/>
  <unicode hex="03C0"/>
  <outline>
    <contour>
      <point x="150" y="-6" type="line"/>
      <point x="188" y="132"/>
      <point x="223" y="288"/>
      <point x="248" y="418" type="curve"/>
      <point x="150" y="419" type="line"/>
      <point x="127" y="295"/>
      <point x="89" y="140"/>
      <point x="45" y="0" type="curve"/>
    </contour>
    <contour>
      <point x="53" y="408" type="line"/>
      <point x="592" y="408" type="line"/>
      <point x="609" y="491" type="line"/>
      <point x="141" y="491" type="line"/>
      <point x="68" y="486" type="line"/>
    </contour>
    <contour>
      <point x="435" y="-12" type="curve" smooth="yes"/>
      <point x="466" y="-12"/>
      <point x="497" y="-3"/>
      <point x="514" y="3" type="curve"/>
      <point x="504" y="81" type="line"/>
      <point x="493" y="77"/>
      <point x="482" y="74"/>
      <point x="470" y="74" type="curve" smooth="yes"/>
      <point x="453" y="74"/>
      <point x="441" y="83"/>
      <point x="441" y="106" type="curve" smooth="yes"/>
      <point x="441" y="139"/>
      <point x="477" y="293"/>
      <point x="508" y="416" type="curve"/>
      <point x="408" y="416" type="line"/>
      <point x="380" y="300"/>
      <point x="340" y="136"/>
      <point x="340" y="80" type="curve" smooth="yes"/>
      <point x="340" y="24"/>
      <point x="369" y="-12"/>
    </contour>
  </outline>
</glyph>
<glyph name="figuredash" format="1">
  <advance width="600"/>
  <unicode hex="2012"/>
  <outline>
    <contour>
      <point x="60" y="210" type="line"/>
      <point x="500" y="210" type="line"/>
      <point x="518" y="295" type="line"/>
      <point x="78" y="295" type="line"/>
    </contour>
  </outline>
</glyph>
<glyph name="endash" format="1">
  <advance width="600"/>
  <unicode hex="2013"/>
  <outline>
    <contour>
      <point x="61" y="210" type="line"/>
      <point x="501" y="210" type="line"/>
      <point x="518" y="295" type="line"/>
      <point x="78" y="295" type="line"/>
    </contour>
  </outline>
</glyph>
<glyph name="quoteleft" format="1">
  <advance width="600"/>
  <unicode hex="2018"/>
  <outline>
    <contour>
      <point x="318" y="343" type="curve" smooth="yes"/>
      <point x="376" y="343"/>
      <point x="419" y="389"/>
      <point x="419" y="441" type="curve" smooth="yes"/>
      <point x="419" y="486"/>
      <point x="391" y="515"/>
      <point x="347" y="515" type="curve" smooth="yes"/>
      <point x="320" y="515"/>
      <point x="302" y="505"/>
      <point x="285" y="490" type="curve"/>
      <point x="322" y="403" type="line"/>
      <point x="332" y="502" type="line"/>
      <point x="345" y="563"/>
      <point x="399" y="615"/>
      <point x="483" y="638" type="curve"/>
      <point x="468" y="694" type="line"/>
      <point x="329" y="660"/>
      <point x="236" y="564"/>
      <point x="236" y="445" type="curve" smooth="yes"/>
      <point x="236" y="377"/>
      <point x="271" y="343"/>
    </contour>
  </outline>
</glyph>
<glyph name="bullet" format="1">
  <advance width="600"/>
  <unicode hex="2022"/>
  <outline>
    <contour>
      <point x="266" y="110" type="curve" smooth="yes"/>
      <point x="363" y="110"/>
      <point x="447" y="180"/>
      <point x="447" y="288" type="curve" smooth="yes"/>
      <point x="447" y="363"/>
      <point x="392" y="414"/>
      <point x="319" y="414" type="curve" smooth="yes"/>
      <point x="220" y="414"/>
      <point x="135" y="344"/>
      <point x="135" y="236" type="curve" smooth="yes"/>
      <point x="135" y="161"/>
      <point x="191" y="110"/>
    </contour>
  </outline>
</glyph>
<glyph name="perthousand" format="1">
  <advance width="600"/>
  <unicode hex="2030"/>
  <outline>
    <contour>
      <point x="176" y="389" type="curve" smooth="yes"/>
      <point x="264" y="389"/>
      <point x="327" y="455"/>
      <point x="327" y="548" type="curve" smooth="yes"/>
      <point x="327" y="610"/>
      <point x="290" y="649"/>
      <point x="230" y="649" type="curve" smooth="yes"/>
      <point x="147" y="649"/>
      <point x="79" y="586"/>
      <point x="79" y="492" type="curve" smooth="yes"/>
      <point x="79" y="431"/>
      <point x="117" y="389"/>
    </contour>
    <contour>
      <point x="185" y="439" type="curve" smooth="yes"/>
      <point x="158" y="439"/>
      <point x="144" y="458"/>
      <point x="144" y="496" type="curve" smooth="yes"/>
      <point x="144" y="559"/>
      <point x="181" y="599"/>
      <point x="222" y="599" type="curve" smooth="yes"/>
      <point x="248" y="599"/>
      <point x="262" y="582"/>
      <point x="262" y="545" type="curve" smooth="yes"/>
      <point x="262" y="477"/>
      <point x="225" y="439"/>
    </contour>
    <contour>
      <point x="106" y="272" type="line"/>
      <point x="602" y="427" type="line"/>
      <point x="582" y="498" type="line"/>
      <point x="94" y="307" type="line"/>
    </contour>
    <contour>
      <point x="96" y="-13" type="curve" smooth="yes"/>
      <point x="184" y="-13"/>
      <point x="247" y="53"/>
      <point x="247" y="147" type="curve" smooth="yes"/>
      <point x="247" y="209"/>
      <point x="210" y="248"/>
      <point x="150" y="248" type="curve" smooth="yes"/>
      <point x="67" y="248"/>
      <point x="-2" y="185"/>
      <point x="-2" y="90" type="curve" smooth="yes"/>
      <point x="-2" y="29"/>
      <point x="36" y="-13"/>
    </contour>
    <contour>
      <point x="105" y="38" type="curve" smooth="yes"/>
      <point x="78" y="38"/>
      <point x="63" y="57"/>
      <point x="63" y="94" type="curve" smooth="yes"/>
      <point x="63" y="158"/>
      <point x="100" y="198"/>
      <point x="142" y="198" type="curve" smooth="yes"/>
      <point x="167" y="198"/>
      <point x="182" y="180"/>
      <point x="182" y="143" type="curve" smooth="yes"/>
      <point x="182" y="75"/>
      <point x="145" y="38"/>
    </contour>
    <contour>
      <point x="372" y="-13" type="curve" smooth="yes"/>
      <point x="460" y="-13"/>
      <point x="523" y="53"/>
      <point x="523" y="147" type="curve" smooth="yes"/>
      <point x="523" y="209"/>
      <point x="486" y="248"/>
      <point x="426" y="248" type="curve" smooth="yes"/>
      <point x="343" y="248"/>
      <point x="274" y="185"/>
      <point x="274" y="90" type="curve" smooth="yes"/>
      <point x="274" y="29"/>
      <point x="312" y="-13"/>
    </contour>
    <contour>
      <point x="381" y="38" type="curve" smooth="yes"/>
      <point x="354" y="38"/>
      <point x="339" y="57"/>
      <point x="339" y="94" type="curve" smooth="yes"/>
      <point x="339" y="158"/>
      <point x="377" y="198"/>
      <point x="418" y="198" type="curve" smooth="yes"/>
      <point x="444" y="198"/>
      <point x="458" y="180"/>
      <point x="458" y="143" type="curve" smooth="yes"/>
      <point x="458" y="75"/>
      <point x="421" y="38"/>
    </contour>
  </outline>
</glyph>
<glyph name="guilsinglleft" format="1">
  <advance width="600"/>
  <unicode hex="2039"/>
  <outline>
    <contour>
      <point x="312" y="40" type="line"/>
      <point x="368" y="81" type="line"/>
      <point x="280" y="258" type="line"/>
      <point x="278" y="237" type="line"/>
      <point x="434" y="417" type="line"/>
      <point x="395" y="462" type="line"/>
      <point x="202" y="299" type="line"/>
      <point x="186" y="211" type="line"/>
    </contour>
  </outline>
</glyph>
<glyph name="guilsinglright" format="1">
  <advance width="600"/>
  <unicode hex="203A"/>
  <outline>
    <contour>
      <point x="172" y="41" type="line"/>
      <point x="365" y="204" type="line"/>
      <point x="381" y="291" type="line"/>
      <point x="255" y="462" type="line"/>
      <point x="199" y="422" type="line"/>
      <point x="287" y="245" type="line"/>
      <point x="289" y="266" type="line"/>
      <point x="133" y="85" type="line"/>
    </contour>
  </outline>
</glyph>
<glyph name="overline" format="1">
  <advance width="600"/>
  <unicode hex="203E"/>
  <outline>
    <contour>
      <point x="122" y="582" type="line"/>
      <point x="589" y="582" type="line"/>
      <point x="601" y="644" type="line"/>
      <point x="134" y="644" type="line"/>
    </contour>
  </outline>
</glyph>
<glyph name="fraction" format="1">
  <advance width="600"/>
  <unicode hex="2044"/>
  <outline>
    <contour>
      <point x="6" y="25" type="line"/>
      <point x="213" y="228" type="line"/>
      <point x="181" y="264" type="line"/>
      <point x="-40" y="81" type="line"/>
    </contour>
    <contour>
      <point x="388" y="381" type="line"/>
      <point x="607" y="564" type="line"/>
      <point x="561" y="619" type="line"/>
      <point x="356" y="417" type="line"/>
    </contour>
  </outline>
</glyph>
<glyph name="questionexclam" format="1">
  <advance width="600"/>
  <unicode hex="2048"/>
  <outline>
    <contour>
      <point x="79" y="244" type="curve"/>
      <point x="169" y="244" type="line"/>
      <point x="174" y="378"/>
      <point x="346" y="415"/>
      <point x="346" y="562" type="curve" smooth="yes"/>
      <point x="346" y="639"/>
      <point x="283" y="682"/>
      <point x="207" y="682" type="curve" smooth="yes"/>
      <point x="159" y="682"/>
      <point x="110" y="662"/>
      <point x="71" y="625" type="curve"/>
      <point x="112" y="558" type="line"/>
      <point x="135" y="582"/>
      <point x="158" y="595"/>
      <point x="186" y="595" type="curve" smooth="yes"/>
      <point x="218" y="595"/>
      <point x="238" y="571"/>
      <point x="238" y="540" type="curve" smooth="yes"/>
      <point x="238" y="432"/>
      <point x="85" y="397"/>
    </contour>
    <contour>
      <point x="87" y="-12" type="curve" smooth="yes"/>
      <point x="142" y="-12"/>
      <point x="182" y="34"/>
      <point x="182" y="87" type="curve" smooth="yes"/>
      <point x="182" y="130"/>
      <point x="154" y="160"/>
      <point x="114" y="160" type="curve" smooth="yes"/>
      <point x="59" y="160"/>
      <point x="18" y="114"/>
      <point x="18" y="60" type="curve" smooth="yes"/>
      <point x="18" y="18"/>
      <point x="46" y="-12"/>
    </contour>
    <component base="exclam" xOffset="140"/>
  </outline>
</glyph>
<glyph name="exclamquestion" format="1">
  <advance width="600"/>
  <unicode hex="2049"/>
  <outline>
    <contour>
      <point x="359" y="244" type="curve"/>
      <point x="449" y="244" type="line"/>
      <point x="454" y="378"/>
      <point x="626" y="415"/>
      <point x="626" y="562" type="curve" smooth="yes"/>
      <point x="626" y="639"/>
      <point x="563" y="682"/>
      <point x="487" y="682" type="curve" smooth="yes"/>
      <point x="439" y="682"/>
      <point x="390" y="662"/>
      <point x="351" y="625" type="curve"/>
      <point x="392" y="558" type="line"/>
      <point x="415" y="582"/>
      <point x="438" y="595"/>
      <point x="466" y="595" type="curve" smooth="yes"/>
      <point x="498" y="595"/>
      <point x="518" y="571"/>
      <point x="518" y="540" type="curve" smooth="yes"/>
      <point x="518" y="432"/>
      <point x="365" y="397"/>
    </contour>
    <contour>
      <point x="367" y="-12" type="curve" smooth="yes"/>
      <point x="422" y="-12"/>
      <point x="462" y="34"/>
      <point x="462" y="87" type="curve" smooth="yes"/>
      <point x="462" y="130"/>
      <point x="434" y="160"/>
      <point x="394" y="160" type="curve" smooth="yes"/>
      <point x="339" y="160"/>
      <point x="298" y="114"/>
      <point x="298" y="60" type="curve" smooth="yes"/>
      <point x="298" y="18"/>
      <point x="326" y="-12"/>
    </contour>
    <component base="exclam" xOffset="-140"/>
  </outline>
</glyph>
<glyph name="colonmonetary" format="1">
  <advance width="600"/>
  <unicode hex="20A1"/>
  <outline>
    <contour>
      <point x="287" y="-12" type="curve"/>
      <point x="378" y="-12"/>
      <point x="447" y="22"/>
      <point x="509" y="82" type="curve"/>
      <point x="456" y="151" type="line"/>
      <point x="413" y="105"/>
      <point x="366" y="77"/>
      <point x="308" y="77" type="curve" smooth="yes"/>
      <point x="234" y="77"/>
      <point x="186" y="136"/>
      <point x="186" y="241" type="curve" smooth="yes"/>
      <point x="186" y="412"/>
      <point x="281" y="564"/>
      <point x="415" y="564" type="curve" smooth="yes"/>
      <point x="467" y="564"/>
      <point x="499" y="537"/>
      <point x="526" y="496" type="curve"/>
      <point x="592" y="549" type="line"/>
      <point x="559" y="602"/>
      <point x="506" y="649"/>
      <point x="420" y="649" type="curve" smooth="yes"/>
      <point x="230" y="649"/>
      <point x="79" y="486"/>
      <point x="79" y="237" type="curve" smooth="yes"/>
      <point x="79" y="81"/>
      <point x="161" y="-12"/>
    </contour>
    <contour>
      <point x="139" y="-110" type="line"/>
      <point x="181" y="-110" type="line"/>
      <point x="454" y="747" type="line"/>
      <point x="412" y="747" type="line"/>
    </contour>
    <contour>
      <point x="233" y="-110" type="line"/>
      <point x="275" y="-110" type="line"/>
      <point x="548" y="747" type="line"/>
      <point x="506" y="747" type="line"/>
    </contour>
  </outline>
</glyph>
<glyph name="lira" format="1">
  <advance width="600"/>
  <unicode hex="20A4"/>
  <outline>
    <contour>
      <point x="22" y="0" type="line"/>
      <point x="461" y="0" type="line"/>
      <point x="478" y="90" type="line"/>
      <point x="192" y="90" type="line"/>
      <point x="193" y="95" type="line"/>
      <point x="258" y="144"/>
      <point x="288" y="200"/>
      <point x="288" y="285" type="curve" smooth="yes"/>
      <point x="287" y="327"/>
      <point x="278" y="380"/>
      <point x="278" y="419" type="curve" smooth="yes"/>
      <point x="278" y="522"/>
      <point x="328" y="562"/>
      <point x="395" y="562" type="curve" smooth="yes"/>
      <point x="439" y="562"/>
      <point x="473" y="539"/>
      <point x="497" y="504" type="curve"/>
      <point x="567" y="560" type="line"/>
      <point x="531" y="612"/>
      <point x="470" y="648"/>
      <point x="396" y="648" type="curve" smooth="yes"/>
      <point x="270" y="648"/>
      <point x="178" y="570"/>
      <point x="178" y="432" type="curve" smooth="yes"/>
      <point x="178" y="385"/>
      <point x="190" y="320"/>
      <point x="190" y="272" type="curve" smooth="yes"/>
      <point x="190" y="183"/>
      <point x="137" y="109"/>
      <point x="36" y="65" type="curve"/>
    </contour>
    <contour>
      <point x="88" y="342" type="line"/>
      <point x="460" y="342" type="line"/>
      <point x="471" y="399" type="line"/>
      <point x="184" y="399" type="line"/>
      <point x="99" y="395" type="line"/>
    </contour>
    <contour>
      <point x="66" y="230" type="line"/>
      <point x="437" y="230" type="line"/>
      <point x="449" y="286" type="line"/>
      <point x="162" y="286" type="line"/>
      <point x="76" y="282" type="line"/>
    </contour>
  </outline>
</glyph>
<glyph name="peseta" format="1">
  <advance width="600"/>
  <unicode hex="20A7"/>
  <outline>
    <contour>
      <point x="59" y="0" type="line"/>
      <point x="159" y="0" type="line"/>
      <point x="206" y="235" type="line"/>
      <point x="266" y="235" type="line" smooth="yes"/>
      <point x="414" y="235"/>
      <point x="544" y="313"/>
      <point x="544" y="479" type="curve" smooth="yes"/>
      <point x="544" y="594"/>
      <point x="465" y="637"/>
      <point x="346" y="637" type="curve" smooth="yes"/>
      <point x="186" y="637" type="line"/>
    </contour>
    <contour>
      <point x="220" y="305" type="line"/>
      <point x="272" y="568" type="line"/>
      <point x="322" y="568" type="line" smooth="yes"/>
      <point x="399" y="568"/>
      <point x="443" y="541"/>
      <point x="443" y="470" type="curve" smooth="yes"/>
      <point x="443" y="366"/>
      <point x="380" y="305"/>
      <point x="270" y="305" type="curve" smooth="yes"/>
    </contour>
    <contour>
      <point x="66" y="407" type="line"/>
      <point x="592" y="407" type="line"/>
      <point x="605" y="472" type="line"/>
      <point x="162" y="472" type="line"/>
      <point x="79" y="467" type="line"/>
    </contour>
  </outline>
</glyph>
<glyph name="Euro" format="1">
  <advance width="600"/>
  <unicode hex="20AC"/>
  <outline>
    <contour>
      <point x="307" y="-12" type="curve" smooth="yes"/>
      <point x="395" y="-12"/>
      <point x="468" y="22"/>
      <point x="530" y="81" type="curve"/>
      <point x="479" y="149" type="line"/>
      <point x="434" y="107"/>
      <point x="386" y="79"/>
      <point x="329" y="79" type="curve" smooth="yes"/>
      <point x="253" y="79"/>
      <point x="212" y="137"/>
      <point x="212" y="243" type="curve" smooth="yes"/>
      <point x="212" y="422"/>
      <point x="310" y="563"/>
      <point x="428" y="563" type="curve" smooth="yes"/>
      <point x="481" y="563"/>
      <point x="511" y="538"/>
      <point x="539" y="498" type="curve"/>
      <point x="607" y="553" type="line"/>
      <point x="572" y="607"/>
      <point x="522" y="648"/>
      <point x="439" y="648" type="curve" smooth="yes"/>
      <point x="253" y="648"/>
      <point x="102" y="492"/>
      <point x="102" y="235" type="curve" smooth="yes"/>
      <point x="102" y="79"/>
      <point x="183" y="-12"/>
    </contour>
    <contour>
      <point x="52" y="346" type="line"/>
      <point x="480" y="346" type="line"/>
      <point x="492" y="403" type="line"/>
      <point x="135" y="403" type="line"/>
      <point x="63" y="398" type="line"/>
    </contour>
    <contour>
      <point x="28" y="229" type="line"/>
      <point x="416" y="229" type="line"/>
      <point x="428" y="286" type="line"/>
      <point x="110" y="286" type="line"/>
      <point x="39" y="281" type="line"/>
    </contour>
  </outline>
</glyph>
<glyph name="careof" format="1">
	<unicode hex="2105"/>
	<advance width="600"/>
	<outline>
		<contour>
			<point x="122" y="317" type="curve" smooth="yes"/>
			<point x="156" y="317"/>
			<point x="193" y="330"/>
			<point x="224" y="351" type="curve"/>
			<point x="200" y="400" type="line"/>
			<point x="180" y="386"/>
			<point x="159" y="377"/>
			<point x="137" y="377" type="curve" smooth="yes"/>
			<point x="106" y="377"/>
			<point x="72" y="398"/>
			<point x="72" y="455" type="curve" smooth="yes"/>
			<point x="72" y="524"/>
			<point x="117" y="586"/>
			<point x="168" y="586" type="curve" smooth="yes"/>
			<point x="190" y="586"/>
			<point x="208" y="576"/>
			<point x="224" y="554" type="curve"/>
			<point x="269" y="594" type="line"/>
			<point x="247" y="624"/>
			<point x="213" y="646"/>
			<point x="168" y="646" type="curve" smooth="yes"/>
			<point x="75" y="646"/>
			<point x="-5" y="556"/>
			<point x="-5" y="450" type="curve" smooth="yes"/>
			<point x="-5" y="355"/>
			<point x="62" y="317"/>
		</contour>
		<component base="fraction" xOffset="1"/>
		<component base="zero.dnom" xOffset="131"/>
	</outline>
</glyph>
<glyph name="trademark" format="1">
  <advance width="600"/>
  <unicode hex="2122"/>
  <outline>
    <contour>
      <point x="104" y="365" type="line"/>
      <point x="174" y="365" type="line"/>
      <point x="226" y="625" type="line"/>
      <point x="156" y="625" type="line"/>
    </contour>
    <contour>
      <point x="295" y="365" type="line"/>
      <point x="360" y="365" type="line"/>
      <point x="384" y="487" type="line"/>
      <point x="398" y="596" type="line"/>
      <point x="402" y="596" type="line"/>
      <point x="430" y="422" type="line"/>
      <point x="478" y="422" type="line"/>
      <point x="576" y="596" type="line"/>
      <point x="580" y="596" type="line"/>
      <point x="549" y="487" type="line"/>
      <point x="526" y="365" type="line"/>
      <point x="590" y="365" type="line"/>
      <point x="652" y="676" type="line"/>
      <point x="570" y="676" type="line"/>
      <point x="510" y="570" type="line"/>
      <point x="470" y="492" type="line"/>
      <point x="466" y="492" type="line"/>
      <point x="457" y="570" type="line"/>
      <point x="439" y="676" type="line"/>
      <point x="357" y="676" type="line"/>
    </contour>
    <contour>
      <point x="68" y="616" type="line"/>
      <point x="309" y="616" type="line"/>
      <point x="321" y="676" type="line"/>
      <point x="81" y="676" type="line"/>
    </contour>
  </outline>
</glyph>
<glyph name="arrowleft" format="1">
  <advance width="600"/>
  <unicode hex="2190"/>
  <outline>
    <contour>
      <point x="282" y="-16" type="line"/>
      <point x="334" y="42" type="line"/>
      <point x="156" y="209" type="line"/>
      <point x="565" y="209" type="line"/>
      <point x="565" y="294" type="line"/>
      <point x="157" y="294" type="line"/>
      <point x="334" y="461" type="line"/>
      <point x="282" y="520" type="line"/>
      <point x="12" y="254" type="line"/>
      <point x="12" y="249" type="line"/>
    </contour>
  </outline>
</glyph>
<glyph name="arrowup" format="1">
  <advance width="600"/>
  <unicode hex="2191"/>
  <outline>
    <contour>
      <point x="251" y="-25" type="line"/>
      <point x="337" y="-25" type="line"/>
      <point x="336" y="384" type="line"/>
      <point x="503" y="207" type="line"/>
      <point x="561" y="259" type="line"/>
      <point x="296" y="529" type="line"/>
      <point x="292" y="529" type="line"/>
      <point x="26" y="259" type="line"/>
      <point x="85" y="207" type="line"/>
      <point x="251" y="384" type="line"/>
    </contour>
  </outline>
</glyph>
<glyph name="arrowright" format="1">
  <advance width="600"/>
  <unicode hex="2192"/>
  <outline>
    <contour>
      <point x="306" y="-16" type="line"/>
      <point x="576" y="249" type="line"/>
      <point x="576" y="254" type="line"/>
      <point x="306" y="520" type="line"/>
      <point x="254" y="461" type="line"/>
      <point x="432" y="294" type="line"/>
      <point x="23" y="294" type="line"/>
      <point x="23" y="209" type="line"/>
      <point x="431" y="209" type="line"/>
      <point x="254" y="42" type="line"/>
    </contour>
  </outline>
</glyph>
<glyph name="arrowdown" format="1">
  <advance width="600"/>
  <unicode hex="2193"/>
  <outline>
    <contour>
      <point x="292" y="-27" type="line"/>
      <point x="296" y="-27" type="line"/>
      <point x="561" y="244" type="line"/>
      <point x="503" y="295" type="line"/>
      <point x="336" y="118" type="line"/>
      <point x="337" y="528" type="line"/>
      <point x="251" y="528" type="line"/>
      <point x="251" y="118" type="line"/>
      <point x="85" y="295" type="line"/>
      <point x="26" y="244" type="line"/>
    </contour>
  </outline>
</glyph>
<glyph name="arrowupdnbse" format="1">
  <advance width="600"/>
  <unicode hex="21A8"/>
  <outline>
    <contour>
      <point x="60" y="-152" type="line"/>
      <point x="540" y="-152" type="line"/>
      <point x="540" y="-70" type="line"/>
      <point x="60" y="-70" type="line"/>
    </contour>
    <component base="arrowupdn"/>
  </outline>
</glyph>
<glyph name="arrowdblleft" format="1">
  <advance width="600"/>
  <unicode hex="21D0"/>
  <outline>
    <contour>
      <point x="284" y="-16" type="line"/>
      <point x="336" y="43" type="line"/>
      <point x="105" y="252" type="line"/>
      <point x="336" y="461" type="line"/>
      <point x="284" y="520" type="line"/>
      <point x="10" y="254" type="line"/>
      <point x="10" y="250" type="line"/>
    </contour>
    <contour>
      <point x="154" y="308" type="line"/>
      <point x="563" y="308" type="line"/>
      <point x="563" y="380" type="line"/>
      <point x="154" y="380" type="line"/>
    </contour>
    <contour>
      <point x="154" y="124" type="line"/>
      <point x="563" y="124" type="line"/>
      <point x="563" y="196" type="line"/>
      <point x="154" y="196" type="line"/>
    </contour>
  </outline>
</glyph>
<glyph name="arrowdblup" format="1">
  <advance width="600"/>
  <unicode hex="21D1"/>
  <outline>
    <contour>
      <point x="85" y="205" type="line"/>
      <point x="294" y="436" type="line"/>
      <point x="503" y="205" type="line"/>
      <point x="562" y="257" type="line"/>
      <point x="296" y="531" type="line"/>
      <point x="292" y="531" type="line"/>
      <point x="26" y="257" type="line"/>
    </contour>
    <contour>
      <point x="175" y="-21" type="line"/>
      <point x="242" y="-21" type="line"/>
      <point x="242" y="388" type="line"/>
      <point x="175" y="388" type="line"/>
    </contour>
    <contour>
      <point x="346" y="-21" type="line"/>
      <point x="413" y="-21" type="line"/>
      <point x="413" y="388" type="line"/>
      <point x="346" y="388" type="line"/>
    </contour>
  </outline>
</glyph>
<glyph name="arrowdblright" format="1">
  <advance width="600"/>
  <unicode hex="21D2"/>
  <outline>
    <contour>
      <point x="304" y="-16" type="line"/>
      <point x="578" y="250" type="line"/>
      <point x="578" y="254" type="line"/>
      <point x="304" y="520" type="line"/>
      <point x="252" y="461" type="line"/>
      <point x="483" y="252" type="line"/>
      <point x="252" y="43" type="line"/>
    </contour>
    <contour>
      <point x="25" y="304" type="line"/>
      <point x="434" y="304" type="line"/>
      <point x="434" y="371" type="line"/>
      <point x="25" y="371" type="line"/>
    </contour>
    <contour>
      <point x="25" y="133" type="line"/>
      <point x="434" y="133" type="line"/>
      <point x="434" y="200" type="line"/>
      <point x="25" y="200" type="line"/>
    </contour>
  </outline>
</glyph>
<glyph name="arrowdbldown" format="1">
  <advance width="600"/>
  <unicode hex="21D3"/>
  <outline>
    <contour>
      <point x="292" y="-24" type="line"/>
      <point x="296" y="-24" type="line"/>
      <point x="562" y="250" type="line"/>
      <point x="503" y="302" type="line"/>
      <point x="294" y="71" type="line"/>
      <point x="85" y="302" type="line"/>
      <point x="26" y="250" type="line"/>
    </contour>
    <contour>
      <point x="166" y="119" type="line"/>
      <point x="238" y="119" type="line"/>
      <point x="238" y="528" type="line"/>
      <point x="166" y="528" type="line"/>
    </contour>
    <contour>
      <point x="350" y="119" type="line"/>
      <point x="422" y="119" type="line"/>
      <point x="422" y="528" type="line"/>
      <point x="350" y="528" type="line"/>
    </contour>
  </outline>
</glyph>
<glyph name="partialdiff" format="1">
  <advance width="600"/>
  <unicode hex="2202"/>
  <outline>
    <contour>
      <point x="213" y="-12" type="curve" smooth="yes"/>
      <point x="405" y="-12"/>
      <point x="554" y="198"/>
      <point x="554" y="448" type="curve" smooth="yes"/>
      <point x="554" y="611"/>
      <point x="477" y="671"/>
      <point x="375" y="671" type="curve" smooth="yes"/>
      <point x="320" y="671"/>
      <point x="262" y="652"/>
      <point x="213" y="615" type="curve"/>
      <point x="252" y="547" type="line"/>
      <point x="282" y="570"/>
      <point x="313" y="585"/>
      <point x="355" y="585" type="curve" smooth="yes"/>
      <point x="411" y="585"/>
      <point x="453" y="545"/>
      <point x="453" y="448" type="curve" smooth="yes"/>
      <point x="453" y="260"/>
      <point x="353" y="75"/>
      <point x="230" y="75" type="curve" smooth="yes"/>
      <point x="176" y="75"/>
      <point x="145" y="111"/>
      <point x="145" y="171" type="curve" smooth="yes"/>
      <point x="145" y="258"/>
      <point x="205" y="328"/>
      <point x="301" y="328" type="curve" smooth="yes"/>
      <point x="358" y="328"/>
      <point x="399" y="289"/>
      <point x="427" y="235" type="curve"/>
      <point x="454" y="319" type="line"/>
      <point x="426" y="368"/>
      <point x="367" y="409"/>
      <point x="293" y="409" type="curve" smooth="yes"/>
      <point x="147" y="409"/>
      <point x="40" y="308"/>
      <point x="40" y="162" type="curve" smooth="yes"/>
      <point x="40" y="45"/>
      <point x="110" y="-12"/>
    </contour>
  </outline>
</glyph>
<glyph name="product" format="1">
  <advance width="600"/>
  <unicode hex="220F"/>
  <outline>
    <contour>
      <point x="34" y="-120" type="line"/>
      <point x="142" y="-120" type="line"/>
      <point x="142" y="542" type="line"/>
      <point x="442" y="542" type="line"/>
      <point x="442" y="-120" type="line"/>
      <point x="551" y="-120" type="line"/>
      <point x="551" y="636" type="line"/>
      <point x="34" y="636" type="line"/>
    </contour>
  </outline>
</glyph>
<glyph name="summation" format="1">
	<unicode hex="2211"/>
	<advance width="600"/>
	<outline>
		<contour>
			<point x="57" y="-120" type="line"/>
			<point x="543" y="-120" type="line"/>
			<point x="543" y="-29" type="line"/>
			<point x="190" y="-29" type="line"/>
			<point x="190" y="-25" type="line"/>
			<point x="394" y="260" type="line"/>
			<point x="198" y="542" type="line"/>
			<point x="198" y="546" type="line"/>
			<point x="517" y="546" type="line"/>
			<point x="517" y="636" type="line"/>
			<point x="68" y="636" type="line"/>
			<point x="68" y="570" type="line"/>
			<point x="284" y="258" type="line"/>
			<point x="57" y="-55" type="line"/>
		</contour>
	</outline>
</glyph>
<glyph name="minus" format="1">
  <advance width="600"/>
  <unicode hex="2212"/>
  <outline>
    <contour>
      <point x="88" y="292" type="line"/>
      <point x="520" y="292" type="line"/>
      <point x="520" y="369" type="line"/>
      <point x="88" y="369" type="line"/>
    </contour>
  </outline>
</glyph>
<glyph name="radical" format="1">
  <advance width="600"/>
  <unicode hex="221A"/>
  <outline>
    <contour>
      <point x="218" y="-90" type="line"/>
      <point x="294" y="-90" type="line"/>
      <point x="693" y="820" type="line"/>
      <point x="620" y="820" type="line"/>
      <point x="303" y="90" type="line" smooth="yes"/>
      <point x="293" y="66"/>
      <point x="285" y="44"/>
      <point x="276" y="20" type="curve"/>
      <point x="272" y="20" type="line"/>
      <point x="271" y="44"/>
      <point x="270" y="66"/>
      <point x="267" y="90" type="curve"/>
      <point x="224" y="417" type="line"/>
      <point x="63" y="355" type="line"/>
      <point x="74" y="301" type="line"/>
      <point x="152" y="332" type="line"/>
    </contour>
  </outline>
</glyph>
<glyph name="infinity" format="1">
  <advance width="600"/>
  <unicode hex="221E"/>
  <outline>
    <contour>
      <point x="451" y="140" type="curve" smooth="yes"/>
      <point x="544" y="140"/>
      <point x="612" y="216"/>
      <point x="612" y="337" type="curve" smooth="yes"/>
      <point x="612" y="441"/>
      <point x="545" y="516"/>
      <point x="455" y="516" type="curve" smooth="yes"/>
      <point x="384" y="516"/>
      <point x="334" y="475"/>
      <point x="291" y="405" type="curve"/>
      <point x="287" y="405" type="line"/>
      <point x="257" y="459"/>
      <point x="214" y="500"/>
      <point x="150" y="500" type="curve" smooth="yes"/>
      <point x="62" y="500"/>
      <point x="-2" y="433"/>
      <point x="-2" y="322" type="curve" smooth="yes"/>
      <point x="-2" y="235"/>
      <point x="60" y="161"/>
      <point x="135" y="161" type="curve" smooth="yes"/>
      <point x="201" y="161"/>
      <point x="245" y="207"/>
      <point x="275" y="255" type="curve"/>
      <point x="279" y="255" type="line"/>
      <point x="331" y="172"/>
      <point x="379" y="140"/>
    </contour>
    <contour>
      <point x="150" y="240" type="curve" smooth="yes"/>
      <point x="110" y="240"/>
      <point x="78" y="277"/>
      <point x="78" y="324" type="curve" smooth="yes"/>
      <point x="78" y="371"/>
      <point x="104" y="400"/>
      <point x="146" y="400" type="curve" smooth="yes"/>
      <point x="182" y="400"/>
      <point x="213" y="376"/>
      <point x="243" y="317" type="curve"/>
      <point x="219" y="266"/>
      <point x="188" y="240"/>
    </contour>
    <contour>
      <point x="447" y="239" type="curve" smooth="yes"/>
      <point x="398" y="239"/>
      <point x="363" y="269"/>
      <point x="323" y="344" type="curve"/>
      <point x="359" y="408"/>
      <point x="397" y="436"/>
      <point x="439" y="436" type="curve" smooth="yes"/>
      <point x="497" y="436"/>
      <point x="532" y="395"/>
      <point x="532" y="334" type="curve" smooth="yes"/>
      <point x="532" y="283"/>
      <point x="501" y="239"/>
    </contour>
  </outline>
</glyph>
<glyph name="orthogonal" format="1">
	<unicode hex="221F"/>
	<advance width="600"/>
	<outline>
		<contour>
			<point x="80" y="100" type="line"/>
			<point x="520" y="100" type="line"/>
			<point x="520" y="178" type="line"/>
			<point x="161" y="178" type="line"/>
			<point x="161" y="560" type="line"/>
			<point x="80" y="560" type="line"/>
		</contour>
	</outline>
</glyph>
<glyph name="integral" format="1">
  <advance width="600"/>
  <unicode hex="222B"/>
  <outline>
    <contour>
      <point x="222" y="-158" type="curve" smooth="yes"/>
      <point x="353" y="-158"/>
      <point x="379" y="-56"/>
      <point x="379" y="78" type="curve" smooth="yes"/>
      <point x="379" y="233"/>
      <point x="340" y="409"/>
      <point x="340" y="557" type="curve" smooth="yes"/>
      <point x="340" y="656"/>
      <point x="351" y="708"/>
      <point x="404" y="708" type="curve" smooth="yes"/>
      <point x="418" y="708"/>
      <point x="430" y="706"/>
      <point x="440" y="704" type="curve"/>
      <point x="451" y="783" type="line"/>
      <point x="442" y="787"/>
      <point x="421" y="790"/>
      <point x="400" y="790" type="curve" smooth="yes"/>
      <point x="269" y="790"/>
      <point x="243" y="688"/>
      <point x="243" y="554" type="curve" smooth="yes"/>
      <point x="243" y="400"/>
      <point x="282" y="223"/>
      <point x="282" y="74" type="curve" smooth="yes"/>
      <point x="282" y="-27"/>
      <point x="272" y="-75"/>
      <point x="217" y="-75" type="curve" smooth="yes"/>
      <point x="203" y="-75"/>
      <point x="191" y="-74"/>
      <point x="182" y="-71" type="curve"/>
      <point x="171" y="-151" type="line"/>
      <point x="180" y="-154"/>
      <point x="200" y="-158"/>
    </contour>
  </outline>
</glyph>
